<svg width="41" height="40" viewBox="0 0 41 40" fill="none" xmlns="http://www.w3.org/2000/svg">
<path d="M34.167 30.0013H30.7503V15.418L20.5003 21.668L10.2503 15.418V30.0013H6.83366V10.0013H8.88366L20.5003 17.0846L32.117 10.0013H34.167M34.167 6.66797H6.83366C4.93741 6.66797 3.41699 8.1513 3.41699 10.0013V30.0013C3.41699 30.8854 3.77696 31.7332 4.41771 32.3583C5.05846 32.9834 5.9275 33.3346 6.83366 33.3346H34.167C35.0731 33.3346 35.9422 32.9834 36.5829 32.3583C37.2237 31.7332 37.5837 30.8854 37.5837 30.0013V10.0013C37.5837 9.11725 37.2237 8.2694 36.5829 7.64428C35.9422 7.01916 35.0731 6.66797 34.167 6.66797Z" fill="#0076FF"/>
</svg>
