<svg width="50" height="50" viewBox="0 0 50 50" fill="none" xmlns="http://www.w3.org/2000/svg">
<rect width="50" height="50" rx="7" fill="#E0E4E9"/>
<path d="M28.958 17.293C28.958 18.1218 28.6288 18.9166 28.0427 19.5027C27.4567 20.0887 26.6618 20.418 25.833 20.418C25.0042 20.418 24.2094 20.0887 23.6233 19.5027C23.0372 18.9166 22.708 18.1218 22.708 17.293C22.708 16.4642 23.0372 15.6693 23.6233 15.0833C24.2094 14.4972 25.0042 14.168 25.833 14.168C26.6618 14.168 27.4567 14.4972 28.0427 15.0833C28.6288 15.6693 28.958 16.4642 28.958 17.293ZM35.208 17.918C35.208 18.581 34.9446 19.2169 34.4758 19.6857C34.0069 20.1546 33.371 20.418 32.708 20.418C32.045 20.418 31.4091 20.1546 30.9402 19.6857C30.4714 19.2169 30.208 18.581 30.208 17.918C30.208 17.2549 30.4714 16.619 30.9402 16.1502C31.4091 15.6814 32.045 15.418 32.708 15.418C33.371 15.418 34.0069 15.6814 34.4758 16.1502C34.9446 16.619 35.208 17.2549 35.208 17.918ZM18.958 20.418C19.621 20.418 20.2569 20.1546 20.7258 19.6857C21.1946 19.2169 21.458 18.581 21.458 17.918C21.458 17.2549 21.1946 16.619 20.7258 16.1502C20.2569 15.6814 19.621 15.418 18.958 15.418C18.295 15.418 17.6591 15.6814 17.1902 16.1502C16.7214 16.619 16.458 17.2549 16.458 17.918C16.458 18.581 16.7214 19.2169 17.1902 19.6857C17.6591 20.1546 18.295 20.418 18.958 20.418ZM20.833 23.2305C20.833 22.368 21.533 21.668 22.3955 21.668H29.2705C30.133 21.668 30.833 22.368 30.833 23.2305V29.168C30.833 30.4941 30.3062 31.7658 29.3685 32.7035C28.4309 33.6412 27.1591 34.168 25.833 34.168C24.5069 34.168 23.2352 33.6412 22.2975 32.7035C21.3598 31.7658 20.833 30.4941 20.833 29.168V23.2305ZM19.583 23.2305C19.583 22.6517 19.758 22.1155 20.0568 21.668H17.3955C16.533 21.668 15.833 22.368 15.833 23.2305V27.918C15.8329 28.4531 15.9474 28.9821 16.1688 29.4693C16.3901 29.9566 16.7131 30.3908 17.1162 30.7428C17.5193 31.0948 17.993 31.3565 18.5056 31.5103C19.0182 31.664 19.5577 31.7063 20.088 31.6342C19.7536 30.8551 19.5817 30.0159 19.583 29.168V23.2305ZM32.083 29.168C32.083 30.043 31.903 30.878 31.578 31.6342C32.1083 31.7063 32.6478 31.664 33.1604 31.5103C33.673 31.3565 34.1468 31.0948 34.5498 30.7428C34.9529 30.3908 35.2759 29.9566 35.4973 29.4693C35.7186 28.9821 35.8331 28.4531 35.833 27.918V23.2305C35.833 22.368 35.133 21.668 34.2705 21.668H31.6093C31.9093 22.1155 32.083 22.6517 32.083 23.2305V29.168Z" fill="#0056B7"/>
</svg>
