<svg width="42" height="39" viewBox="0 0 42 39" fill="none" xmlns="http://www.w3.org/2000/svg">
<path d="M32.1562 0H9.84375C4.4072 0 0 4.0924 0 9.14062V29.8594C0 34.9076 4.4072 39 9.84375 39H32.1562C37.5928 39 42 34.9076 42 29.8594V9.14062C42 4.0924 37.5928 0 32.1562 0Z" fill="white"/>
<path d="M32.1562 0H9.84375C4.4072 0 0 4.0924 0 9.14062V29.8594C0 34.9076 4.4072 39 9.84375 39H32.1562C37.5928 39 42 34.9076 42 29.8594V9.14062C42 4.0924 37.5928 0 32.1562 0Z" fill="#0A66C2"/>
<path d="M30.3048 33.1629H35.1069C35.2809 33.1629 35.4478 33.0988 35.5709 32.9845C35.694 32.8703 35.7631 32.7153 35.7632 32.5537L35.7656 23.1325C35.7656 18.2083 34.6229 14.4233 28.4258 14.4233C26.07 14.3419 23.8485 15.4696 22.6496 17.3526C22.6438 17.3617 22.6349 17.3688 22.6242 17.3728C22.6136 17.3768 22.6019 17.3775 22.5908 17.3747C22.5798 17.3719 22.57 17.3658 22.563 17.3574C22.556 17.349 22.5521 17.3387 22.552 17.328V15.4873C22.552 15.3257 22.4829 15.1707 22.3598 15.0564C22.2367 14.9421 22.0698 14.8779 21.8958 14.8779H17.3386C17.1646 14.8779 16.9977 14.9421 16.8746 15.0564C16.7515 15.1707 16.6824 15.3257 16.6824 15.4873V32.5528C16.6824 32.7144 16.7515 32.8694 16.8746 32.9837C16.9977 33.098 17.1646 33.1622 17.3386 33.1622H22.1404C22.3144 33.1622 22.4814 33.098 22.6044 32.9837C22.7275 32.8694 22.7966 32.7144 22.7966 32.5528V24.1171C22.7966 21.7318 23.2839 19.4218 26.4685 19.4218C29.6079 19.4218 29.6486 22.1512 29.6486 24.2716V32.5536C29.6486 32.7152 29.7177 32.8702 29.8408 32.9845C29.9638 33.0987 30.1308 33.1629 30.3048 33.1629ZM6.23438 9.08395C6.23438 10.8914 7.83677 12.3785 9.78338 12.3785C11.7295 12.3784 13.3309 10.8903 13.3309 9.08319C13.3306 7.27609 11.729 5.78906 9.78272 5.78906C7.83595 5.78906 6.23438 7.27655 6.23438 9.08395ZM7.37609 33.1629H12.1843C12.3583 33.1629 12.5252 33.0987 12.6483 32.9845C12.7714 32.8702 12.8405 32.7152 12.8405 32.5536V15.4873C12.8405 15.3257 12.7714 15.1707 12.6483 15.0564C12.5252 14.9421 12.3583 14.8779 12.1843 14.8779H7.37609C7.20204 14.8779 7.03512 14.9421 6.91205 15.0564C6.78898 15.1707 6.71984 15.3257 6.71984 15.4873V32.5536C6.71984 32.7152 6.78898 32.8702 6.91205 32.9845C7.03512 33.0987 7.20204 33.1629 7.37609 33.1629Z" fill="white"/>
</svg>
