<svg width="124" height="183" viewBox="0 0 124 183" fill="none" xmlns="http://www.w3.org/2000/svg">
<path d="M123.981 4.41081V130.784C123.905 131.838 123.489 132.864 122.768 133.777C122.046 134.691 121.04 135.466 119.83 136.041L9.47732 182.696C9.05172 182.888 8.56079 182.989 8.06072 182.986C7.88662 183.001 7.71069 183.001 7.53659 182.986C7.41366 182.966 7.29467 182.935 7.18244 182.893L6.95578 182.81L6.71496 182.686C6.63301 182.643 6.55708 182.594 6.4883 182.541C6.163 182.314 5.9029 182.043 5.72334 181.742C5.4338 181.258 5.28427 180.736 5.28418 180.208V54.4563C5.36591 53.4036 5.78404 52.3796 6.50492 51.4666C7.2258 50.5537 8.22933 49.7773 9.43482 49.1998L119.788 2.63791C120.194 2.42687 120.665 2.29275 121.16 2.24752C121.654 2.20229 122.156 2.24737 122.621 2.37871C122.745 2.4228 122.864 2.47484 122.975 2.53423C123.34 2.76283 123.622 3.05351 123.798 3.38072C123.973 3.70793 124.036 4.06165 123.981 4.41081Z" fill="#455A64"/>
<path d="M121.672 3.27116C121.805 3.26675 121.937 3.28822 122.055 3.33336H122.126C122.126 3.33336 122.565 3.60293 122.565 4.37015V130.785C122.491 131.656 122.141 132.503 121.544 133.259C120.946 134.014 120.118 134.658 119.122 135.14L8.78361 181.795C8.58291 181.887 8.35401 181.94 8.11781 181.95H7.87699H7.80616L7.69285 181.888H7.60784L7.53702 181.836C7.36024 181.703 7.21643 181.549 7.11204 181.38C6.90558 181.03 6.79951 180.652 6.80039 180.271V54.4571C6.88718 53.5881 7.24203 52.7448 7.83826 51.9906C8.43449 51.2363 9.25656 50.5909 10.2427 50.1026L120.596 3.54072C120.935 3.37984 121.325 3.2869 121.729 3.27116H121.672ZM121.729 2.23438C121.077 2.24891 120.442 2.38834 119.887 2.63872L9.53441 49.2006C8.32892 49.7781 7.32539 50.5545 6.60451 51.4674C5.88362 52.3804 5.46552 53.4044 5.38379 54.4571V180.115C5.38387 180.643 5.53339 181.166 5.82293 181.65C6.00249 181.95 6.26259 182.222 6.58788 182.448C6.65666 182.502 6.7326 182.55 6.81455 182.593L7.05536 182.718L7.28202 182.801C7.39426 182.842 7.51324 182.874 7.63617 182.894C7.81028 182.909 7.98621 182.909 8.16031 182.894C8.62598 182.88 9.07935 182.78 9.47776 182.604L119.831 135.948C121.04 135.374 122.047 134.598 122.768 133.685C123.489 132.771 123.905 131.745 123.981 130.692V4.41162C124.027 4.06913 123.959 3.72362 123.784 3.40424C123.609 3.08486 123.332 2.80097 122.976 2.57651C122.6 2.37185 122.141 2.26592 121.672 2.27584L121.729 2.23438Z" fill="#455A64"/>
<g opacity="0.8">
<path opacity="0.8" d="M123.981 4.41471V130.788C123.905 131.842 123.489 132.867 122.768 133.781C122.046 134.695 121.04 135.47 119.83 136.045L9.47732 182.7C9.05172 182.892 8.56079 182.993 8.06072 182.99C7.88662 183.005 7.71069 183.005 7.53659 182.99C7.41366 182.97 7.29467 182.939 7.18244 182.897L6.95578 182.814L6.71496 182.69C6.63301 182.647 6.55708 182.598 6.4883 182.544C6.163 182.318 5.9029 182.047 5.72334 181.746C5.4338 181.262 5.28427 180.74 5.28418 180.212V54.4602C5.36591 53.4075 5.78404 52.3835 6.50492 51.4705C7.2258 50.5576 8.22933 49.7812 9.43482 49.2037L119.788 2.64182C120.194 2.43078 120.665 2.29666 121.16 2.25143C121.654 2.2062 122.156 2.25127 122.621 2.38262C122.745 2.42671 122.864 2.47875 122.975 2.53814C123.34 2.76674 123.622 3.05741 123.798 3.38462C123.973 3.71183 124.036 4.06556 123.981 4.41471Z" fill="#455A64"/>
</g>
<path d="M122.621 2.33956C122.156 2.20821 121.654 2.16314 121.16 2.20837C120.665 2.2536 120.194 2.38772 119.787 2.59876L9.43454 49.1607C8.22906 49.7381 7.22552 50.5145 6.50464 51.4275C5.78376 52.3404 5.36563 53.3644 5.2839 54.4172V64.3392L0 62.0686V52.2192C0.0756406 51.168 0.489804 50.1448 1.20868 49.2331C1.92755 48.3214 2.93076 47.547 4.13646 46.9731L114.504 0.411143C114.931 0.178015 115.439 0.0378126 115.97 0.00663566C116.502 -0.0245413 117.034 0.0545733 117.507 0.234891C118.3 0.597765 121.742 2.04926 122.621 2.33956Z" fill="#4CAF4F"/>
<path d="M123.98 4.41462C123.98 2.49657 122.11 1.72935 119.829 2.69356L9.47631 49.2555C8.27296 49.8312 7.27154 50.6061 6.55297 51.5174C5.8344 52.4287 5.41884 53.451 5.33984 54.5016V64.4236L123.98 14.3366V4.41462Z" fill="#4CAF4F"/>
<g opacity="0.4">
<path opacity="0.4" d="M119.829 2.63863L9.47651 49.2006C8.26192 49.7645 7.25887 50.5413 6.55832 51.4607L1.30273 49.2213C1.97366 48.32 2.94911 47.5597 4.13593 47.0129L114.489 0.451013C114.921 0.221925 115.43 0.0834774 115.962 0.050592C116.494 0.0177065 117.028 0.0916292 117.506 0.264392C118.243 0.606531 121.685 2.03729 122.563 2.33796C122.108 2.22325 121.622 2.19069 121.146 2.24303C120.67 2.29538 120.218 2.43109 119.829 2.63863Z" fill="white"/>
</g>
<path opacity="0.15" d="M0.0283203 62.1242V52.2643C0.0867793 51.188 0.526086 50.1413 1.30325 49.2266L6.57301 51.4556C5.81189 52.3662 5.3872 53.4058 5.34057 54.4727V64.3843L0.0283203 62.1242Z" fill="#103E13"/>
<path d="M99.0066 15.6714C98.2609 16.1032 97.6618 16.6555 97.2563 17.2851C96.8508 17.9146 96.6499 18.6043 96.6692 19.3001C96.6692 20.7516 97.7175 21.4981 99.0066 20.9486C99.7499 20.5152 100.347 19.9625 100.753 19.3334C101.158 18.7042 101.36 18.0153 101.344 17.3199C101.344 15.8165 100.296 15.1219 99.0066 15.6714Z" fill="#455A64"/>
<path d="M107.435 12.0945C106.692 12.5279 106.094 13.0806 105.689 13.7097C105.284 14.3389 105.081 15.0278 105.098 15.7232C105.098 17.1851 106.146 17.9212 107.435 17.3821C108.182 16.9508 108.784 16.3988 109.192 15.7693C109.6 15.1399 109.803 14.4499 109.787 13.7533C109.787 12.2915 108.738 11.5554 107.435 12.0945Z" fill="#455A64"/>
<path d="M115.864 8.56048C115.12 8.99392 114.523 9.54653 114.118 10.1757C113.713 10.8049 113.51 11.4937 113.526 12.1892C113.526 13.6511 114.575 14.3872 115.864 13.8377C116.614 13.408 117.217 12.8564 117.625 12.2265C118.033 11.5967 118.235 10.9059 118.215 10.209C118.215 8.72636 117.167 7.97988 115.864 8.56048Z" fill="#455A64"/>
<path d="M6.85641 182.67L6.33228 182.453C5.91964 182.261 5.49414 182.084 5.05735 181.924L4.36321 181.634L3.28661 181.177L2.36581 180.794L1.85583 180.586C1.58122 180.488 1.33946 180.346 1.14754 180.172C0.912576 179.989 0.721061 179.779 0.580908 179.55C0.267306 179.049 0.107723 178.504 0.113429 177.953V62.1133L5.39732 64.3838V180.12C5.42303 180.646 5.57155 181.165 5.83646 181.654C6.01602 181.955 6.27614 182.227 6.60143 182.453C6.65964 182.514 6.73747 182.564 6.82809 182.598L6.85641 182.67Z" fill="#37474F"/>
<path d="M15.71 68.5952C15.7165 68.4499 15.7699 68.3078 15.8658 68.1805L18.0757 64.8213C18.0985 64.785 18.1324 64.7531 18.1749 64.728C18.1868 64.7189 18.2011 64.7117 18.2169 64.7067C18.2327 64.7018 18.2497 64.6992 18.2669 64.6992C18.2841 64.6992 18.3012 64.7018 18.317 64.7067C18.3328 64.7117 18.3471 64.7189 18.359 64.728C18.4094 64.7711 18.4348 64.8269 18.4298 64.8835V66.0136C18.4472 66.1308 18.4472 66.249 18.4298 66.3661C18.4298 66.4491 18.3448 66.5527 18.274 66.6668L17.0982 68.4397L18.274 69.2276C18.3388 69.2797 18.3914 69.3393 18.4298 69.4039C18.4502 69.507 18.4502 69.6118 18.4298 69.7149V70.7724C18.4265 70.8511 18.4025 70.9286 18.359 71.0005C18.317 71.0631 18.2535 71.1167 18.1749 71.1561C18.1749 71.1561 18.1748 71.1561 18.0757 71.1561L15.8941 69.7357C15.8388 69.7019 15.7956 69.6588 15.7685 69.6099C15.7413 69.5611 15.7309 69.5082 15.7383 69.4557L15.71 68.5952Z" fill="#4CAF4F"/>
<path d="M23.8136 60.187C23.8485 60.0725 23.9008 59.9612 23.9694 59.8552C24.0432 59.7512 24.1563 59.6648 24.2952 59.6064L25.131 59.2539C25.131 59.2539 25.2585 59.2539 25.301 59.2539C25.3292 59.2737 25.3503 59.2982 25.3627 59.3253C25.375 59.3524 25.3782 59.3812 25.3719 59.4094C25.3788 59.4507 25.3788 59.4925 25.3719 59.5338L21.5612 71.3843C21.5261 71.4954 21.4738 71.6032 21.4054 71.7057C21.3357 71.8205 21.2162 71.9152 21.0654 71.9752L20.2721 72.3174C20.2476 72.3308 20.2178 72.3381 20.1871 72.3381C20.1565 72.3381 20.1266 72.3308 20.1021 72.3174C20.0729 72.2956 20.0502 72.2696 20.0355 72.241C20.0209 72.2125 20.0146 72.182 20.0171 72.1515C20.0125 72.1101 20.0125 72.0685 20.0171 72.0271L23.8136 60.187Z" fill="#4CAF4F"/>
<path d="M29.6791 63.5136C29.6727 63.6622 29.6193 63.8077 29.5233 63.9387L27.3134 67.2875L27.2143 67.3912C27.1868 67.4041 27.1549 67.411 27.1222 67.411C27.0895 67.411 27.0576 67.4041 27.0301 67.3912C27.003 67.3377 27.003 67.2788 27.0301 67.2253V66.0952C27.0119 65.9815 27.0119 65.8667 27.0301 65.7531C27.0732 65.6457 27.1301 65.5415 27.2001 65.442L28.3617 63.6692L27.2001 62.8916C27.1296 62.8407 27.0721 62.781 27.0301 62.7153C27.0098 62.6122 27.0098 62.5074 27.0301 62.4043V61.2742C27.0118 61.1987 27.0118 61.1215 27.0301 61.0461C27.0721 60.9835 27.1356 60.9299 27.2143 60.8906C27.2287 60.883 27.246 60.8789 27.2638 60.8789C27.2816 60.8789 27.299 60.883 27.3134 60.8906L29.5233 62.3732C29.5789 62.4091 29.6219 62.4541 29.649 62.5046C29.6761 62.555 29.6864 62.6095 29.6791 62.6635V63.5136Z" fill="#4CAF4F"/>
<path d="M35.8268 62.7473C35.8591 62.7288 35.899 62.7187 35.9401 62.7188C35.9811 62.7188 36.021 62.7288 36.0534 62.7473C36.1172 62.8058 36.1477 62.8801 36.1384 62.9546V64.1884C36.1374 64.2851 36.1084 64.3805 36.0534 64.4683C36.0007 64.5464 35.9229 64.614 35.8268 64.6653L34.7926 65.1008C34.7638 65.1205 34.7258 65.1314 34.6864 65.1314C34.6469 65.1314 34.609 65.1205 34.5801 65.1008C34.5433 65.0762 34.515 65.0454 34.4977 65.0111C34.4805 64.9769 34.4747 64.94 34.481 64.9038V63.6597C34.4799 63.5616 34.5141 63.4651 34.5801 63.3797C34.6196 63.3015 34.6946 63.2356 34.7926 63.1931L35.8268 62.7473Z" fill="#4CAF4F"/>
<path d="M39.325 61.2734C39.3551 61.2557 39.3926 61.2461 39.4312 61.2461C39.4698 61.2461 39.5073 61.2557 39.5375 61.2734C39.6013 61.3319 39.6317 61.4062 39.6224 61.4807V62.7145C39.6214 62.8112 39.5925 62.9066 39.5375 62.9944C39.498 63.0727 39.423 63.1386 39.325 63.1811L38.2767 63.6269C38.2465 63.6445 38.209 63.6542 38.1704 63.6542C38.1318 63.6542 38.0943 63.6445 38.0642 63.6269C38.0004 63.5684 37.9699 63.4941 37.9792 63.4195V62.1858C37.9802 62.0891 38.0091 61.9937 38.0642 61.9058C38.107 61.8263 38.181 61.7578 38.2767 61.7088L39.325 61.2734Z" fill="#4CAF4F"/>
<path d="M42.8092 59.8012C42.8404 59.7808 42.8807 59.7695 42.9225 59.7695C42.9643 59.7695 43.0047 59.7808 43.0359 59.8012C43.0677 59.828 43.0917 59.8594 43.1063 59.8932C43.1209 59.9271 43.1259 59.9629 43.1208 59.9982V61.2424C43.1199 61.339 43.0909 61.4344 43.0359 61.5223C42.9875 61.5997 42.9086 61.6647 42.8092 61.7089L41.7751 62.1547C41.7449 62.1724 41.7074 62.182 41.6688 62.182C41.6302 62.182 41.5927 62.1724 41.5626 62.1547C41.5254 62.128 41.4972 62.0954 41.48 62.0595C41.4628 62.0235 41.4571 61.9852 41.4634 61.9474V60.7136C41.4624 60.6155 41.4966 60.519 41.5626 60.4337C41.6054 60.3542 41.6794 60.2856 41.7751 60.2367L42.8092 59.8012Z" fill="#4CAF4F"/>
<path d="M16.645 77.6357L88.1407 47.4446C88.7356 47.1958 89.2315 47.372 89.2315 47.849C89.204 48.1172 89.091 48.3769 88.9015 48.6074C88.7121 48.8378 88.4515 49.0326 88.1407 49.176L16.6875 79.3672C16.0783 79.6264 15.5967 79.4501 15.5967 78.9628C15.6183 78.6972 15.7244 78.4389 15.9064 78.2085C16.0883 77.9781 16.3412 77.782 16.645 77.6357Z" fill="#4CAF4F"/>
<path d="M33.0644 91.5068L104.518 61.3157C105.113 61.0669 105.608 61.2431 105.608 61.7201C105.581 61.9896 105.468 62.2509 105.279 62.483C105.089 62.7151 104.829 62.9118 104.518 63.0575L33.0644 93.2486C32.4553 93.4974 31.9736 93.3212 31.9736 92.8443C31.9978 92.5741 32.1093 92.3119 32.299 92.0794C32.4886 91.8469 32.7509 91.6507 33.0644 91.5068Z" fill="#C8E6C9"/>
<path d="M33.0644 98.452L77.8289 79.5411C78.438 79.2819 78.9197 79.4582 78.9197 79.9454C78.8933 80.2138 78.7807 80.4739 78.5912 80.7045C78.4017 80.9351 78.1405 81.1297 77.8289 81.2725L33.0644 100.183C32.4553 100.432 31.9736 100.256 31.9736 99.7791C31.9978 99.5103 32.1093 99.2496 32.2991 99.0187C32.4888 98.7879 32.7512 98.5936 33.0644 98.452Z" fill="#C8E6C9"/>
<path d="M33.0644 105.391L77.8289 86.4804C78.438 86.2213 78.9197 86.4079 78.9197 86.8848C78.8933 87.1532 78.7807 87.4133 78.5912 87.6439C78.4017 87.8744 78.1405 88.0691 77.8289 88.2119L33.0644 107.123C32.4553 107.382 31.9736 107.195 31.9736 106.718C31.9978 106.45 32.1093 106.189 32.2991 105.958C32.4888 105.727 32.7512 105.533 33.0644 105.391Z" fill="#C8E6C9"/>
<path d="M92.3916 45.65L112.776 37.0032C113.386 36.7544 113.867 36.9306 113.867 37.4076C113.843 37.6778 113.731 37.9399 113.542 38.1724C113.352 38.4049 113.09 38.6012 112.776 38.745L92.3916 47.3918C91.7824 47.6406 91.3008 47.4643 91.3008 46.9874C91.325 46.7172 91.4365 46.4551 91.6261 46.2226C91.8158 45.9901 92.0781 45.7938 92.3916 45.65Z" fill="#4CAF4F"/>
<path d="M34.3095 146.571L88.1403 123.762C88.7352 123.503 89.2311 123.689 89.2311 124.166C89.2014 124.434 89.0875 124.693 88.8983 124.923C88.709 125.153 88.4496 125.348 88.1403 125.493L34.3095 148.302C33.7004 148.551 33.2188 148.375 33.2188 147.898C33.2473 147.63 33.3608 147.371 33.5501 147.14C33.7394 146.91 33.9994 146.715 34.3095 146.571Z" fill="#4CAF4F"/>
<path d="M92.3916 121.955L112.72 113.277C113.329 113.018 113.811 113.205 113.811 113.682C113.786 113.95 113.675 114.211 113.485 114.442C113.295 114.673 113.033 114.867 112.72 115.009L92.3916 123.645C91.7824 123.904 91.3008 123.718 91.3008 123.241C91.3357 122.98 91.4522 122.728 91.6414 122.505C91.8305 122.282 92.0872 122.094 92.3916 121.955Z" fill="#4CAF4F"/>
<path d="M43.4482 121.772L112.72 92.5345C113.329 92.2856 113.811 92.4619 113.811 92.9388C113.786 93.209 113.675 93.4711 113.485 93.7037C113.296 93.9362 113.033 94.1324 112.72 94.2762L43.4482 123.514C42.8532 123.762 42.3574 123.586 42.3574 123.099C42.3871 122.831 42.501 122.572 42.6902 122.342C42.8794 122.111 43.1389 121.916 43.4482 121.772Z" fill="#4CAF4F"/>
<path d="M26.0664 136.295L112.72 99.468C113.329 99.2192 113.81 99.3955 113.81 99.8724C113.786 100.143 113.675 100.405 113.485 100.637C113.295 100.87 113.033 101.066 112.72 101.21L26.0664 138.026C25.4714 138.285 24.9756 138.099 24.9756 137.622C25.0031 137.353 25.1161 137.094 25.3055 136.863C25.4949 136.633 25.7555 136.438 26.0664 136.295Z" fill="#4CAF4F"/>
<path d="M30.1459 141.384L88.1414 116.812C88.7364 116.563 89.2322 116.739 89.2322 117.216C89.2047 117.486 89.0918 117.747 88.9025 117.979C88.7131 118.211 88.4526 118.408 88.1414 118.554L30.1884 143.125C29.5793 143.374 29.0977 143.198 29.0977 142.721C29.1172 142.454 29.2222 142.193 29.4042 141.961C29.5863 141.729 29.8403 141.531 30.1459 141.384Z" fill="#E8F5E9"/>
<path d="M26.0664 129.103L37.5266 124.262C38.1216 124.003 38.6174 124.189 38.6174 124.666C38.5899 124.934 38.4769 125.194 38.2875 125.424C38.0981 125.655 37.8375 125.85 37.5266 125.993L26.0664 130.835C25.4714 131.094 24.9756 130.907 24.9756 130.431C24.9997 130.162 25.1113 129.901 25.301 129.67C25.4908 129.439 25.7532 129.245 26.0664 129.103Z" fill="#4CAF4F"/>
<path d="M16.6455 84.5903L66.7647 63.3984C67.3739 63.1392 67.8697 63.3258 67.8697 63.8028C67.8428 64.0723 67.7286 64.3333 67.5365 64.5641C67.3443 64.7949 67.0797 64.9888 66.7647 65.1298L16.6455 86.3217C16.0363 86.5809 15.5547 86.3943 15.5547 85.9173C15.5788 85.6485 15.6904 85.3878 15.8802 85.157C16.0699 84.9261 16.3323 84.7318 16.6455 84.5903Z" fill="#4CAF4F"/>
<path opacity="0.6" d="M16.6455 84.5903L66.7647 63.3984C67.3739 63.1392 67.8697 63.3258 67.8697 63.8028C67.8428 64.0723 67.7286 64.3333 67.5365 64.5641C67.3443 64.7949 67.0797 64.9888 66.7647 65.1298L16.6455 86.3217C16.0363 86.5809 15.5547 86.3943 15.5547 85.9173C15.5788 85.6485 15.6904 85.3878 15.8802 85.157C16.0699 84.9261 16.3323 84.7318 16.6455 84.5903Z" fill="white"/>
<path d="M16.6455 91.5066L26.7741 87.2247C27.3691 86.9655 27.8649 87.1417 27.8649 87.629C27.8353 87.8968 27.7214 88.156 27.5322 88.3862C27.3429 88.6164 27.0835 88.8115 26.7741 88.9561L16.6455 93.238C16.0363 93.4972 15.5547 93.3106 15.5547 92.8337C15.5788 92.5649 15.6904 92.3042 15.8802 92.0733C16.0699 91.8425 16.3323 91.6482 16.6455 91.5066Z" fill="#4CAF4F"/>
<path opacity="0.6" d="M16.6455 91.5066L26.7741 87.2247C27.3691 86.9655 27.8649 87.1417 27.8649 87.629C27.8353 87.8968 27.7214 88.156 27.5322 88.3862C27.3429 88.6164 27.0835 88.8115 26.7741 88.9561L16.6455 93.238C16.0363 93.4972 15.5547 93.3106 15.5547 92.8337C15.5788 92.5649 15.6904 92.3042 15.8802 92.0733C16.0699 91.8425 16.3323 91.6482 16.6455 91.5066Z" fill="white"/>
<path d="M16.6455 98.4538L26.7741 94.1719C27.3691 93.9127 27.8649 94.0993 27.8649 94.5762C27.8353 94.844 27.7214 95.1031 27.5322 95.3333C27.3429 95.5636 27.0835 95.7586 26.7741 95.9033L16.6455 100.185C16.0363 100.444 15.5547 100.258 15.5547 99.7808C15.5788 99.512 15.6904 99.2513 15.8802 99.0205C16.0699 98.7896 16.3323 98.5953 16.6455 98.4538Z" fill="#4CAF4F"/>
<path opacity="0.6" d="M16.6455 98.4538L26.7741 94.1719C27.3691 93.9127 27.8649 94.0993 27.8649 94.5762C27.8353 94.844 27.7214 95.1031 27.5322 95.3333C27.3429 95.5636 27.0835 95.7586 26.7741 95.9033L16.6455 100.185C16.0363 100.444 15.5547 100.258 15.5547 99.7808C15.5788 99.512 15.6904 99.2513 15.8802 99.0205C16.0699 98.7896 16.3323 98.5953 16.6455 98.4538Z" fill="white"/>
<path d="M16.6455 105.391L26.7741 101.109C27.3691 100.85 27.8649 101.037 27.8649 101.514C27.8353 101.781 27.7214 102.041 27.5322 102.271C27.3429 102.501 27.0835 102.696 26.7741 102.841L16.6455 107.123C16.0363 107.382 15.5547 107.195 15.5547 106.718C15.5811 106.45 15.6936 106.19 15.8831 105.959C16.0727 105.729 16.3339 105.534 16.6455 105.391Z" fill="#4CAF4F"/>
<path opacity="0.6" d="M16.6455 105.391L26.7741 101.109C27.3691 100.85 27.8649 101.037 27.8649 101.514C27.8353 101.781 27.7214 102.041 27.5322 102.271C27.3429 102.501 27.0835 102.696 26.7741 102.841L16.6455 107.123C16.0363 107.382 15.5547 107.195 15.5547 106.718C15.5811 106.45 15.6936 106.19 15.8831 105.959C16.0727 105.729 16.3339 105.534 16.6455 105.391Z" fill="white"/>
<path d="M16.6455 112.325L26.7741 108.043C27.3691 107.784 27.8649 107.97 27.8649 108.447C27.8353 108.715 27.7214 108.974 27.5322 109.204C27.3429 109.435 27.0835 109.63 26.7741 109.774L16.6455 114.056C16.0363 114.315 15.5547 114.129 15.5547 113.652C15.5811 113.384 15.6936 113.123 15.8831 112.893C16.0727 112.662 16.3339 112.468 16.6455 112.325Z" fill="#4CAF4F"/>
<path opacity="0.6" d="M16.6455 112.325L26.7741 108.043C27.3691 107.784 27.8649 107.97 27.8649 108.447C27.8353 108.715 27.7214 108.974 27.5322 109.204C27.3429 109.435 27.0835 109.63 26.7741 109.774L16.6455 114.056C16.0363 114.315 15.5547 114.129 15.5547 113.652C15.5811 113.384 15.6936 113.123 15.8831 112.893C16.0727 112.662 16.3339 112.468 16.6455 112.325Z" fill="white"/>
<path d="M33.0644 154.188L77.8289 135.277C78.438 135.018 78.9197 135.205 78.9197 135.682C78.8933 135.95 78.7807 136.21 78.5912 136.441C78.4017 136.671 78.1405 136.866 77.8289 137.009L33.0644 155.92C32.4553 156.179 31.9736 155.992 31.9736 155.515C31.9978 155.246 32.1093 154.986 32.2991 154.755C32.4888 154.524 32.7512 154.33 33.0644 154.188Z" fill="#C8E6C9"/>
<path d="M33.0644 161.13L77.8289 142.219C78.438 141.96 78.9197 142.146 78.9197 142.623C78.8955 142.892 78.7839 143.153 78.5942 143.383C78.4044 143.614 78.142 143.809 77.8289 143.95L33.0644 162.861C32.4553 163.12 31.9736 162.934 31.9736 162.457C32 162.188 32.1126 161.928 32.3021 161.698C32.4916 161.467 32.7528 161.272 33.0644 161.13Z" fill="#C8E6C9"/>
<path d="M84.3457 132.522L112.479 120.671C113.088 120.422 113.57 120.599 113.57 121.076C113.546 121.346 113.434 121.608 113.245 121.84C113.055 122.073 112.793 122.269 112.479 122.413L84.3457 134.253C83.7507 134.512 83.2549 134.326 83.2549 133.849C83.2824 133.58 83.3954 133.321 83.5848 133.09C83.7742 132.86 84.0348 132.665 84.3457 132.522Z" fill="#C8E6C9"/>
<path d="M84.3457 139.459L112.479 127.608C113.088 127.36 113.57 127.536 113.57 128.023C113.544 128.291 113.431 128.552 113.242 128.782C113.052 129.013 112.791 129.207 112.479 129.35L84.3457 141.19C83.7507 141.449 83.2549 141.263 83.2549 140.786C83.2845 140.518 83.3984 140.259 83.5877 140.029C83.7769 139.798 84.0363 139.603 84.3457 139.459Z" fill="#C8E6C9"/>
<path d="M16.6455 161.126L26.7741 156.844C27.3691 156.585 27.8649 156.771 27.8649 157.248C27.8374 157.516 27.7244 157.776 27.535 158.006C27.3456 158.237 27.085 158.432 26.7741 158.575L16.6455 162.857C16.0363 163.116 15.5547 162.94 15.5547 162.453C15.5811 162.184 15.6936 161.924 15.8831 161.694C16.0727 161.463 16.3339 161.268 16.6455 161.126Z" fill="#4CAF4F"/>
<path opacity="0.6" d="M16.6455 161.126L26.7741 156.844C27.3691 156.585 27.8649 156.771 27.8649 157.248C27.8374 157.516 27.7244 157.776 27.535 158.006C27.3456 158.237 27.085 158.432 26.7741 158.575L16.6455 162.857C16.0363 163.116 15.5547 162.94 15.5547 162.453C15.5811 162.184 15.6936 161.924 15.8831 161.694C16.0727 161.463 16.3339 161.268 16.6455 161.126Z" fill="white"/>
<path d="M16.6455 168.062L26.7741 163.781C27.3691 163.532 27.8649 163.708 27.8649 164.185C27.8374 164.453 27.7244 164.713 27.535 164.943C27.3456 165.174 27.085 165.369 26.7741 165.512L16.6455 169.804C16.0363 170.053 15.5547 169.877 15.5547 169.4C15.5789 169.13 15.6904 168.868 15.88 168.635C16.0697 168.403 16.332 168.206 16.6455 168.062Z" fill="#4CAF4F"/>
<path opacity="0.6" d="M16.6455 168.062L26.7741 163.781C27.3691 163.532 27.8649 163.708 27.8649 164.185C27.8374 164.453 27.7244 164.713 27.535 164.943C27.3456 165.174 27.085 165.369 26.7741 165.512L16.6455 169.804C16.0363 170.053 15.5547 169.877 15.5547 169.4C15.5789 169.13 15.6904 168.868 15.88 168.635C16.0697 168.403 16.332 168.206 16.6455 168.062Z" fill="white"/>
<path d="M71.0141 61.6045L83.9902 56.1406C84.5851 55.8814 85.0809 56.068 85.0809 56.5449C85.0534 56.8131 84.9405 57.0729 84.751 57.3034C84.5616 57.5338 84.301 57.7286 83.9902 57.872L71.0141 63.3359C70.405 63.5951 69.9092 63.4188 69.9092 62.9315C69.9382 62.6624 70.0534 62.4021 70.2453 62.1715C70.4373 61.941 70.7006 61.7467 71.0141 61.6045Z" fill="#4CAF4F"/>
<path opacity="0.6" d="M71.0141 61.6045L83.9902 56.1406C84.5851 55.8814 85.0809 56.068 85.0809 56.5449C85.0534 56.8131 84.9405 57.0729 84.751 57.3034C84.5616 57.5338 84.301 57.7286 83.9902 57.872L71.0141 63.3359C70.405 63.5951 69.9092 63.4188 69.9092 62.9315C69.9382 62.6624 70.0534 62.4021 70.2453 62.1715C70.4373 61.941 70.7006 61.7467 71.0141 61.6045Z" fill="white"/>
<path d="M32.2841 112.594L95.5069 85.9179C96.1018 85.6588 96.5977 85.8454 96.5977 86.3223C96.5702 86.5905 96.4572 86.8502 96.2677 87.0807C96.0783 87.3112 95.8177 87.5059 95.5069 87.6494L32.2841 114.315C31.6892 114.575 31.1934 114.388 31.1934 113.911C31.223 113.645 31.337 113.387 31.5263 113.158C31.7157 112.93 31.9751 112.737 32.2841 112.594Z" fill="#E8F5E9"/>
<path d="M16.6455 126.31L112.719 85.6054C113.328 85.3463 113.81 85.5329 113.81 86.0098C113.786 86.2786 113.674 86.5393 113.484 86.7702C113.295 87.001 113.032 87.1953 112.719 87.3369L16.6455 128.041C16.0363 128.3 15.5547 128.114 15.5547 127.637C15.5788 127.368 15.6904 127.107 15.8802 126.876C16.0699 126.645 16.3323 126.451 16.6455 126.31Z" fill="#E8F5E9"/>
<path d="M99.7431 84.1279L112.719 78.664C113.328 78.4048 113.81 78.5915 113.81 79.0684C113.786 79.3372 113.674 79.5979 113.484 79.8288C113.295 80.0596 113.032 80.2539 112.719 80.3955L99.7431 85.8697C99.134 86.1185 98.6523 85.9423 98.6523 85.455C98.6787 85.1866 98.7913 84.9265 98.9808 84.6959C99.1703 84.4653 99.4315 84.2707 99.7431 84.1279Z" fill="#E8F5E9"/>
<path d="M33.0639 84.5786L83.1832 63.3867C83.7923 63.1275 84.2881 63.3141 84.2881 63.791C84.259 64.0602 84.1439 64.3205 83.9519 64.5511C83.76 64.7816 83.4966 64.9759 83.1832 65.1181L33.0639 86.3203C32.4548 86.5795 31.959 86.3929 31.959 85.916C31.9836 85.6446 32.0968 85.3816 32.2891 85.1489C32.4813 84.9161 32.747 84.7206 33.0639 84.5786Z" fill="#4CAF4F"/>
<path opacity="0.6" d="M33.0639 84.5786L83.1832 63.3867C83.7923 63.1275 84.2881 63.3141 84.2881 63.791C84.259 64.0602 84.1439 64.3205 83.9519 64.5511C83.76 64.7816 83.4966 64.9759 83.1832 65.1181L33.0639 86.3203C32.4548 86.5795 31.959 86.3929 31.959 85.916C31.9836 85.6446 32.0968 85.3816 32.2891 85.1489C32.4813 84.9161 32.747 84.7206 33.0639 84.5786Z" fill="white"/>
<path d="M87.4331 61.5948L100.409 56.1309C101.004 55.8717 101.5 56.048 101.5 56.5353C101.47 56.8031 101.356 57.0622 101.167 57.2924C100.978 57.5227 100.718 57.7177 100.409 57.8624L87.4331 63.3262C86.8239 63.5854 86.3281 63.3988 86.3281 62.9219C86.3572 62.6528 86.4723 62.3924 86.6643 62.1619C86.8562 61.9313 87.1196 61.7371 87.4331 61.5948Z" fill="#4CAF4F"/>
<path opacity="0.6" d="M87.4331 61.5948L100.409 56.1309C101.004 55.8717 101.5 56.048 101.5 56.5353C101.47 56.8031 101.356 57.0622 101.167 57.2924C100.978 57.5227 100.718 57.7177 100.409 57.8624L87.4331 63.3262C86.8239 63.5854 86.3281 63.3988 86.3281 62.9219C86.3572 62.6528 86.4723 62.3924 86.6643 62.1619C86.8562 61.9313 87.1196 61.7371 87.4331 61.5948Z" fill="white"/>
</svg>
