<svg width="442" height="329" viewBox="0 0 442 329" fill="none" xmlns="http://www.w3.org/2000/svg">
<path d="M220.766 328.997C315.327 328.997 391.984 324.521 391.984 319C391.984 313.479 315.327 309.004 220.766 309.004C126.206 309.004 49.5488 313.479 49.5488 319C49.5488 324.521 126.206 328.997 220.766 328.997Z" fill="#F5F5F5"/>
<path d="M224.155 135.213C224.984 137.05 225.856 139.072 226.615 141.033C227.374 142.993 228.151 145.015 228.822 147.029C230.194 150.996 231.239 155.072 231.946 159.215L232.137 160.513C232.156 160.736 232.135 160.96 232.076 161.175C231.87 161.907 231.546 162.599 231.117 163.224C229.996 164.841 228.697 166.322 227.243 167.639C225.711 169.082 224.104 170.441 222.428 171.71C220.753 173.017 218.991 174.289 217.255 175.49L218.886 178.589C223.031 176.761 226.966 174.478 230.62 171.781C232.569 170.342 234.328 168.656 235.854 166.765C236.758 165.639 237.464 164.364 237.939 162.994C238.215 162.139 238.356 161.245 238.357 160.345C238.357 160.133 238.357 159.824 238.357 159.674V159.241L238.27 158.358C237.77 153.758 236.814 149.219 235.418 144.812C234.737 142.64 234.013 140.476 233.184 138.366C232.356 136.255 231.501 134.189 230.445 132.043L224.155 135.213Z" fill="#E58A7B"/>
<path d="M218.485 174.943L212.317 171.781L213.914 178.634C213.914 178.634 218.145 179.835 220.107 177.751L218.485 174.943Z" fill="#E58A7B"/>
<path d="M206.673 172.903L208.313 178.572L213.914 178.634L212.318 171.781L206.673 172.903Z" fill="#E58A7B"/>
<path d="M197.967 102.152C197.637 103.376 197.178 104.56 196.597 105.685C196.767 105.879 196.985 106.024 197.23 106.103C197.474 106.183 197.735 106.193 197.984 106.135L197.967 102.152Z" fill="#DF5753"/>
<path d="M198.15 102.207C197.789 102.207 197.496 101.752 197.496 101.191C197.496 100.63 197.789 100.176 198.15 100.176C198.512 100.176 198.805 100.63 198.805 101.191C198.805 101.752 198.512 102.207 198.15 102.207Z" fill="#263238"/>
<path d="M198.342 100.212L197.016 99.832C197.016 99.832 197.661 100.874 198.342 100.212Z" fill="#263238"/>
<path d="M215.004 108.633C214.21 112.739 213.416 120.272 216.26 123.018C216.26 123.018 215.143 127.186 207.597 127.186C199.301 127.186 203.637 123.018 203.637 123.018C208.164 121.923 208.051 118.523 207.257 115.326L215.004 108.633Z" fill="#E58A7B"/>
<path d="M217.211 99.2733C216.793 106.135 216.758 109.049 213.338 112.572C208.182 117.871 199.947 115.857 198.333 109.04C196.877 102.859 197.801 92.6856 204.44 89.957C205.897 89.3493 207.484 89.128 209.049 89.3139C210.614 89.4999 212.107 90.087 213.385 91.0197C214.664 91.9524 215.686 93.1999 216.356 94.6442C217.025 96.0884 217.32 97.6817 217.211 99.2733Z" fill="#E58A7B"/>
<path d="M216.54 91.5571C219.942 92.8111 224.479 91.875 222.699 102.498C220.815 113.749 223.711 117.449 223.711 117.449C223.711 117.449 210.809 120.23 197.636 117.281C197.636 117.281 201.657 110.163 200.532 104.918C199.093 98.2949 200.227 95.8488 200.227 95.8488C200.227 95.8488 211.76 89.791 216.54 91.5571Z" fill="#263238"/>
<path d="M202.146 102.85C202.142 104.154 201.773 105.431 201.081 106.532C200.157 107.963 199.066 107.415 198.796 105.896C198.551 104.563 198.735 102.205 199.912 101.287C201.09 100.368 202.128 101.269 202.146 102.85Z" fill="#E58A7B"/>
<path d="M219.497 92.7126C220.474 89.9309 215.815 85.6481 205.958 87.4142C196.1 89.1803 195.672 97.49 195.672 97.49L197.661 95.088L197.574 97.6136L207.702 99.5828L219.497 92.7126Z" fill="#263238"/>
<path d="M218.66 123.487C218.718 123.084 218.618 122.673 218.382 122.343C218.146 122.014 217.791 121.79 217.395 121.721C214.324 121.209 207.345 120.167 203.838 120.661C201.221 121.032 200.54 122.568 200.427 123.831C200.409 124.052 200.439 124.275 200.513 124.483C200.587 124.692 200.704 124.882 200.857 125.041C201.01 125.2 201.195 125.324 201.399 125.405C201.603 125.486 201.822 125.521 202.041 125.509L217.203 124.82C217.56 124.802 217.9 124.659 218.166 124.416C218.431 124.173 218.606 123.845 218.66 123.487Z" fill="#4CAF4F"/>
<path opacity="0.6" d="M218.66 123.487C218.718 123.084 218.618 122.673 218.382 122.343C218.146 122.014 217.791 121.79 217.395 121.721C214.324 121.209 207.345 120.167 203.838 120.661C201.221 121.032 200.54 122.568 200.427 123.831C200.409 124.052 200.439 124.275 200.513 124.483C200.587 124.692 200.704 124.882 200.857 125.041C201.01 125.2 201.195 125.324 201.399 125.405C201.603 125.486 201.822 125.521 202.041 125.509L217.203 124.82C217.56 124.802 217.9 124.659 218.166 124.416C218.431 124.173 218.606 123.845 218.66 123.487Z" fill="black"/>
<path d="M209.892 277.758L204.265 281.714L194.852 268.795L200.479 264.848L209.892 277.758Z" fill="#E58A7B"/>
<path d="M223.013 277.505L217.072 280.931L208.741 267.27L214.682 263.844L223.013 277.505Z" fill="#E58A7B"/>
<path d="M194.861 268.795L199.711 275.453L205.338 271.506L200.488 264.848L194.861 268.795Z" fill="#CF6F64"/>
<path d="M214.69 263.844L208.741 267.279L213.033 274.317L218.982 270.882L214.69 263.844Z" fill="#CF6F64"/>
<path d="M205.147 166.617C205.147 166.617 183.18 194.637 187.307 221.438C190.63 243.082 209.91 272.391 209.91 272.391L218.974 267.834C212.585 254.875 207.133 241.465 202.66 227.708C201.281 223.437 200.879 218.904 201.483 214.452C202.088 210.001 203.683 205.746 206.15 202.01C217.281 185.559 235.112 195.352 223.117 166.617L205.147 166.617Z" fill="#4CAF4F"/>
<path opacity="0.6" d="M205.147 166.617C205.147 166.617 183.18 194.637 187.307 221.438C190.63 243.082 209.91 272.391 209.91 272.391L218.974 267.834C212.585 254.875 207.133 241.465 202.66 227.708C201.281 223.437 200.879 218.904 201.483 214.452C202.088 210.001 203.683 205.746 206.15 202.01C217.281 185.559 235.112 195.352 223.117 166.617L205.147 166.617Z" fill="black"/>
<path opacity="0.4" d="M194.373 184.613L197.565 181.398C197.565 181.655 191.38 220.306 189.644 231.168C188.62 227.995 187.835 224.748 187.298 221.454C185.256 208.305 189.522 194.874 194.373 184.613Z" fill="black"/>
<path d="M195.341 166.617C195.341 166.617 168.891 201.834 168.141 222.948C167.521 240.609 196.929 274.828 196.929 274.828L205.478 269.229C205.478 269.229 188.266 244.927 183.93 225.076C185.605 205.401 221.023 166.617 221.023 166.617L195.341 166.617Z" fill="#4CAF4F"/>
<path opacity="0.6" d="M195.341 166.617C195.341 166.617 168.891 201.834 168.141 222.948C167.521 240.609 196.929 274.828 196.929 274.828L205.478 269.229C205.478 269.229 188.266 244.927 183.93 225.076C185.605 205.401 221.023 166.617 221.023 166.617L195.341 166.617Z" fill="black"/>
<path d="M228.064 124.59C230.89 125.27 233.604 135.673 233.604 135.673L222.551 143.143C222.551 143.143 218.869 134.913 220.16 131.31C221.495 127.557 224.513 123.734 228.064 124.59Z" fill="#4CAF4F"/>
<path opacity="0.2" d="M225.9 131.293L226.668 140.362L222.559 143.153C221.425 140.567 220.585 137.859 220.055 135.081L225.9 131.293Z" fill="black"/>
<path d="M192.07 124.793C192.07 124.793 188.807 125.95 195.341 166.606L223.135 166.606C222.664 155.126 222.655 148.062 228.063 124.59C224.172 123.778 220.227 123.253 216.26 123.018C212.058 122.713 207.84 122.713 203.637 123.018C198.211 123.521 192.07 124.793 192.07 124.793Z" fill="#4CAF4F"/>
<path d="M189.244 131.294C188.616 133.06 187.953 134.958 187.255 136.786C186.557 138.614 185.894 140.495 185.187 142.35L183.05 147.895L182.509 149.282L182.23 149.971L182.099 150.315C182.099 150.377 182.099 150.377 182.099 150.368C182.259 150.14 182.468 149.953 182.71 149.82C183.055 149.615 183.444 149.497 183.844 149.476C184.176 149.466 184.507 149.529 184.812 149.661C185.214 149.847 185.214 149.926 185.205 149.918C185.132 149.859 185.068 149.79 185.013 149.714C184.53 149.073 184.112 148.383 183.765 147.657C183.355 146.844 182.963 145.979 182.57 145.105C181.803 143.339 181.096 141.511 180.389 139.665C179.683 137.82 179.011 135.956 178.357 134.075L176.368 128.441L173.009 129.324C173.672 133.351 174.527 137.272 175.556 141.264C176.054 143.25 176.638 145.22 177.301 147.207C177.633 148.204 177.999 149.193 178.418 150.209C178.854 151.311 179.392 152.37 180.023 153.37C180.255 153.707 180.512 154.026 180.791 154.324C181.236 154.811 181.777 155.199 182.378 155.463C182.912 155.695 183.49 155.804 184.071 155.781C184.721 155.757 185.354 155.565 185.911 155.225C186.569 154.81 187.114 154.236 187.499 153.556C187.63 153.326 187.743 153.097 187.822 152.929L187.988 152.593L188.319 151.904L188.982 150.536C189.855 148.699 190.727 146.844 191.486 144.981C192.245 143.118 193.047 141.228 193.798 139.33C194.548 137.431 195.22 135.532 195.856 133.484L189.244 131.294Z" fill="#E58A7B"/>
<path d="M192.07 124.796C188.729 125.599 184.969 135.596 184.969 135.596L194.905 144.153C194.905 144.153 201.334 133.256 200.034 129.662C198.682 125.917 196.432 123.745 192.07 124.796Z" fill="#4CAF4F"/>
<path d="M174.788 125.281L171.298 122.332L168.873 126.156L170.661 129.344C170.661 129.344 173.505 131.993 176.018 130.642C176.417 129.734 176.512 128.72 176.29 127.753C176.068 126.786 175.541 125.918 174.788 125.281Z" fill="#E58A7B"/>
<path d="M165.001 122.341L165.262 123.303L170.784 124.239L171.325 122.332L165.001 122.341Z" fill="#E58A7B"/>
<path d="M196.249 275.278L206.211 268.761L204.423 265.617L193.23 272.585L196.249 275.278Z" fill="#4CAF4F"/>
<path d="M213.172 280.472C214.046 280.364 214.886 280.062 215.632 279.589C215.663 279.578 215.689 279.558 215.708 279.531C215.727 279.504 215.737 279.472 215.737 279.439C215.737 279.406 215.727 279.373 215.708 279.347C215.689 279.32 215.663 279.299 215.632 279.289C215.361 279.2 213.015 278.467 212.334 279.032C212.258 279.097 212.2 279.181 212.166 279.275C212.132 279.37 212.124 279.472 212.142 279.571C212.155 279.73 212.207 279.883 212.294 280.016C212.381 280.149 212.5 280.257 212.64 280.331C212.803 280.421 212.986 280.469 213.172 280.472ZM215.135 279.5C214.044 280.066 213.172 280.269 212.753 280.057C212.662 280.006 212.585 279.932 212.53 279.842C212.475 279.752 212.444 279.65 212.439 279.545C212.439 279.403 212.439 279.342 212.518 279.306C212.884 279.006 214.192 279.236 215.152 279.5H215.135Z" fill="#263238"/>
<path d="M215.571 279.65C215.617 279.649 215.661 279.63 215.693 279.597C215.706 279.572 215.713 279.545 215.713 279.517C215.713 279.489 215.706 279.462 215.693 279.438C215.693 279.358 215.126 277.442 214.236 277.009C214.123 276.957 213.999 276.93 213.874 276.93C213.749 276.93 213.626 276.957 213.512 277.009C213.39 277.048 213.284 277.128 213.211 277.235C213.138 277.342 213.103 277.471 213.111 277.601C213.172 278.396 214.768 279.491 215.501 279.676L215.571 279.65ZM213.879 277.239C213.963 277.242 214.047 277.263 214.123 277.301C214.664 277.566 215.109 278.599 215.327 279.226C214.559 278.899 213.503 278.034 213.469 277.548C213.469 277.469 213.469 277.371 213.669 277.283C213.734 277.248 213.805 277.224 213.879 277.212V277.239Z" fill="#263238"/>
<path d="M200.723 284.286C201.709 284.286 203.079 283.005 203.829 282.219C203.848 282.192 203.858 282.16 203.858 282.127C203.858 282.093 203.848 282.061 203.829 282.034C203.812 282.005 203.787 281.982 203.758 281.967C203.729 281.951 203.696 281.944 203.663 281.946C203.314 281.946 200.287 282.405 199.86 283.27C199.814 283.348 199.79 283.436 199.79 283.526C199.79 283.616 199.814 283.705 199.86 283.782C199.924 283.917 200.021 284.033 200.141 284.12C200.262 284.206 200.402 284.26 200.549 284.277L200.723 284.286ZM203.253 282.343C202.154 283.42 201.186 284.021 200.636 283.95C200.54 283.937 200.448 283.901 200.369 283.844C200.29 283.787 200.226 283.711 200.182 283.623C200.163 283.593 200.153 283.558 200.153 283.522C200.153 283.486 200.163 283.45 200.182 283.42C200.409 282.943 202.023 282.537 203.253 282.343Z" fill="#263238"/>
<path d="M203.157 282.298C203.353 282.303 203.549 282.289 203.742 282.254C203.769 282.25 203.794 282.238 203.816 282.221C203.837 282.204 203.854 282.182 203.864 282.157C203.877 282.131 203.884 282.102 203.884 282.073C203.884 282.044 203.877 282.015 203.864 281.989C203.812 281.927 202.634 280.488 201.517 280.39C201.201 280.366 200.888 280.467 200.645 280.673C200.305 280.973 200.322 281.238 200.409 281.406C200.627 282.006 202.137 282.298 203.157 282.298ZM203.384 281.971C202.407 282.024 200.846 281.697 200.645 281.265C200.645 281.265 200.575 281.123 200.802 280.929C200.892 280.85 200.998 280.79 201.112 280.753C201.226 280.717 201.346 280.705 201.465 280.717C202.217 280.93 202.887 281.37 203.384 281.98V281.971Z" fill="#263238"/>
<path d="M215.336 278.694L222.733 276.574C222.861 276.535 222.998 276.545 223.119 276.602C223.24 276.659 223.335 276.759 223.388 276.883L225.882 282.561C225.941 282.707 225.969 282.863 225.963 283.02C225.958 283.177 225.92 283.331 225.851 283.472C225.783 283.613 225.686 283.738 225.566 283.838C225.447 283.938 225.308 284.012 225.158 284.054C222.541 284.743 221.285 284.937 218.031 285.882C216.025 286.447 213.163 287.498 210.398 288.293C207.633 289.087 206.708 286.359 207.781 285.776C212.631 283.18 213.015 281.361 214.341 279.418C214.579 279.066 214.931 278.81 215.336 278.694Z" fill="#4CAF4F"/>
<path d="M203.629 281.184L209.945 276.769C210.052 276.69 210.184 276.654 210.316 276.667C210.448 276.68 210.57 276.741 210.66 276.84L214.848 281.396C214.95 281.514 215.026 281.652 215.071 281.802C215.116 281.952 215.129 282.11 215.109 282.265C215.089 282.421 215.037 282.57 214.956 282.703C214.875 282.837 214.766 282.951 214.638 283.039C212.414 284.549 211.262 285.158 208.479 287.11C206.735 288.311 203.358 290.978 201.003 292.638C198.648 294.298 196.894 292.02 197.732 291.119C201.483 287.066 202.303 284.522 202.922 282.218C203.03 281.799 203.28 281.433 203.629 281.184Z" fill="#4CAF4F"/>
<path d="M208.749 272.974L220.134 267.243L218.956 264.117L206.795 270.157L208.749 272.974Z" fill="#4CAF4F"/>
<path d="M223.553 164.957L224.513 167.501C224.609 167.695 224.382 167.898 224.059 167.898L195.201 167.898C194.948 167.898 194.739 167.774 194.722 167.615L194.477 165.09C194.477 164.922 194.678 164.772 194.948 164.772L223.1 164.772C223.184 164.764 223.27 164.776 223.349 164.809C223.428 164.841 223.498 164.892 223.553 164.957Z" fill="#4CAF4F"/>
<path opacity="0.4" d="M223.553 164.957L224.513 167.501C224.609 167.695 224.382 167.898 224.059 167.898L195.201 167.898C194.948 167.898 194.739 167.774 194.722 167.615L194.477 165.09C194.477 164.922 194.678 164.772 194.948 164.772L223.1 164.772C223.184 164.764 223.27 164.776 223.349 164.809C223.428 164.841 223.498 164.892 223.553 164.957Z" fill="white"/>
<path d="M219.008 168.144H219.767C219.915 168.144 220.029 168.065 220.02 167.967L219.662 164.691C219.662 164.603 219.523 164.523 219.374 164.523H218.616C218.467 164.523 218.354 164.603 218.363 164.691L218.72 167.967C218.729 168.065 218.86 168.144 219.008 168.144Z" fill="#4CAF4F"/>
<path d="M201.212 168.144H201.962C202.111 168.144 202.224 168.065 202.215 167.967L201.866 164.691C201.866 164.603 201.718 164.523 201.57 164.523H200.82C200.671 164.523 200.549 164.603 200.567 164.691L200.916 167.967C200.959 168.065 201.055 168.144 201.212 168.144Z" fill="#4CAF4F"/>
<g style="mix-blend-mode:multiply">
<path d="M219.671 317.692C206.764 317.692 196.301 316.925 196.301 315.979C196.301 315.033 206.764 314.266 219.671 314.266C232.579 314.266 243.042 315.033 243.042 315.979C243.042 316.925 232.579 317.692 219.671 317.692Z" fill="#F5F5F5"/>
</g>
<path d="M205.434 313.558C209.569 312.339 214.158 310.776 216.932 309.143C217.011 309.09 217.098 309.063 217.176 309.019L217.176 290.068H208.81C208.175 290.03 207.579 289.748 207.142 289.279C206.706 288.811 206.463 288.191 206.463 287.547C206.463 286.903 206.706 286.284 207.142 285.815C207.579 285.346 208.175 285.064 208.81 285.026H217.133L217.133 198.645L222.158 198.645L222.158 285.026H230.471C230.811 285.006 231.151 285.056 231.47 285.173C231.79 285.291 232.083 285.473 232.33 285.709C232.578 285.945 232.775 286.23 232.909 286.546C233.044 286.862 233.114 287.203 233.114 287.547C233.114 287.891 233.044 288.232 232.909 288.548C232.775 288.864 232.578 289.149 232.33 289.385C232.083 289.621 231.79 289.804 231.47 289.921C231.151 290.039 230.811 290.089 230.471 290.068H222.158L222.158 308.992C222.236 308.992 222.315 309.063 222.393 309.116C225.211 310.776 229.765 312.339 233.9 313.531C234.179 313.617 234.419 313.801 234.576 314.05C234.733 314.299 234.797 314.597 234.755 314.889C234.714 315.181 234.571 315.449 234.352 315.644C234.132 315.839 233.851 315.948 233.56 315.951H205.775C205.496 315.932 205.232 315.816 205.027 315.624C204.822 315.431 204.689 315.174 204.649 314.894C204.609 314.614 204.665 314.328 204.808 314.085C204.951 313.842 205.172 313.656 205.434 313.558Z" fill="#E0E0E0"/>
<path d="M204.152 189.852L235.174 189.852C237.669 189.852 239.692 191.9 239.692 194.426L239.692 203.76C239.692 206.286 237.669 208.334 235.174 208.334L204.152 208.334C201.656 208.334 199.633 206.286 199.633 203.76V194.426C199.633 191.9 201.656 189.852 204.152 189.852Z" fill="#4CAF4F"/>
<path d="M235.461 208.34V209.947C235.461 211.272 234.039 212.349 232.294 212.349L206.996 212.349C205.251 212.349 203.829 211.272 203.829 209.947V208.34L235.461 208.34Z" fill="#4CAF4F"/>
<path opacity="0.3" d="M235.461 208.34V209.947C235.461 211.272 234.039 212.349 232.294 212.349L206.996 212.349C205.251 212.349 203.829 211.272 203.829 209.947V208.34L235.461 208.34Z" fill="white"/>
</svg>
