<svg width="70" height="70" viewBox="0 0 70 70" fill="none" xmlns="http://www.w3.org/2000/svg">
<path d="M32.084 11.668H11.6673C10.1202 11.668 8.63649 12.2826 7.54253 13.3765C6.44857 14.4705 5.83398 15.9542 5.83398 17.5013V58.3346C5.83398 59.8817 6.44857 61.3655 7.54253 62.4594C8.63649 63.5534 10.1202 64.168 11.6673 64.168H52.5007C54.0477 64.168 55.5315 63.5534 56.6254 62.4594C57.7194 61.3655 58.334 59.8817 58.334 58.3346V37.918" stroke="black" stroke-width="4" stroke-linecap="round" stroke-linejoin="round"/>
<path d="M53.959 7.29265C55.1193 6.13233 56.693 5.48047 58.334 5.48047C59.9749 5.48047 61.5487 6.13233 62.709 7.29265C63.8693 8.45298 64.5212 10.0267 64.5212 11.6677C64.5212 13.3086 63.8693 14.8823 62.709 16.0427L35.0007 43.751L23.334 46.6677L26.2507 35.001L53.959 7.29265Z" stroke="black" stroke-width="4" stroke-linecap="round" stroke-linejoin="round"/>
</svg>
