<svg width="70" height="70" viewBox="0 0 70 70" fill="none" xmlns="http://www.w3.org/2000/svg">
<g clip-path="url(#clip0_271_31)">
<path d="M18.4241 56.617H3.27489C2.46114 56.617 2.18843 56.617 2.18843 55.1427V51.6354C2.18843 51.3453 2.0732 51.0671 1.86808 50.862C1.66296 50.6569 1.38476 50.5416 1.09468 50.5416C0.8046 50.5416 0.526401 50.6569 0.321283 50.862C0.116165 51.0671 0.00093063 51.3453 0.00093063 51.6354V55.1427C-0.0815088 55.6084 -0.0570874 56.0869 0.0723525 56.5419C0.201792 56.9968 0.43287 57.4165 0.748152 57.7691C1.06343 58.1217 1.45468 58.3982 1.89239 58.5775C2.33009 58.7569 2.80281 58.8345 3.27489 58.8045H18.4241C18.7141 58.8045 18.9923 58.6893 19.1975 58.4842C19.4026 58.2791 19.5178 58.0009 19.5178 57.7108C19.5178 57.4207 19.4026 57.1425 19.1975 56.9374C18.9923 56.7323 18.7141 56.617 18.4241 56.617ZM1.09468 48.1922C1.38476 48.1922 1.66296 48.077 1.86808 47.8719C2.0732 47.6668 2.18843 47.3886 2.18843 47.0985V10.9435L35.2926 11.0004V29.2368C35.2926 29.5269 35.4078 29.8051 35.613 30.0102C35.8181 30.2153 36.0963 30.3306 36.3863 30.3306C36.6764 30.3306 36.9546 30.2153 37.1597 30.0102C37.3649 29.8051 37.4801 29.5269 37.4801 29.2368V11.0004C37.4855 10.4088 37.2559 9.83937 36.8416 9.41714C36.4273 8.9949 35.8622 8.75447 35.2707 8.7487H3.11593L8.11801 4.51953H39.9097C40.3738 4.51953 40.8189 4.70391 41.1471 5.03209C41.4753 5.36028 41.6597 5.8054 41.6597 6.26953V28.4654C41.6597 28.7554 41.7749 29.0336 41.98 29.2388C42.1852 29.4439 42.4634 29.5591 42.7534 29.5591C43.0435 29.5591 43.3217 29.4439 43.5268 29.2388C43.7319 29.0336 43.8472 28.7554 43.8472 28.4654V6.26953C43.8472 5.22524 43.4323 4.22372 42.6939 3.4853C41.9555 2.74687 40.954 2.33203 39.9097 2.33203H7.71843C7.46003 2.33187 7.20994 2.42333 7.0126 2.59016L0.515722 8.09391C0.362131 8.25143 0.242074 8.43846 0.162806 8.6437C0.0612695 8.80679 0.00536641 8.99414 0.00093063 9.1862V47.1029C0.00208792 47.3922 0.117833 47.6693 0.322825 47.8734C0.527818 48.0776 0.805357 48.1922 1.09468 48.1922Z" fill="#A5CDFF" stroke="#A5CDFF" stroke-width="0.5"/>
<path d="M39.5817 28.8455C39.8718 28.8455 40.15 28.7302 40.3551 28.5251C40.5602 28.32 40.6755 28.0418 40.6755 27.7517V8.80651C40.6743 7.94498 40.332 7.11898 39.7233 6.50924C39.1147 5.8995 38.2893 5.55567 37.4278 5.55297L10.0898 5.49609C9.79976 5.49609 9.52156 5.61133 9.31645 5.81645C9.11133 6.02156 8.99609 6.29976 8.99609 6.58984C8.99609 6.87992 9.11133 7.15812 9.31645 7.36324C9.52156 7.56836 9.79976 7.68359 10.0898 7.68359L37.4292 7.74047C37.7116 7.74124 37.9821 7.85385 38.1817 8.05364C38.3812 8.25344 38.4934 8.52415 38.4938 8.80651V27.7517C38.4938 28.0408 38.6082 28.3181 38.8121 28.5231C39.0159 28.728 39.2926 28.8439 39.5817 28.8455ZM54.6463 49.6675C54.3562 49.6675 54.078 49.7828 53.8729 49.9879C53.6678 50.193 53.5525 50.4712 53.5525 50.7613V59.8555C53.5546 60.0689 53.5045 60.2797 53.4067 60.4694C52.7913 61.6434 49.8746 65.4773 38.208 65.4773C26.5413 65.4773 23.6246 61.6478 23.0019 60.4723C22.9043 60.283 22.8543 60.0728 22.8561 59.8598V51.225C22.8561 50.935 22.7409 50.6568 22.5357 50.4516C22.3306 50.2465 22.0524 50.1313 21.7623 50.1313C21.4723 50.1313 21.1941 50.2465 20.9889 50.4516C20.7838 50.6568 20.6686 50.935 20.6686 51.225V59.8555C20.6655 60.423 20.7996 60.9828 21.0594 61.4873C22.0423 63.3438 25.6663 67.6648 38.208 67.6648C50.7496 67.6648 54.3721 63.3482 55.3478 61.4932C55.6097 60.9888 55.7448 60.4282 55.7415 59.8598V50.7613C55.7415 50.6175 55.7132 50.4752 55.6581 50.3424C55.6031 50.2096 55.5224 50.089 55.4206 49.9874C55.3189 49.8858 55.1982 49.8053 55.0653 49.7504C54.9324 49.6955 54.7901 49.6674 54.6463 49.6675Z" fill="#A5CDFF" stroke="#A5CDFF" stroke-width="0.5"/>
<path d="M69.2524 40.3075L40.3162 30.6417C40.0953 30.5673 39.8561 30.5673 39.6351 30.6417L7.03993 41.0921C6.82228 41.1638 6.63259 41.3018 6.49754 41.4869C6.3625 41.6721 6.28891 41.8948 6.28714 42.124C6.28537 42.3531 6.35551 42.577 6.48767 42.7642C6.61984 42.9513 6.80738 43.0923 7.02389 43.1673L37.5031 53.469C37.6158 53.5071 37.734 53.5268 37.8531 53.5273C37.9783 53.5271 38.1026 53.5054 38.2206 53.4632L60.5928 45.4744V50.7244C59.8387 50.9521 59.1776 51.416 58.7069 52.0476C58.2361 52.6793 57.9807 53.4454 57.9781 54.2332V56.4382C57.9781 57.4159 58.3665 58.3536 59.0579 59.045C59.7492 59.7364 60.687 60.1248 61.6647 60.1248C62.6425 60.1248 63.5802 59.7364 64.2716 59.045C64.963 58.3536 65.3514 57.4159 65.3514 56.4382V54.2302C65.3494 53.4496 65.0992 52.6898 64.637 52.0607C64.1749 51.4315 63.5247 50.9656 62.7803 50.7302V44.6927L69.2714 42.3755C69.4858 42.299 69.671 42.1575 69.8012 41.9708C69.9314 41.784 70.0001 41.5613 69.9977 41.3337C69.9952 41.1061 69.9219 40.8849 69.7878 40.7009C69.6537 40.517 69.4655 40.3795 69.2495 40.3075H69.2524ZM63.1581 56.4382C63.1581 56.8358 63.0001 57.2171 62.719 57.4982C62.4378 57.7794 62.0565 57.9373 61.6589 57.9373C61.2613 57.9373 60.88 57.7794 60.5988 57.4982C60.3177 57.2171 60.1597 56.8358 60.1597 56.4382V54.2302C60.1597 54.0334 60.1985 53.8384 60.2738 53.6565C60.3492 53.4747 60.4596 53.3094 60.5988 53.1702C60.738 53.031 60.9033 52.9205 61.0852 52.8452C61.2671 52.7699 61.462 52.7311 61.6589 52.7311C61.8558 52.7311 62.0507 52.7699 62.2326 52.8452C62.4145 52.9205 62.5798 53.031 62.719 53.1702C62.8582 53.3094 62.9686 53.4747 63.0439 53.6565C63.1193 53.8384 63.1581 54.0334 63.1581 54.2302V56.4382ZM61.5306 42.8173L38.3241 40.3134C38.1795 40.2943 38.0325 40.3043 37.8919 40.3429C37.7512 40.3815 37.6197 40.4478 37.505 40.538C37.3903 40.6281 37.2949 40.7403 37.2242 40.8679C37.1536 40.9956 37.1092 41.136 37.0936 41.281C37.078 41.4261 37.0916 41.5727 37.1336 41.7124C37.1756 41.8521 37.2451 41.982 37.338 42.0945C37.4309 42.2069 37.5453 42.2996 37.6746 42.3672C37.8039 42.4347 37.9454 42.4757 38.0908 42.4877L56.7997 44.5061L37.8414 51.2786L10.871 42.1611L39.9618 32.8277L65.557 41.378L61.5306 42.8173Z" fill="#A5CDFF" stroke="#A5CDFF" stroke-width="0.5"/>
</g>
<defs>
<clipPath id="clip0_271_31">
<rect width="70" height="70" fill="white"/>
</clipPath>
</defs>
</svg>
