<svg width="163" height="175" viewBox="0 0 163 175" fill="none" xmlns="http://www.w3.org/2000/svg">
<path d="M45.5986 60.5805C45.4888 60.5805 45.3835 60.5452 45.3058 60.4824C45.2282 60.4196 45.1846 60.3345 45.1846 60.2456V46.1669C45.1846 46.0781 45.2282 45.9929 45.3058 45.9301C45.3835 45.8673 45.4888 45.832 45.5986 45.832C45.6521 45.832 45.7052 45.8407 45.7545 45.8577C45.8038 45.8747 45.8483 45.8996 45.8854 45.9309C45.9224 45.9622 45.9513 45.9992 45.9702 46.0398C45.9891 46.0804 45.9976 46.1236 45.9953 46.1669V60.2456C45.9976 60.289 45.9891 60.3322 45.9702 60.3728C45.9513 60.4133 45.9224 60.4504 45.8854 60.4817C45.8483 60.513 45.8038 60.5378 45.7545 60.5548C45.7052 60.5718 45.6521 60.5806 45.5986 60.5805Z" fill="#455A64"/>
<path d="M44.1318 58.9141L45.529 60.0443L46.909 58.9141V59.8768L45.529 60.9931L44.1318 59.8768V58.9141Z" fill="#455A64"/>
<path d="M60.3129 62.1111C60.2389 62.1149 60.1651 62.101 60.1008 62.0713C60.0364 62.0415 59.9842 61.9972 59.9506 61.9437C59.9234 61.9064 59.9058 61.865 59.8988 61.822C59.8919 61.779 59.8958 61.7353 59.9103 61.6936C59.9248 61.6519 59.9497 61.613 59.9833 61.5792C60.0169 61.5455 60.0586 61.5175 60.1059 61.4972L71.5596 56.1392C71.607 56.1168 71.6595 56.1024 71.714 56.0966C71.7684 56.0908 71.8237 56.0939 71.8767 56.1056C71.9297 56.1172 71.9792 56.1373 72.0225 56.1647C72.0658 56.192 72.1019 56.226 72.1288 56.2647C72.1792 56.341 72.1911 56.4301 72.1622 56.5133C72.1333 56.5965 72.0657 56.6674 71.9736 56.7113L60.5026 62.0693C60.4457 62.0978 60.3798 62.1124 60.3129 62.1111Z" fill="#455A64"/>
<path d="M71.0421 58.0724L71.5596 56.5375L69.6621 56.1189L70.6798 55.6445L72.5773 56.0492L72.077 57.584L71.0421 58.0724Z" fill="#455A64"/>
<path d="M58.1898 136.079C58.1158 136.083 58.0421 136.069 57.9777 136.039C57.9133 136.009 57.8611 135.965 57.8276 135.911C57.8003 135.874 57.7827 135.833 57.7758 135.79C57.7689 135.747 57.7728 135.703 57.7873 135.661C57.8018 135.62 57.8266 135.581 57.8602 135.547C57.8938 135.513 57.9355 135.485 57.9828 135.465L69.4365 130.107C69.5333 130.065 69.6461 130.055 69.7518 130.079C69.8575 130.102 69.9483 130.157 70.0057 130.233C70.0531 130.312 70.0634 130.402 70.0349 130.486C70.0063 130.571 69.9408 130.644 69.8505 130.693L58.3796 136.037C58.3227 136.066 58.2568 136.08 58.1898 136.079Z" fill="#455A64"/>
<path d="M68.9171 132.041L69.4346 130.506L67.5371 130.102L68.5548 129.613L70.4523 130.032L69.952 131.567L68.9171 132.041Z" fill="#455A64"/>
<path d="M99.7796 116.659C99.7085 116.66 99.6384 116.645 99.5774 116.616C99.5164 116.586 99.4669 116.543 99.4346 116.492C99.4047 116.455 99.3849 116.414 99.3766 116.37C99.3682 116.327 99.3715 116.282 99.3862 116.24C99.401 116.198 99.4268 116.158 99.4619 116.125C99.497 116.091 99.5406 116.064 99.5898 116.045L111.044 110.687C111.089 110.663 111.14 110.647 111.194 110.64C111.248 110.634 111.303 110.636 111.355 110.648C111.407 110.66 111.456 110.681 111.497 110.709C111.539 110.738 111.572 110.773 111.595 110.813C111.623 110.849 111.642 110.89 111.65 110.932C111.658 110.975 111.656 111.018 111.643 111.06C111.63 111.101 111.607 111.14 111.575 111.175C111.543 111.209 111.503 111.238 111.457 111.259L99.9866 116.617C99.9233 116.646 99.8519 116.66 99.7796 116.659Z" fill="#455A64"/>
<path d="M110.522 112.611L111.039 111.077L109.142 110.658L110.159 110.184L112.057 110.588L111.539 112.123L110.522 112.611Z" fill="#455A64"/>
<path d="M102.519 42.4306C102.448 42.4317 102.378 42.4165 102.317 42.3869C102.256 42.3573 102.206 42.3144 102.174 42.2632C102.146 42.2267 102.127 42.1861 102.119 42.1437C102.111 42.1013 102.113 42.058 102.126 42.0164C102.139 41.9747 102.162 41.9356 102.194 41.9013C102.226 41.867 102.266 41.8382 102.312 41.8167L113.783 36.4587C113.829 36.4366 113.88 36.4224 113.933 36.4168C113.986 36.4111 114.04 36.4143 114.092 36.4261C114.143 36.4378 114.191 36.4578 114.233 36.485C114.275 36.5122 114.309 36.546 114.335 36.5842C114.363 36.6207 114.381 36.6614 114.389 36.7038C114.397 36.7462 114.395 36.7894 114.382 36.8311C114.369 36.8727 114.346 36.9118 114.314 36.9461C114.283 36.9804 114.242 37.0092 114.197 37.0307L102.726 42.3887C102.662 42.4155 102.591 42.4298 102.519 42.4306Z" fill="#455A64"/>
<path d="M113.196 38.3849L113.714 36.85L111.816 36.4314L112.834 35.957L114.732 36.3617L114.214 37.9105L113.196 38.3849Z" fill="#455A64"/>
<path d="M101.711 79.6297C101.64 79.6317 101.569 79.6186 101.505 79.5917C101.442 79.5648 101.388 79.525 101.349 79.4762C101.322 79.4378 101.304 79.3954 101.296 79.3513C101.289 79.3073 101.293 79.2626 101.308 79.2197C101.322 79.1769 101.347 79.1367 101.381 79.1017C101.414 79.0667 101.456 79.0375 101.504 79.0158L112.958 73.6577C113.054 73.6133 113.168 73.6016 113.275 73.6252C113.382 73.6487 113.472 73.7056 113.527 73.7833C113.582 73.861 113.597 73.9532 113.568 74.0396C113.538 74.1259 113.468 74.1994 113.372 74.2438L101.901 79.5878C101.844 79.6164 101.778 79.6309 101.711 79.6297Z" fill="#455A64"/>
<path d="M102.417 77.668L101.917 79.2028L103.815 79.6075L102.797 80.0819L100.899 79.6772L101.4 78.1424L102.417 77.668Z" fill="#455A64"/>
<path d="M100.966 148.81C100.895 148.811 100.825 148.796 100.764 148.766C100.703 148.737 100.654 148.694 100.621 148.643C100.582 148.604 100.554 148.558 100.541 148.509C100.529 148.46 100.531 148.41 100.548 148.361C100.565 148.313 100.596 148.269 100.639 148.233C100.682 148.197 100.735 148.17 100.794 148.154L111.489 143.145C111.583 143.104 111.693 143.095 111.796 143.118C111.899 143.141 111.986 143.196 112.041 143.271C112.069 143.307 112.087 143.348 112.095 143.39C112.104 143.432 112.101 143.476 112.088 143.517C112.075 143.559 112.052 143.598 112.02 143.632C111.989 143.667 111.948 143.696 111.903 143.717L101.191 148.726C101.127 148.77 101.049 148.799 100.966 148.81Z" fill="#455A64"/>
<path d="M101.691 146.84L101.174 148.375L103.071 148.793L102.054 149.268L100.156 148.849L100.674 147.314L101.691 146.84Z" fill="#455A64"/>
<path d="M60.5002 98.863C60.429 98.8641 60.359 98.849 60.298 98.8194C60.237 98.7897 60.1875 98.7469 60.1552 98.6956C60.1272 98.6591 60.1086 98.6185 60.1005 98.5761C60.0923 98.5337 60.0947 98.4904 60.1075 98.4488C60.1204 98.4072 60.1435 98.368 60.1753 98.3337C60.2072 98.2994 60.2473 98.2707 60.2932 98.2491L71.7641 92.8911C71.8583 92.8503 71.9684 92.8407 72.0713 92.8641C72.1742 92.8875 72.2619 92.9422 72.3161 93.0167C72.3437 93.0551 72.3616 93.0975 72.3687 93.1416C72.3759 93.1856 72.3721 93.2303 72.3576 93.2732C72.3432 93.316 72.3184 93.3562 72.2846 93.3912C72.2508 93.4262 72.2087 93.4554 72.1608 93.4771L60.7072 98.8212L60.5002 98.863Z" fill="#455A64"/>
<path d="M61.2247 96.918L60.7072 98.4528L62.6046 98.8575L61.5869 99.3319L59.6895 98.9272L60.2069 97.3924L61.2247 96.918Z" fill="#455A64"/>
<path d="M125.703 55.0052C125.593 55.0052 125.488 54.9699 125.41 54.9071C125.333 54.8443 125.289 54.7591 125.289 54.6703V43.9403C125.289 43.8515 125.333 43.7663 125.41 43.7035C125.488 43.6407 125.593 43.6055 125.703 43.6055C125.813 43.6055 125.918 43.6407 125.996 43.7035C126.073 43.7663 126.117 43.8515 126.117 43.9403V54.6703C126.117 54.7591 126.073 54.8443 125.996 54.9071C125.918 54.9699 125.813 55.0052 125.703 55.0052Z" fill="#455A64"/>
<path d="M124.323 53.3555L125.703 54.4717L127.1 53.3555V54.3043L125.703 55.4205L124.323 54.3043V53.3555Z" fill="#455A64"/>
<path d="M45.5986 123.566C45.5311 123.582 45.4591 123.582 45.3916 123.566C45.3282 123.54 45.2752 123.499 45.2386 123.45C45.202 123.401 45.1833 123.344 45.1846 123.287V115.389C45.1846 115.3 45.2282 115.215 45.3059 115.152C45.3835 115.09 45.4888 115.054 45.5986 115.054C45.6522 115.054 45.7052 115.063 45.7545 115.08C45.8038 115.097 45.8484 115.122 45.8854 115.153C45.9225 115.184 45.9514 115.221 45.9703 115.262C45.9891 115.303 45.9977 115.346 45.9954 115.389V122.701L125.343 85.6409V80.7294C125.343 80.6406 125.387 80.5554 125.464 80.4926C125.542 80.4298 125.647 80.3945 125.757 80.3945C125.867 80.3945 125.972 80.4298 126.05 80.4926C126.127 80.5554 126.171 80.6406 126.171 80.7294V85.8363C126.169 85.8932 126.149 85.9487 126.112 85.9975C126.076 86.0463 126.025 86.0869 125.964 86.1153L45.7711 123.566C45.7145 123.577 45.6552 123.577 45.5986 123.566Z" fill="#455A64"/>
<path d="M46.909 116.661L45.529 115.545L44.1318 116.661V115.712L45.529 114.582L46.909 115.712V116.661Z" fill="#455A64"/>
<path d="M45.5964 160.195C45.5288 160.211 45.4569 160.211 45.3894 160.195C45.3233 160.168 45.2684 160.126 45.2316 160.074C45.1948 160.021 45.1777 159.962 45.1824 159.902V154.809C45.1824 154.72 45.226 154.635 45.3036 154.572C45.3813 154.509 45.4866 154.474 45.5964 154.474C45.65 154.474 45.703 154.483 45.7523 154.5C45.8016 154.517 45.8461 154.542 45.8832 154.573C45.9203 154.604 45.9491 154.641 45.968 154.682C45.9869 154.723 45.9954 154.766 45.9931 154.809V159.316L125.341 122.256V114.526C125.341 114.437 125.384 114.352 125.462 114.289C125.54 114.227 125.645 114.191 125.755 114.191C125.865 114.191 125.97 114.227 126.048 114.289C126.125 114.352 126.169 114.437 126.169 114.526V122.424C126.166 122.481 126.146 122.536 126.11 122.585C126.074 122.634 126.023 122.674 125.962 122.703L45.7171 160.153C45.6806 160.173 45.6396 160.187 45.5964 160.195Z" fill="#455A64"/>
<path d="M127.1 115.838L125.703 114.722L124.323 115.838V114.89L125.703 113.773L127.1 114.89V115.838Z" fill="#455A64"/>
<path d="M27.1738 150.564C27.1056 150.576 27.0349 150.576 26.9668 150.564C26.9033 150.534 26.8507 150.491 26.8143 150.44C26.7779 150.389 26.7591 150.33 26.7598 150.271V114.104C26.7621 114.047 26.7823 113.992 26.8186 113.943C26.8548 113.894 26.9058 113.854 26.9668 113.825L31.3137 111.788C31.3946 111.758 31.4853 111.75 31.5723 111.765C31.6593 111.78 31.7379 111.818 31.7966 111.872C31.8243 111.91 31.8422 111.953 31.8493 111.997C31.8564 112.041 31.8527 112.085 31.8382 112.128C31.8238 112.171 31.7989 112.211 31.7651 112.246C31.7313 112.281 31.6893 112.31 31.6414 112.332L27.5188 114.258V149.615L32.0726 147.494C32.1191 147.462 32.1739 147.438 32.2331 147.424C32.2923 147.411 32.3544 147.409 32.415 147.417C32.4755 147.426 32.533 147.445 32.5831 147.474C32.6333 147.503 32.6749 147.54 32.705 147.583C32.7351 147.627 32.7528 147.675 32.757 147.724C32.7611 147.774 32.7516 147.824 32.729 147.87C32.7065 147.916 32.6715 147.958 32.6265 147.992C32.5816 148.026 32.5279 148.051 32.4694 148.066L27.2945 150.48C27.2605 150.513 27.2197 150.542 27.1738 150.564Z" fill="#455A64"/>
<path d="M31.6248 149.471L32.125 147.936L30.2275 147.517L31.2625 147.043L33.1427 147.462L32.6425 148.982L31.6248 149.471Z" fill="#455A64"/>
<path d="M141.247 130.01C141.176 130.011 141.106 129.995 141.045 129.966C140.984 129.936 140.934 129.893 140.902 129.842C140.874 129.804 140.856 129.761 140.849 129.717C140.842 129.673 140.846 129.628 140.86 129.586C140.875 129.543 140.9 129.503 140.933 129.468C140.967 129.433 141.009 129.403 141.057 129.382L145.369 127.372V95.4196L141.644 97.1498C141.598 97.1724 141.548 97.1875 141.496 97.1941C141.443 97.2007 141.39 97.1987 141.338 97.1883C141.287 97.1779 141.239 97.1593 141.196 97.1335C141.154 97.1077 141.118 97.0753 141.092 97.0382C141.063 97.0006 141.044 96.9589 141.036 96.9155C141.028 96.872 141.03 96.8276 141.043 96.7848C141.055 96.7421 141.079 96.7018 141.111 96.6662C141.143 96.6307 141.183 96.6006 141.23 96.5777L145.576 94.5545C145.64 94.5264 145.711 94.5117 145.783 94.5117C145.856 94.5117 145.927 94.5264 145.99 94.5545C146.051 94.5859 146.1 94.6294 146.133 94.6808C146.166 94.7321 146.183 94.7896 146.18 94.8476V127.554C146.181 127.61 146.164 127.665 146.131 127.714C146.098 127.763 146.049 127.804 145.99 127.833L141.454 130.01C141.386 130.024 141.315 130.024 141.247 130.01Z" fill="#455A64"/>
<path d="M141.968 128.031L141.468 129.566L143.365 129.971L142.33 130.459L140.433 130.041L140.95 128.506L141.968 128.031Z" fill="#455A64"/>
<path d="M57.8966 31.6622C57.8966 35.4156 52.3595 41.0387 45.5287 44.22C38.6979 47.4014 33.1436 47.0107 33.1436 43.2015C33.1436 39.3923 38.6806 33.825 45.5287 30.6436C52.3767 27.4623 57.8966 27.9088 57.8966 31.6622Z" fill="#4CAF4F"/>
<path d="M90.5595 159.685C96.937 155.367 100.129 149.955 97.6894 147.597C95.2496 145.239 88.1018 146.828 81.7243 151.146C75.3468 155.464 72.1546 160.876 74.5943 163.234C77.0341 165.592 84.1819 164.003 90.5595 159.685Z" fill="#4CAF4F"/>
<path d="M56.7916 69.4396L34.2465 79.9603C33.5738 80.2673 33.0391 79.9603 33.0391 79.2068V69.8163C33.0444 69.4479 33.1564 69.0856 33.3661 68.7584C33.5758 68.4313 33.8773 68.1485 34.2465 67.9326L56.7916 57.4538C57.4643 57.1468 57.9991 57.4538 57.9991 58.2073V67.5838C57.9871 67.9473 57.872 68.3037 57.6626 68.6255C57.4533 68.9473 57.1553 69.2258 56.7916 69.4396Z" fill="#4CAF4F"/>
<path opacity="0.6" d="M56.7916 69.4396L34.2465 79.9603C33.5738 80.2673 33.0391 79.9603 33.0391 79.2068V69.8163C33.0444 69.4479 33.1564 69.0856 33.3661 68.7584C33.5758 68.4313 33.8773 68.1485 34.2465 67.9326L56.7916 57.4538C57.4643 57.1468 57.9991 57.4538 57.9991 58.2073V67.5838C57.9871 67.9473 57.872 68.3037 57.6626 68.6255C57.4533 68.9473 57.1553 69.2258 56.7916 69.4396Z" fill="white"/>
<path d="M97.3425 50.4798L74.9181 60.9866C74.2453 61.3075 73.6934 60.9866 73.6934 60.247V50.8566C73.7007 50.4869 73.8153 50.1238 74.0281 49.7966C74.2408 49.4694 74.5457 49.1872 74.9181 48.9729L97.3425 38.4522C98.0152 38.1313 98.5672 38.4522 98.5672 39.1917V48.5822C98.5626 48.9542 98.4492 49.3201 98.2364 49.6499C98.0235 49.9797 97.7172 50.2641 97.3425 50.4798Z" fill="#4CAF4F"/>
<path opacity="0.6" d="M97.3425 50.4798L74.9181 60.9866C74.2453 61.3075 73.6934 60.9866 73.6934 60.247V50.8566C73.7007 50.4869 73.8153 50.1238 74.0281 49.7966C74.2408 49.4694 74.5457 49.1872 74.9181 48.9729L97.3425 38.4522C98.0152 38.1313 98.5672 38.4522 98.5672 39.1917V48.5822C98.5626 48.9542 98.4492 49.3201 98.2364 49.6499C98.0235 49.9797 97.7172 50.2641 97.3425 50.4798Z" fill="white"/>
<path d="M97.3425 87.3174L74.9181 97.8381C74.2453 98.159 73.6934 97.8381 73.6934 97.0986V87.7081C73.702 87.3387 73.8173 86.976 74.0299 86.6489C74.2425 86.3219 74.5467 86.0396 74.9181 85.8244L97.3425 75.3038C98.0152 74.9828 98.5672 75.3038 98.5672 76.0433V85.4338C98.5599 85.8034 98.4452 86.1665 98.2325 86.4937C98.0197 86.8209 97.7148 87.1031 97.3425 87.3174Z" fill="#4CAF4F"/>
<path opacity="0.6" d="M97.3425 87.3174L74.9181 97.8381C74.2453 98.159 73.6934 97.8381 73.6934 97.0986V87.7081C73.702 87.3387 73.8173 86.976 74.0299 86.6489C74.2425 86.3219 74.5467 86.0396 74.9181 85.8244L97.3425 75.3038C98.0152 74.9828 98.5672 75.3038 98.5672 76.0433V85.4338C98.5599 85.8034 98.4452 86.1665 98.2325 86.4937C98.0197 86.8209 97.7148 87.1031 97.3425 87.3174Z" fill="white"/>
<path d="M97.3425 123.454L74.9181 133.975C74.2453 134.282 73.6934 133.975 73.6934 133.221V123.831C73.702 123.461 73.8173 123.099 74.0299 122.772C74.2425 122.445 74.5467 122.162 74.9181 121.947L97.3425 111.426C98.0152 111.119 98.5672 111.426 98.5672 112.18V121.556C98.5599 121.928 98.4453 122.293 98.2327 122.623C98.02 122.952 97.7152 123.237 97.3425 123.454Z" fill="#4CAF4F"/>
<path opacity="0.6" d="M97.3425 123.454L74.9181 133.975C74.2453 134.282 73.6934 133.975 73.6934 133.221V123.831C73.702 123.461 73.8173 123.099 74.0299 122.772C74.2425 122.445 74.5467 122.162 74.9181 121.947L97.3425 111.426C98.0152 111.119 98.5672 111.426 98.5672 112.18V121.556C98.5599 121.928 98.4453 122.293 98.2327 122.623C98.02 122.952 97.7152 123.237 97.3425 123.454Z" fill="white"/>
<path d="M137.022 104.962L114.494 115.483C113.822 115.804 113.27 115.483 113.27 114.743V105.353C113.278 104.983 113.393 104.621 113.606 104.294C113.819 103.966 114.123 103.684 114.494 103.469L137.022 92.9483C137.695 92.6274 138.247 92.9483 138.247 93.6878V103.078C138.24 103.448 138.125 103.811 137.912 104.138C137.699 104.465 137.395 104.748 137.022 104.962Z" fill="#4CAF4F"/>
<path opacity="0.6" d="M137.022 104.962L114.494 115.483C113.822 115.804 113.27 115.483 113.27 114.743V105.353C113.278 104.983 113.393 104.621 113.606 104.294C113.819 103.966 114.123 103.684 114.494 103.469L137.022 92.9483C137.695 92.6274 138.247 92.9483 138.247 93.6878V103.078C138.24 103.448 138.125 103.811 137.912 104.138C137.699 104.465 137.395 104.748 137.022 104.962Z" fill="white"/>
<path d="M137.02 137.673L114.441 148.152C113.768 148.473 113.216 148.152 113.216 147.412V138.022C113.223 137.652 113.338 137.289 113.551 136.962C113.763 136.635 114.068 136.352 114.441 136.138L137.02 125.659C137.693 125.338 138.245 125.659 138.245 126.399V135.789C138.236 136.159 138.121 136.521 137.908 136.848C137.696 137.175 137.392 137.458 137.02 137.673Z" fill="#4CAF4F"/>
<path opacity="0.6" d="M137.02 137.673L114.441 148.152C113.768 148.473 113.216 148.152 113.216 147.412V138.022C113.223 137.652 113.338 137.289 113.551 136.962C113.763 136.635 114.068 136.352 114.441 136.138L137.02 125.659C137.693 125.338 138.245 125.659 138.245 126.399V135.789C138.236 136.159 138.121 136.521 137.908 136.848C137.696 137.175 137.392 137.458 137.02 137.673Z" fill="white"/>
<path d="M56.7916 106.298L34.2465 116.819C33.5738 117.139 33.0391 116.819 33.0391 116.065V106.689C33.0444 106.318 33.1563 105.954 33.3659 105.624C33.5755 105.295 33.877 105.01 34.2465 104.791L56.7916 94.2702C57.4643 93.9632 57.9991 94.2702 57.9991 95.0237V104.414C57.9938 104.783 57.8817 105.145 57.6721 105.472C57.4624 105.799 57.1608 106.082 56.7916 106.298Z" fill="#4CAF4F"/>
<path opacity="0.6" d="M56.7916 106.298L34.2465 116.819C33.5738 117.139 33.0391 116.819 33.0391 116.065V106.689C33.0444 106.318 33.1563 105.954 33.3659 105.624C33.5755 105.295 33.877 105.01 34.2465 104.791L56.7916 94.2702C57.4643 93.9632 57.9991 94.2702 57.9991 95.0237V104.414C57.9938 104.783 57.8817 105.145 57.6721 105.472C57.4624 105.799 57.1608 106.082 56.7916 106.298Z" fill="white"/>
<path d="M124.564 41.0937L115.043 30.3358C114.743 29.7394 114.692 29.0802 114.897 28.4582C115.103 27.8362 115.554 27.2854 116.181 26.8894L135.156 18.0012C136.363 17.4291 137.036 18.8384 136.294 20.3733L126.772 40.0333C126.272 41.2333 125.151 41.7495 124.564 41.0937Z" fill="#455A64"/>
<path d="M135.399 65.0009L126.568 77.3215C126.05 78.0331 125.36 78.368 124.843 78.1308L116.011 74.0564C115.235 73.6937 115.235 72.2565 116.011 71.1682L124.843 58.8615C125.36 58.1498 126.05 57.815 126.568 58.0522L135.399 62.1265C136.176 62.4753 136.176 63.9265 135.399 65.0009Z" fill="#C8E6C9"/>
<path d="M55.2063 138.584L46.3918 150.946C45.8743 151.658 45.1671 151.993 44.6669 151.756L35.8351 147.681C35.0589 147.333 35.0589 145.881 35.8351 144.793L44.6669 132.486C45.1671 131.775 45.8743 131.44 46.3918 131.677L55.2063 135.751C55.948 136.058 55.948 137.51 55.2063 138.584Z" fill="#C8E6C9"/>
<path d="M12.1165 95.136C12.0454 95.1355 11.9755 95.1213 11.9125 95.0946C11.8495 95.0679 11.7953 95.0295 11.7543 94.9825C11.703 94.9042 11.6905 94.813 11.7193 94.7274C11.7481 94.6419 11.8162 94.5685 11.9095 94.522L38.5082 82.1037C38.5547 82.0808 38.6062 82.0655 38.66 82.0587C38.7137 82.0519 38.7686 82.0537 38.8215 82.0641C38.8743 82.0745 38.9242 82.0932 38.9681 82.1191C39.012 82.1451 39.0492 82.1778 39.0775 82.2154C39.1288 82.2937 39.1413 82.3849 39.1124 82.4704C39.0836 82.556 39.0156 82.6294 38.9222 82.6758L12.3235 95.136C12.2554 95.1485 12.1846 95.1485 12.1165 95.136Z" fill="#455A64"/>
<path d="M12.1162 98.3172C12.0432 98.3164 11.9717 98.3006 11.9084 98.2713C11.845 98.242 11.7919 98.2002 11.7539 98.1498C11.7036 98.0736 11.6916 97.9845 11.7205 97.9013C11.7495 97.8181 11.8171 97.7471 11.9092 97.7033L38.5079 85.271C38.6048 85.2295 38.7175 85.2194 38.8233 85.2428C38.929 85.2661 39.0198 85.3211 39.0772 85.3966C39.1276 85.4729 39.1395 85.5619 39.1106 85.6451C39.0817 85.7284 39.014 85.7993 38.9219 85.8431L12.3232 98.2754C12.2591 98.3021 12.1883 98.3164 12.1162 98.3172Z" fill="#E0E0E0"/>
<path d="M12.1165 101.428C12.0442 101.424 11.9738 101.408 11.9109 101.379C11.848 101.349 11.7944 101.309 11.7543 101.26C11.703 101.182 11.6905 101.091 11.7193 101.005C11.7481 100.92 11.8162 100.846 11.9095 100.8L38.5083 88.3814C38.5557 88.359 38.6082 88.3446 38.6626 88.3388C38.7171 88.333 38.7724 88.3361 38.8254 88.3477C38.8784 88.3594 38.9279 88.3795 38.9712 88.4068C39.0145 88.4342 39.0506 88.4682 39.0775 88.5069C39.1279 88.5832 39.1398 88.6722 39.1109 88.7555C39.082 88.8387 39.0144 88.9096 38.9222 88.9534L12.3235 101.386L12.1165 101.428Z" fill="#E0E0E0"/>
<path d="M12.1165 104.554C12.0454 104.553 11.9755 104.539 11.9125 104.513C11.8495 104.486 11.7953 104.447 11.7543 104.4C11.703 104.322 11.6905 104.231 11.7193 104.145C11.7481 104.06 11.8162 103.986 11.9095 103.94L38.5082 91.5217C38.5547 91.4988 38.6062 91.4835 38.66 91.4767C38.7137 91.4699 38.7686 91.4717 38.8215 91.4821C38.8743 91.4924 38.9242 91.5111 38.9681 91.5371C39.012 91.563 39.0492 91.5958 39.0775 91.6333C39.1288 91.7117 39.1413 91.8029 39.1124 91.8884C39.0836 91.9739 39.0156 92.0474 38.9222 92.0938L12.3235 104.512C12.2594 104.539 12.1886 104.553 12.1165 104.554Z" fill="#E0E0E0"/>
<path d="M0.420256 58.6713C0.349131 58.6724 0.279074 58.6572 0.218074 58.6276C0.157075 58.598 0.107595 58.5551 0.0752717 58.5039C0.0469326 58.4663 0.0280186 58.4246 0.0196167 58.3811C0.0112147 58.3377 0.0134864 58.2933 0.0263021 58.2505C0.0391178 58.2078 0.0622345 58.1675 0.0943146 58.1319C0.126395 58.0964 0.166815 58.0663 0.213271 58.0434L26.8292 45.6251C26.92 45.6018 27.018 45.6045 27.1066 45.6327C27.1953 45.661 27.2691 45.7132 27.3157 45.7804C27.3623 45.8476 27.3789 45.9258 27.3625 46.0017C27.3462 46.0776 27.2979 46.1467 27.226 46.1972L0.627255 58.6295C0.563191 58.6562 0.492329 58.6705 0.420256 58.6713Z" fill="#455A64"/>
<path d="M0.420256 61.7796C0.351212 61.7805 0.283068 61.7668 0.222562 61.7399C0.162056 61.713 0.11129 61.6738 0.0752717 61.6261C0.0469326 61.5886 0.0280186 61.5469 0.0196167 61.5034C0.0112147 61.4599 0.0134864 61.4155 0.0263021 61.3728C0.0391178 61.33 0.0622345 61.2897 0.0943147 61.2542C0.126395 61.2186 0.166815 61.1886 0.213271 61.1657L26.8292 48.7473C26.8743 48.7247 26.9246 48.7097 26.977 48.7031C27.0294 48.6964 27.0829 48.6984 27.1344 48.7088C27.1859 48.7192 27.2342 48.7379 27.2766 48.7636C27.319 48.7894 27.3546 48.8218 27.3812 48.8589C27.4088 48.8973 27.4267 48.9398 27.4339 48.9838C27.441 49.0279 27.4372 49.0726 27.4228 49.1155C27.4083 49.1583 27.3835 49.1984 27.3497 49.2334C27.3159 49.2684 27.2739 49.2977 27.226 49.3194L0.627255 61.7378C0.563191 61.7645 0.492329 61.7788 0.420256 61.7796Z" fill="#E0E0E0"/>
<path d="M0.422031 64.9077C0.350906 64.9088 0.280848 64.8936 0.219849 64.864C0.158849 64.8344 0.109369 64.7915 0.077046 64.7403C0.0491111 64.7038 0.0305048 64.6632 0.0223253 64.6208C0.0141458 64.5784 0.0165529 64.5351 0.0294187 64.4934C0.0422846 64.4518 0.0653518 64.4127 0.0972339 64.3784C0.129116 64.3441 0.169175 64.3153 0.215045 64.2938L26.831 51.8755C26.9253 51.8347 27.0354 51.825 27.1382 51.8484C27.2411 51.8719 27.3288 51.9265 27.383 52.001C27.4103 52.0384 27.4279 52.0798 27.4348 52.1227C27.4417 52.1657 27.4378 52.2094 27.4233 52.2511C27.4088 52.2928 27.384 52.3318 27.3504 52.3655C27.3168 52.3993 27.2751 52.4272 27.2278 52.4476L0.629029 64.8798C0.563554 64.9017 0.492755 64.9113 0.422031 64.9077Z" fill="#E0E0E0"/>
<path d="M0.420656 68.0322C0.328308 68.0334 0.238116 68.0096 0.164424 67.9645C0.090733 67.9195 0.0377735 67.8558 0.0139758 67.7836C-0.009822 67.7114 -0.00308592 67.6349 0.0330977 67.5661C0.0692813 67.4974 0.132843 67.4404 0.21367 67.4043L26.8296 54.986C26.8758 54.964 26.9269 54.9497 26.9801 54.9441C27.0332 54.9385 27.0872 54.9417 27.1388 54.9534C27.1904 54.9651 27.2385 54.9852 27.2802 55.0124C27.3219 55.0396 27.3564 55.0733 27.3816 55.1116C27.4089 55.1489 27.4265 55.1903 27.4334 55.2333C27.4403 55.2763 27.4364 55.3199 27.4219 55.3617C27.4074 55.4034 27.3826 55.4423 27.349 55.4761C27.3154 55.5098 27.2737 55.5377 27.2264 55.5581L0.627654 67.9903L0.420656 68.0322Z" fill="#E0E0E0"/>
<path d="M72.8347 66.4619C72.7424 66.4631 72.6522 66.4393 72.5785 66.3943C72.5048 66.3492 72.4518 66.2856 72.428 66.2134C72.4042 66.1412 72.411 66.0646 72.4472 65.9959C72.4833 65.9272 72.5469 65.8702 72.6277 65.834L99.2438 53.4157C99.2899 53.3936 99.3411 53.3794 99.3942 53.3738C99.4473 53.3682 99.5013 53.3713 99.5529 53.3831C99.6045 53.3948 99.6526 53.4149 99.6943 53.4421C99.7361 53.4693 99.7706 53.503 99.7957 53.5413C99.823 53.5786 99.8406 53.62 99.8475 53.663C99.8545 53.7059 99.8505 53.7496 99.836 53.7913C99.8215 53.8331 99.7967 53.872 99.7631 53.9057C99.7295 53.9395 99.6878 53.9674 99.6405 53.9878L73.0417 66.4061C72.9826 66.4433 72.9096 66.463 72.8347 66.4619Z" fill="#455A64"/>
<path d="M72.8351 69.5653C72.764 69.5663 72.6939 69.5512 72.6329 69.5216C72.5719 69.492 72.5225 69.4491 72.4901 69.3978C72.4622 69.3613 72.4436 69.3207 72.4354 69.2783C72.4272 69.2359 72.4296 69.1926 72.4425 69.151C72.4554 69.1094 72.4784 69.0702 72.5103 69.0359C72.5422 69.0016 72.5823 68.9729 72.6281 68.9513L99.2441 56.519C99.3393 56.4835 99.4476 56.4786 99.5472 56.5052C99.6468 56.5318 99.7302 56.5879 99.7805 56.6623C99.8309 56.7367 99.8444 56.8238 99.8185 56.9059C99.7926 56.9881 99.7291 57.0593 99.6409 57.1051L73.0421 69.5234L72.8351 69.5653Z" fill="#E0E0E0"/>
<path d="M72.8351 72.6912C72.764 72.6923 72.6939 72.6771 72.6329 72.6475C72.5719 72.6179 72.5225 72.575 72.4901 72.5238C72.4622 72.4873 72.4436 72.4467 72.4354 72.4043C72.4272 72.3619 72.4296 72.3186 72.4425 72.2769C72.4554 72.2353 72.4784 72.1962 72.5103 72.1619C72.5422 72.1276 72.5823 72.0988 72.6281 72.0773L99.2441 59.645C99.3384 59.6043 99.4485 59.5946 99.5514 59.618C99.6542 59.6414 99.7419 59.6961 99.7961 59.7706C99.8234 59.8079 99.841 59.8493 99.8479 59.8923C99.8548 59.9353 99.8509 59.9789 99.8364 60.0207C99.8219 60.0624 99.7971 60.1013 99.7635 60.1351C99.7299 60.1688 99.6882 60.1967 99.6409 60.2171L73.0421 72.6494C72.9781 72.6761 72.9072 72.6904 72.8351 72.6912Z" fill="#E0E0E0"/>
<path d="M72.8347 75.8209C72.7424 75.8221 72.6522 75.7983 72.5785 75.7532C72.5048 75.7082 72.4518 75.6445 72.428 75.5723C72.4042 75.5001 72.411 75.4236 72.4472 75.3548C72.4833 75.2861 72.5469 75.2291 72.6277 75.193L99.2438 62.7747C99.2889 62.7521 99.3391 62.737 99.3915 62.7304C99.4439 62.7238 99.4974 62.7257 99.5489 62.7361C99.6004 62.7466 99.6487 62.7652 99.6911 62.791C99.7335 62.8168 99.7691 62.8492 99.7957 62.8863C99.8233 62.9247 99.8412 62.9671 99.8484 63.0112C99.8555 63.0552 99.8518 63.1 99.8373 63.1428C99.8229 63.1857 99.798 63.2258 99.7642 63.2608C99.7304 63.2958 99.6884 63.325 99.6405 63.3467L73.0417 75.7651C72.9826 75.8022 72.9096 75.8219 72.8347 75.8209Z" fill="#E0E0E0"/>
<path d="M111.32 13.0857C111.249 13.0868 111.178 13.0717 111.117 13.0421C111.056 13.0124 111.007 12.9696 110.975 12.9183C110.945 12.8816 110.925 12.8401 110.917 12.7966C110.908 12.7531 110.912 12.7087 110.926 12.6664C110.941 12.6241 110.967 12.5848 111.002 12.5512C111.037 12.5176 111.081 12.4906 111.13 12.4718L137.729 0.039536C137.823 -0.00121216 137.933 -0.0108984 138.036 0.0125073C138.139 0.035913 138.226 0.0906027 138.281 0.16512C138.308 0.201598 138.327 0.242239 138.335 0.284636C138.343 0.327033 138.341 0.370327 138.328 0.411955C138.315 0.453584 138.292 0.492694 138.26 0.52699C138.228 0.561285 138.188 0.590068 138.143 0.611621L111.527 13.0439C111.463 13.0722 111.392 13.0867 111.32 13.0857Z" fill="#455A64"/>
<path d="M111.317 16.2078C111.246 16.2059 111.178 16.1896 111.117 16.1603C111.057 16.131 111.007 16.0897 110.972 16.0404C110.923 15.9625 110.913 15.8721 110.946 15.7887C110.978 15.7053 111.049 15.6354 111.144 15.5939L137.743 3.17557C137.788 3.15139 137.84 3.13538 137.893 3.12864C137.947 3.12189 138.002 3.12455 138.054 3.13646C138.107 3.14837 138.155 3.16924 138.197 3.19765C138.238 3.22606 138.272 3.26137 138.295 3.30116C138.323 3.33763 138.341 3.37827 138.35 3.42067C138.358 3.46307 138.355 3.50636 138.343 3.54799C138.33 3.58962 138.307 3.62873 138.275 3.66303C138.243 3.69732 138.203 3.7261 138.157 3.74766L111.541 16.166C111.509 16.1848 111.473 16.1982 111.434 16.2054C111.396 16.2126 111.356 16.2134 111.317 16.2078Z" fill="#E0E0E0"/>
<path d="M111.319 19.3265C111.248 19.3275 111.178 19.3124 111.117 19.2828C111.056 19.2532 111.006 19.2103 110.974 19.159C110.947 19.1217 110.929 19.0803 110.922 19.0373C110.915 18.9943 110.919 18.9507 110.934 18.9089C110.948 18.8672 110.973 18.8283 111.007 18.7945C111.04 18.7608 111.082 18.7329 111.129 18.7125L137.728 6.2942C137.773 6.2716 137.823 6.25655 137.876 6.24993C137.928 6.24332 137.982 6.24526 138.033 6.25567C138.085 6.26608 138.133 6.28473 138.175 6.31052C138.218 6.33631 138.253 6.36872 138.28 6.40583C138.308 6.44338 138.327 6.48508 138.336 6.52856C138.344 6.57203 138.342 6.61641 138.329 6.65918C138.316 6.70194 138.293 6.74224 138.261 6.77778C138.229 6.81331 138.188 6.84338 138.142 6.86627L111.526 19.2846C111.463 19.3129 111.391 19.3274 111.319 19.3265Z" fill="#E0E0E0"/>
<path d="M111.32 22.4451C111.249 22.4462 111.178 22.431 111.117 22.4014C111.056 22.3718 111.007 22.3289 110.975 22.2777C110.945 22.2409 110.925 22.1994 110.917 22.156C110.908 22.1125 110.912 22.0681 110.926 22.0258C110.941 21.9834 110.967 21.9441 111.002 21.9106C111.037 21.877 111.081 21.8499 111.13 21.8312L137.729 9.39891C137.823 9.35816 137.933 9.34848 138.036 9.37188C138.139 9.39529 138.226 9.44998 138.281 9.52449C138.308 9.56097 138.327 9.60161 138.335 9.64401C138.343 9.68641 138.341 9.7297 138.328 9.77133C138.315 9.81296 138.292 9.85208 138.26 9.88638C138.228 9.92067 138.188 9.94944 138.143 9.971L111.527 22.4032C111.463 22.4316 111.392 22.446 111.32 22.4451Z" fill="#E0E0E0"/>
<path d="M135.967 48.0204C135.896 48.0214 135.826 48.0063 135.765 47.9767C135.704 47.9471 135.654 47.9042 135.622 47.8529C135.592 47.8162 135.572 47.7747 135.564 47.7312C135.556 47.6878 135.559 47.6434 135.574 47.601C135.588 47.5587 135.614 47.5194 135.649 47.4858C135.685 47.4523 135.728 47.4252 135.777 47.4064L162.376 34.9742C162.472 34.9297 162.586 34.918 162.693 34.9416C162.8 34.9651 162.89 35.022 162.945 35.0997C163 35.1774 163.015 35.2696 162.986 35.356C162.956 35.4423 162.886 35.5158 162.79 35.5602L136.174 47.9785C136.111 48.0069 136.039 48.0213 135.967 48.0204Z" fill="#455A64"/>
<path d="M135.968 51.1554C135.896 51.1564 135.826 51.1413 135.765 51.1117C135.704 51.0821 135.655 51.0392 135.623 50.9879C135.595 50.9495 135.577 50.9071 135.57 50.863C135.563 50.819 135.567 50.7743 135.581 50.7314C135.595 50.6885 135.62 50.6485 135.654 50.6134C135.688 50.5784 135.73 50.5492 135.778 50.5275L162.377 38.1092C162.422 38.085 162.473 38.069 162.527 38.0622C162.581 38.0555 162.636 38.0582 162.688 38.0701C162.74 38.082 162.789 38.1028 162.83 38.1313C162.872 38.1597 162.905 38.195 162.929 38.2347C162.956 38.2712 162.975 38.3119 162.983 38.3543C162.991 38.3966 162.989 38.4399 162.976 38.4816C162.963 38.5232 162.94 38.5623 162.908 38.5966C162.876 38.6309 162.836 38.6597 162.791 38.6812L136.175 51.1135C136.111 51.1419 136.04 51.1563 135.968 51.1554Z" fill="#E0E0E0"/>
<path d="M135.968 54.264C135.899 54.2649 135.83 54.2512 135.77 54.2243C135.709 54.1974 135.659 54.1581 135.623 54.1105C135.595 54.0721 135.577 54.0296 135.57 53.9856C135.563 53.9416 135.567 53.8968 135.581 53.854C135.595 53.8111 135.62 53.771 135.654 53.736C135.688 53.701 135.73 53.6718 135.778 53.65L162.377 41.2317C162.422 41.2091 162.472 41.194 162.524 41.1874C162.577 41.1808 162.63 41.1828 162.682 41.1932C162.733 41.2036 162.781 41.2222 162.824 41.248C162.866 41.2738 162.902 41.3062 162.929 41.3433C162.957 41.3809 162.976 41.4226 162.984 41.4661C162.993 41.5095 162.99 41.5539 162.977 41.5967C162.965 41.6394 162.942 41.6797 162.909 41.7153C162.877 41.7508 162.837 41.7809 162.791 41.8038L136.175 54.2221C136.111 54.2504 136.04 54.2649 135.968 54.264Z" fill="#E0E0E0"/>
<path d="M135.967 57.4529C135.896 57.454 135.826 57.4388 135.765 57.4092C135.704 57.3796 135.654 57.3368 135.622 57.2855C135.592 57.2488 135.572 57.2072 135.564 57.1638C135.556 57.1203 135.559 57.0759 135.574 57.0336C135.588 56.9912 135.614 56.952 135.649 56.9184C135.685 56.8848 135.728 56.8577 135.777 56.839L162.376 44.4067C162.47 44.366 162.58 44.3563 162.683 44.3797C162.786 44.4031 162.874 44.4578 162.928 44.5323C162.956 44.5688 162.975 44.6094 162.983 44.6518C162.991 44.6942 162.989 44.7375 162.976 44.7791C162.963 44.8208 162.94 44.8599 162.908 44.8942C162.876 44.9285 162.836 44.9572 162.79 44.9788L136.174 57.4111C136.111 57.4394 136.039 57.4538 135.967 57.4529Z" fill="#E0E0E0"/>
<path d="M135.967 79.0584C135.896 79.0595 135.826 79.0443 135.765 79.0147C135.704 78.9851 135.654 78.9422 135.622 78.891C135.592 78.8542 135.572 78.8127 135.564 78.7693C135.556 78.7258 135.559 78.6814 135.574 78.6391C135.588 78.5967 135.614 78.5574 135.649 78.5239C135.685 78.4903 135.728 78.4632 135.777 78.4445L162.376 66.0122C162.47 65.9715 162.58 65.9618 162.683 65.9852C162.786 66.0086 162.874 66.0633 162.928 66.1378C162.956 66.1743 162.975 66.2149 162.983 66.2573C162.991 66.2997 162.989 66.343 162.976 66.3846C162.963 66.4262 162.94 66.4654 162.908 66.4997C162.876 66.5339 162.836 66.5627 162.79 66.5843L136.174 79.0166C136.111 79.0449 136.039 79.0593 135.967 79.0584Z" fill="#455A64"/>
<path d="M135.968 82.1828C135.897 82.1809 135.829 82.1645 135.768 82.1352C135.708 82.1059 135.658 82.0647 135.623 82.0153C135.595 81.9769 135.577 81.9345 135.57 81.8904C135.563 81.8464 135.567 81.8016 135.581 81.7588C135.595 81.7159 135.62 81.6758 135.654 81.6408C135.688 81.6058 135.73 81.5766 135.778 81.5549L162.377 69.1365C162.422 69.1123 162.473 69.0963 162.527 69.0896C162.581 69.0828 162.636 69.0855 162.688 69.0974C162.74 69.1093 162.789 69.1302 162.83 69.1586C162.872 69.187 162.905 69.2223 162.929 69.2621C162.956 69.2986 162.975 69.3392 162.983 69.3816C162.991 69.424 162.989 69.4673 162.976 69.5089C162.963 69.5506 162.94 69.5897 162.908 69.624C162.876 69.6583 162.836 69.687 162.791 69.7086L136.175 82.1409C136.111 82.1692 136.04 82.1837 135.968 82.1828Z" fill="#E0E0E0"/>
<path d="M135.967 85.3577C135.895 85.3588 135.825 85.3436 135.764 85.314C135.703 85.2844 135.654 85.2415 135.622 85.1903C135.594 85.153 135.577 85.1115 135.57 85.0686C135.563 85.0256 135.567 84.9819 135.581 84.9402C135.596 84.8985 135.621 84.8596 135.654 84.8258C135.688 84.792 135.729 84.7641 135.777 84.7438L162.375 72.3254C162.421 72.3028 162.471 72.2878 162.523 72.2812C162.576 72.2746 162.629 72.2765 162.681 72.2869C162.732 72.2973 162.78 72.316 162.823 72.3418C162.865 72.3676 162.901 72.4 162.927 72.4371C162.956 72.4746 162.975 72.5163 162.983 72.5598C162.992 72.6033 162.989 72.6477 162.976 72.6904C162.964 72.7332 162.941 72.7735 162.908 72.809C162.876 72.8446 162.836 72.8746 162.789 72.8975L136.174 85.3159C136.11 85.3442 136.039 85.3586 135.967 85.3577Z" fill="#E0E0E0"/>
<path d="M135.967 88.4256C135.896 88.4266 135.826 88.4115 135.765 88.3819C135.704 88.3523 135.654 88.3094 135.622 88.2582C135.592 88.2214 135.572 88.1799 135.564 88.1364C135.556 88.093 135.559 88.0486 135.574 88.0062C135.588 87.9639 135.614 87.9246 135.649 87.891C135.685 87.8575 135.728 87.8304 135.777 87.8116L162.376 75.3794C162.47 75.3386 162.58 75.3289 162.683 75.3524C162.786 75.3758 162.874 75.4304 162.928 75.5049C162.956 75.5414 162.975 75.5821 162.983 75.6245C162.991 75.6669 162.989 75.7102 162.976 75.7518C162.963 75.7934 162.94 75.8325 162.908 75.8668C162.876 75.9011 162.836 75.9299 162.79 75.9515L136.174 88.3837C136.111 88.4121 136.039 88.4265 135.967 88.4256Z" fill="#E0E0E0"/>
<path d="M10.8041 165.632C10.7328 165.633 10.6623 165.619 10.5991 165.592C10.5359 165.566 10.4819 165.526 10.4419 165.479C10.4143 165.44 10.3964 165.398 10.3893 165.354C10.3821 165.31 10.3859 165.265 10.4003 165.222C10.4148 165.179 10.4396 165.139 10.4734 165.104C10.5072 165.069 10.5493 165.04 10.5971 165.018L37.1959 152.6C37.2423 152.577 37.2938 152.562 37.3476 152.555C37.4013 152.548 37.4562 152.55 37.5091 152.56C37.5619 152.571 37.6118 152.589 37.6557 152.615C37.6996 152.641 37.7368 152.674 37.7651 152.711C37.8164 152.79 37.8289 152.881 37.8001 152.967C37.7712 153.052 37.7032 153.125 37.6099 153.172L11.0974 165.59C11.0079 165.63 10.9049 165.644 10.8041 165.632Z" fill="#455A64"/>
<path d="M10.8041 168.763C10.7308 168.763 10.6586 168.748 10.595 168.718C10.5313 168.689 10.4785 168.646 10.4418 168.595C10.4146 168.558 10.397 168.516 10.39 168.473C10.3831 168.43 10.387 168.387 10.4015 168.345C10.416 168.303 10.4408 168.264 10.4745 168.231C10.5081 168.197 10.5498 168.169 10.5971 168.149L37.1958 155.716C37.2926 155.675 37.4054 155.665 37.5111 155.688C37.6169 155.711 37.7076 155.766 37.765 155.842C37.8154 155.918 37.8274 156.007 37.7984 156.09C37.7695 156.174 37.7019 156.245 37.6098 156.288L11.0973 168.721L10.8041 168.763Z" fill="#E0E0E0"/>
<path d="M10.8041 171.877C10.7315 171.875 10.6606 171.858 10.5975 171.829C10.5344 171.8 10.481 171.759 10.4419 171.709C10.4143 171.671 10.3964 171.629 10.3893 171.584C10.3821 171.54 10.3859 171.496 10.4003 171.453C10.4148 171.41 10.4396 171.37 10.4734 171.335C10.5072 171.3 10.5493 171.271 10.5971 171.249L37.1959 158.831C37.2433 158.808 37.2958 158.794 37.3503 158.788C37.4047 158.782 37.46 158.785 37.513 158.797C37.566 158.809 37.6155 158.829 37.6588 158.856C37.7021 158.883 37.7382 158.917 37.7651 158.956C37.8155 159.032 37.8275 159.121 37.7985 159.205C37.7696 159.288 37.702 159.359 37.6099 159.403L11.0974 171.877C11.0022 171.902 10.8993 171.902 10.8041 171.877Z" fill="#E0E0E0"/>
<path d="M10.806 174.999C10.7189 174.996 10.6355 174.97 10.5675 174.926C10.4996 174.881 10.4506 174.821 10.4277 174.753C10.4047 174.685 10.4089 174.613 10.4397 174.547C10.4705 174.481 10.5262 174.424 10.599 174.385L37.1978 161.967C37.2442 161.944 37.2958 161.929 37.3495 161.922C37.4033 161.915 37.4581 161.917 37.511 161.927C37.5639 161.938 37.6137 161.956 37.6576 161.982C37.7015 162.008 37.7387 162.041 37.767 162.079C37.8183 162.157 37.8308 162.248 37.802 162.334C37.7731 162.419 37.7051 162.493 37.6118 162.539L11.0993 174.957L10.806 174.999Z" fill="#E0E0E0"/>
</svg>
