<svg width="96" height="87" viewBox="0 0 96 87" fill="none" xmlns="http://www.w3.org/2000/svg">
<path fill-rule="evenodd" clip-rule="evenodd" d="M48 0C21.48 0 0 19.9586 0 44.6003C0 64.3359 13.74 81.0053 32.82 86.9148C35.22 87.3051 36.12 85.967 36.12 84.7963C36.12 83.737 36.06 80.2248 36.06 76.4895C24 78.5522 20.88 73.7577 19.92 71.2489C19.38 69.9667 17.04 66.0084 15 64.9492C13.32 64.1129 10.92 62.0501 14.94 61.9944C18.72 61.9386 21.42 65.2279 22.32 66.5659C26.64 73.3117 33.54 71.4162 36.3 70.2454C36.72 67.3464 37.98 65.3952 39.36 64.2802C28.68 63.1651 17.52 59.3184 17.52 42.2588C17.52 37.4085 19.38 33.3945 22.44 30.2724C21.96 29.1574 20.28 24.5859 22.92 18.4534C22.92 18.4534 26.94 17.2826 36.12 23.0249C39.96 22.0214 44.04 21.5196 48.12 21.5196C52.2 21.5196 56.28 22.0214 60.12 23.0249C69.3 17.2269 73.32 18.4534 73.32 18.4534C75.96 24.5859 74.28 29.1574 73.8 30.2724C76.86 33.3945 78.72 37.3527 78.72 42.2588C78.72 59.3741 67.5 63.1651 56.82 64.2802C58.56 65.6739 60.06 68.3499 60.06 72.5312C60.06 78.4965 60 83.291 60 84.7963C60 85.967 60.9 87.3608 63.3 86.9148C72.8289 83.9258 81.109 78.2355 86.975 70.6447C92.841 63.054 95.9974 53.9452 96 44.6003C96 19.9586 74.52 0 48 0Z" fill="black"/>
</svg>
