<svg width="550" height="738" viewBox="0 0 550 738" fill="none" xmlns="http://www.w3.org/2000/svg">
<rect width="550" height="736" rx="23" transform="matrix(1 0 0 -1 0 736)" fill="#D9D9D9"/>
<rect width="77.857" height="156.912" rx="3.51536" transform="matrix(-0.999999 -0.00127214 -0.00134447 0.999999 312.651 579.441)" fill="#00ADB5" stroke="black" stroke-width="1.64486" stroke-linejoin="round"/>
<path d="M487.001 627.613C487.004 625.672 485.432 624.096 483.491 624.093L412.664 624.003C410.723 624.001 409.147 625.572 409.144 627.514L409.004 732.085C409.001 734.027 410.573 735.603 412.514 735.605L483.34 735.695C485.282 735.698 486.858 734.126 486.861 732.184L487.001 627.613Z" fill="#EEEEEE" stroke="black" stroke-width="1.64486" stroke-linejoin="round"/>
<rect width="77.857" height="330.853" rx="3.51536" transform="matrix(-0.999999 -0.00127214 -0.00134447 0.999999 155.303 405.297)" fill="#00ADB5" stroke="black" stroke-width="1.64486" stroke-linejoin="round"/>
<path d="M378.757 360.64L296.384 360.535C296.384 360.535 309.359 474.396 327.201 493.084C345.043 511.771 438.485 563.078 438.485 563.078L470.001 544.778L411.412 456.97C411.412 456.97 417.914 422.766 378.757 360.64Z" fill="#00ADB5" stroke="black" stroke-width="1.39887"/>
<path d="M437.153 562.051L470 544.783L486.589 561.776C486.589 561.776 458.564 577.143 439.018 583.155L447.307 572.809L437.153 562.051Z" fill="#EEEEEE" stroke="black" stroke-width="1.39887" stroke-linejoin="round"/>
<path d="M378.408 358.986L288.405 358.759C288.405 358.759 238.316 400.445 231.98 424.933C225.643 449.42 232.712 538.326 232.712 538.326L269.068 553.634L306.749 459.786C306.749 459.786 346.061 424.542 378.408 358.986Z" fill="#00ADB5"/>
<path d="M378.408 358.986L378.425 358.301C378.667 358.302 378.89 358.42 379.016 358.616C379.143 358.811 379.157 359.057 379.052 359.268L378.408 358.986ZM288.405 358.759L287.944 358.246L288.151 358.074L288.422 358.074L288.405 358.759ZM232.712 538.326L232.414 538.954L232.032 538.794L232.001 538.393L232.712 538.326ZM269.068 553.634L269.734 553.868L269.459 554.552L268.77 554.262L269.068 553.634ZM306.749 459.786L306.083 459.551L306.144 459.401L306.267 459.29L306.749 459.786ZM378.391 359.671L288.388 359.444L288.422 358.074L378.425 358.301L378.391 359.671ZM233.011 537.699L269.367 553.006L268.77 554.262L232.414 538.954L233.011 537.699ZM268.403 553.4L306.083 459.551L307.414 460.02L269.734 553.868L268.403 553.4ZM306.749 459.786C306.267 459.29 306.267 459.29 306.268 459.29C306.268 459.29 306.268 459.289 306.269 459.289C306.27 459.288 306.271 459.287 306.273 459.285C306.278 459.281 306.285 459.275 306.294 459.266C306.312 459.25 306.34 459.225 306.377 459.191C306.451 459.124 306.561 459.022 306.708 458.886C307.001 458.615 307.436 458.207 308.002 457.664C309.134 456.578 310.789 454.952 312.878 452.794C317.057 448.479 322.968 442.04 329.889 433.554C343.733 416.583 361.617 391.427 377.764 358.704L379.052 359.268C362.851 392.101 344.906 417.345 331.007 434.384C324.057 442.904 318.119 449.373 313.915 453.715C311.813 455.886 310.145 457.525 309.001 458.622C308.429 459.171 307.988 459.584 307.689 459.861C307.539 460 307.426 460.104 307.349 460.174C307.31 460.209 307.281 460.236 307.261 460.253C307.251 460.262 307.244 460.269 307.239 460.274C307.236 460.276 307.234 460.278 307.233 460.279C307.232 460.28 307.232 460.28 307.231 460.281C307.231 460.281 307.231 460.281 306.749 459.786ZM288.405 358.759C288.867 359.272 288.866 359.272 288.866 359.272C288.866 359.273 288.865 359.273 288.864 359.274C288.863 359.275 288.861 359.277 288.858 359.279C288.852 359.284 288.843 359.292 288.831 359.301C288.807 359.321 288.772 359.351 288.725 359.391C288.63 359.47 288.49 359.588 288.307 359.743C287.94 360.053 287.4 360.511 286.711 361.104C285.332 362.289 283.354 364.009 280.961 366.151C276.174 370.435 269.726 376.4 263.082 383.128C256.437 389.858 249.605 397.34 244.043 404.658C238.471 411.991 234.222 419.098 232.673 425.084L231.287 424.781C232.906 418.524 237.295 411.237 242.896 403.867C248.508 396.481 255.387 388.951 262.055 382.198C268.726 375.443 275.196 369.456 279.999 365.159C282.4 363.01 284.385 361.283 285.77 360.092C286.463 359.497 287.006 359.036 287.376 358.724C287.56 358.567 287.702 358.448 287.798 358.368C287.846 358.328 287.882 358.298 287.906 358.277C287.919 358.267 287.928 358.259 287.934 358.254C287.937 358.251 287.94 358.249 287.941 358.248C287.942 358.247 287.943 358.247 287.943 358.247C287.944 358.246 287.944 358.246 288.405 358.759ZM232.673 425.084C231.11 431.122 230.363 441.198 230.135 452.979C229.907 464.74 230.196 478.135 230.683 490.773C231.171 503.409 231.856 515.282 232.419 523.996C232.701 528.352 232.952 531.919 233.133 534.396C233.224 535.635 233.296 536.601 233.347 537.258C233.372 537.586 233.391 537.837 233.404 538.005C233.411 538.09 233.416 538.153 233.419 538.196C233.421 538.217 233.422 538.233 233.423 538.244C233.423 538.249 233.424 538.253 233.424 538.256C233.424 538.257 233.424 538.258 233.424 538.259C233.424 538.26 233.424 538.26 232.712 538.326C232.001 538.393 232.001 538.392 232.001 538.392C232 538.391 232 538.39 232 538.389C232 538.386 232 538.382 231.999 538.376C231.998 538.365 231.997 538.349 231.995 538.328C231.992 538.285 231.987 538.221 231.98 538.136C231.967 537.967 231.948 537.715 231.923 537.386C231.872 536.729 231.799 535.761 231.709 534.521C231.528 532.04 231.276 528.47 230.994 524.109C230.43 515.388 229.744 503.503 229.257 490.852C228.769 478.202 228.479 464.779 228.707 452.983C228.936 441.207 229.681 430.987 231.287 424.781L232.673 425.084Z" fill="black"/>
<path fill-rule="evenodd" clip-rule="evenodd" d="M299.661 219.598C297.615 218.887 295.667 217.849 293.89 216.409C280.476 205.535 286.256 189.164 294.394 180.647C302.533 172.13 352.245 175.594 328.739 215.068C328.639 215.125 328.537 215.182 328.434 215.24C325.805 223.15 328.007 229.941 330.648 238.09C331.726 241.414 332.877 244.965 333.803 248.909L308.931 247.186C302.107 238.37 299.527 229.489 299.661 219.598Z" fill="#F5B9AB"/>
<path d="M293.89 216.409L294.433 215.779L293.89 216.409ZM299.661 219.598L299.959 218.834C300.285 218.947 300.499 219.248 300.494 219.588L299.661 219.598ZM294.394 180.647L293.791 180.102L294.394 180.647ZM328.739 215.068L329.457 215.461C329.382 215.587 329.274 215.692 329.145 215.765L328.739 215.068ZM328.434 215.24L327.641 215.008C327.707 214.81 327.848 214.641 328.035 214.537L328.434 215.24ZM330.648 238.09L329.853 238.352L329.853 238.352L330.648 238.09ZM333.803 248.909L334.615 248.709C334.675 248.961 334.605 249.23 334.428 249.43C334.251 249.63 333.988 249.737 333.722 249.719L333.803 248.909ZM308.931 247.186L308.85 247.996C308.615 247.98 308.401 247.867 308.261 247.686L308.931 247.186ZM294.433 215.779C296.132 217.157 297.997 218.151 299.959 218.834L299.363 220.363C297.233 219.623 295.201 218.541 293.347 217.038L294.433 215.779ZM294.998 181.191C291.031 185.342 287.649 191.404 286.887 197.718C286.131 203.991 287.955 210.529 294.433 215.779L293.347 217.038C286.411 211.415 284.417 204.331 285.232 197.57C286.042 190.85 289.619 184.469 293.791 180.102L294.998 181.191ZM328.02 214.675C333.836 204.909 335.034 197.517 333.625 192.056C332.219 186.61 328.171 182.899 323.067 180.599C317.955 178.295 311.849 177.44 306.518 177.691C303.856 177.817 301.412 178.217 299.403 178.835C297.376 179.458 295.87 180.278 294.998 181.191L293.791 180.102C294.953 178.886 296.781 177.952 298.939 177.288C301.114 176.62 303.706 176.201 306.481 176.071C312.026 175.809 318.405 176.691 323.799 179.123C329.202 181.558 333.683 185.583 335.242 191.622C336.797 197.646 335.394 205.49 329.457 215.461L328.02 214.675ZM328.035 214.537C328.136 214.481 328.235 214.426 328.332 214.37L329.145 215.765C329.043 215.824 328.938 215.883 328.832 215.942L328.035 214.537ZM329.853 238.352C327.224 230.242 324.918 223.204 327.641 215.008L329.226 215.471C326.692 223.095 328.79 229.641 331.443 237.827L329.853 238.352ZM332.99 249.11C332.072 245.201 330.931 241.68 329.853 238.352L331.443 237.827C332.52 241.149 333.681 244.729 334.615 248.709L332.99 249.11ZM309.012 246.377L333.883 248.1L333.722 249.719L308.85 247.996L309.012 246.377ZM300.494 219.588C300.363 229.31 302.891 238.018 309.601 246.687L308.261 247.686C301.324 238.723 298.691 229.668 298.828 219.609L300.494 219.588Z" fill="black"/>
<path d="M333.23 191.214C337.116 196.358 332.906 209.044 329.809 212.214C355.458 198.752 339.272 168.283 331.356 173.826C330.083 162.567 316.476 158.578 307.183 168.087C283.942 150.229 282.677 180.606 290.883 185.236C299.088 189.867 309.057 185.48 314.224 187.869C319.392 190.257 322.563 204.692 324.248 196.685C325.934 188.678 328.374 184.785 333.23 191.214Z" fill="#00ADB5" stroke="black" stroke-width="1.64486"/>
<path d="M285.398 360.686C258.734 343.81 269.752 285.838 273.647 268.863C274.372 265.702 275.451 262.664 276.753 259.689C286.883 236.534 310.617 218.297 333.851 227.941C387.018 250.009 379.143 324.824 378.606 361.355L285.398 360.686Z" fill="#EEEEEE" stroke="black" stroke-width="1.64486" stroke-linejoin="round"/>
<path d="M204.811 281.416L226.377 256.51L298.864 304.768L322.373 260.01L352.677 304.836C352.677 304.836 319.717 353.272 303.01 351.842C272.562 349.237 204.811 281.416 204.811 281.416Z" fill="#EEEEEE"/>
<path d="M320.762 263.276L299.07 303.394L226.378 256.511L204.811 281.418C204.811 281.418 268.675 348.814 306.043 352.012C317.804 353.018 352.138 304.351 352.138 304.351" stroke="black" stroke-width="1.64486"/>
<path d="M219.247 252.016L227.747 257.208L206.304 282.918L199.956 278.026C192.616 272.368 191.376 262.163 197.194 255.278C202.512 248.984 211.988 247.583 219.247 252.016Z" fill="#F5B9AB" stroke="black" stroke-width="1.64486" stroke-linejoin="round"/>
<path d="M232.275 535.082L269.068 553.343L262.705 576.096L213.583 547.307L228.046 549.189L232.275 535.082Z" fill="#EEEEEE" stroke="black" stroke-width="1.39887" stroke-linejoin="round"/>
</svg>
