<svg width="41" height="39" viewBox="0 0 41 39" fill="none" xmlns="http://www.w3.org/2000/svg">
<g clip-path="url(#clip0_39_2096)">
<path d="M27.3333 19.4993C27.3333 17.9956 26.7851 16.5384 25.7822 15.376C24.7793 14.2136 23.3837 13.4179 21.8332 13.1245C20.2827 12.8311 18.6732 13.0582 17.279 13.767C15.8848 14.4758 14.792 15.6225 14.187 17.0118C13.5819 18.4011 13.502 19.9469 13.9607 21.3859C14.4195 22.825 15.3887 24.0682 16.703 24.9038C18.0174 25.7393 19.5956 26.1156 21.1689 25.9684C22.7422 25.8212 24.2131 25.1596 25.3312 24.0965C25.9657 23.513 26.4701 22.8138 26.8141 22.0406C27.1581 21.2675 27.3347 20.4364 27.3333 19.5968L27.3316 19.4945L27.3333 19.4993ZM31.0233 19.4993C31.0151 21.8043 30.1675 24.0354 28.6247 25.8129C27.0819 27.5903 24.9393 28.8043 22.5614 29.2483C20.1836 29.6923 17.7175 29.3387 15.5828 28.2479C13.4481 27.1571 11.7768 25.3963 10.8532 23.2653C9.92965 21.1342 9.81092 18.7646 10.5172 16.5597C11.2236 14.3548 12.7113 12.4508 14.7272 11.1718C16.7431 9.8928 19.1627 9.31778 21.5742 9.54462C23.9856 9.77146 26.2399 10.7861 27.9535 12.416C28.9265 13.3141 29.6999 14.3892 30.2275 15.5773C30.7552 16.7654 31.0264 18.0422 31.025 19.332L31.0233 19.5091V19.4993ZM33.9053 9.08959V9.09284C33.9055 9.63422 33.7083 10.1589 33.3474 10.5775C32.9865 10.9961 32.4841 11.2827 31.9259 11.3885C31.3678 11.4943 30.7883 11.4127 30.2863 11.1576C29.7843 10.9026 29.3908 10.4898 29.1728 9.98968C28.9549 9.48957 28.926 8.93304 29.091 8.41493C29.2561 7.89682 29.6049 7.44918 30.0781 7.14829C30.5512 6.8474 31.1194 6.71188 31.6858 6.76482C32.2522 6.81775 32.7818 7.05587 33.1844 7.43859C33.6217 7.84647 33.8933 8.41522 33.8933 9.04409V9.09122L33.9053 9.08959ZM20.512 3.49959L18.4705 3.48659C17.2337 3.47793 16.2946 3.47793 15.6535 3.48659C15.0123 3.49526 14.1535 3.52072 13.0773 3.56297C12.0779 3.59547 11.1298 3.68972 10.2022 3.83922L10.3269 3.82297C9.60083 3.93672 8.95679 4.09922 8.34008 4.31534L8.41354 4.29259C7.5423 4.62574 6.75001 5.12147 6.0834 5.75054C5.41679 6.3796 4.88936 7.12928 4.53221 7.95534L4.51512 7.99922C4.29585 8.57011 4.13341 9.15932 4.02996 9.75909L4.02141 9.81922C3.86947 10.6731 3.77872 11.5358 3.74979 12.4013L3.74808 12.4355C3.70366 13.4603 3.6769 14.2771 3.66779 14.886C3.65868 15.4948 3.65868 16.388 3.66779 17.5656C3.6769 18.7432 3.68146 19.3905 3.68146 19.5075C3.68146 19.6245 3.6769 20.2718 3.66779 21.4493C3.65868 22.6269 3.65868 23.5201 3.66779 24.129C3.6769 24.7378 3.70366 25.5546 3.74808 26.5795C3.78225 27.5301 3.88133 28.432 4.0385 29.3143L4.02141 29.1957C4.141 29.8863 4.31183 30.499 4.53904 31.0856L4.51512 31.0157C4.86535 31.8445 5.3865 32.5981 6.04783 33.2322C6.70916 33.8663 7.49728 34.368 8.36571 34.7077L8.41183 34.724C8.95508 34.9173 9.59912 35.0798 10.262 35.1855L10.3252 35.1936C11.1264 35.3268 12.0745 35.4211 13.038 35.452L13.0739 35.4536C14.1513 35.4958 15.01 35.5213 15.65 35.53C16.2901 35.5386 17.2291 35.5386 18.4671 35.53L20.4966 35.491L22.538 35.504C23.7749 35.5126 24.7139 35.5126 25.3551 35.504C25.9963 35.4953 26.855 35.4698 27.9312 35.4276C28.9306 35.3951 29.8787 35.3008 30.8064 35.1513L30.6817 35.1676C31.4077 35.0538 32.0517 34.8913 32.6685 34.6752L32.595 34.698C33.4662 34.3648 34.2585 33.8691 34.9251 33.24C35.5917 32.611 36.1192 31.8613 36.4763 31.0352L36.4934 30.9913C36.6967 30.4746 36.8675 29.862 36.9786 29.2315L36.9871 29.1713C37.1272 28.4092 37.2263 27.5073 37.2587 26.5908L37.2605 26.5567C37.3049 25.5319 37.3316 24.7151 37.3407 24.1062C37.3499 23.4974 37.3499 22.6042 37.3407 21.4266C37.3316 20.249 37.3271 19.6017 37.3271 19.4847C37.3271 19.3677 37.3316 18.7204 37.3407 17.5428C37.3499 16.3653 37.3499 15.4721 37.3407 14.8632C37.3316 14.2544 37.3049 13.4376 37.2605 12.4127C37.2263 11.4621 37.1272 10.5602 36.97 9.67784L36.9871 9.79647C36.8788 9.15216 36.7054 8.51929 36.4695 7.90659L36.4934 7.97647C36.1432 7.14773 35.622 6.39409 34.9607 5.75999C34.2994 5.1259 33.5113 4.6242 32.6428 4.28447L32.5967 4.26822C31.9965 4.05964 31.3771 3.90513 30.7466 3.80672L30.6834 3.79859C29.7863 3.65413 28.8799 3.56781 27.9705 3.54022L27.9347 3.53859C26.8573 3.49634 25.9986 3.47089 25.3585 3.46222C24.7184 3.45355 23.7794 3.45355 22.5415 3.46222L20.512 3.49959ZM41 19.4993C41 23.3755 40.9544 26.0584 40.8633 27.548C40.9441 29.0576 40.6905 30.5665 40.119 31.9769C39.5475 33.3873 38.6708 34.6677 37.5458 35.7353C36.4208 36.8028 35.0726 37.6335 33.5884 38.1737C32.1043 38.7139 30.5174 38.9515 28.9306 38.871L28.958 38.8726C27.392 38.9593 24.5715 39.0026 20.4966 39.0026C16.4216 39.0026 13.6012 38.9593 12.0352 38.8726C10.4482 38.9494 8.86192 38.7082 7.37919 38.1646C5.89645 37.6209 4.55033 36.787 3.42806 35.7169C2.3058 34.6468 1.43242 33.3643 0.864534 31.9526C0.296648 30.5408 0.0469217 29.0314 0.131539 27.522L0.129831 27.548C0.0387196 26.0584 -0.00683594 23.3755 -0.00683594 19.4993C-0.00683594 15.6232 0.0387196 12.9403 0.129831 11.4507C0.0490803 9.94112 0.302672 8.43223 0.874174 7.02182C1.44568 5.61141 2.32233 4.33096 3.44734 3.26344C4.57234 2.19591 5.9206 1.36514 7.40472 0.824958C8.88885 0.284773 10.4757 0.0472291 12.0625 0.127719L12.0352 0.126094C13.6012 0.0394271 16.4216 -0.00390625 20.4966 -0.00390625C24.5715 -0.00390625 27.392 0.0394271 28.958 0.126094C30.545 0.0492824 32.1312 0.290504 33.614 0.834127C35.0967 1.37775 36.4428 2.21165 37.5651 3.28177C38.6874 4.3519 39.5607 5.63438 40.1286 7.04611C40.6965 8.45784 40.9462 9.96731 40.8616 11.4767L40.8633 11.4507C40.9544 12.9392 41 15.6221 41 19.4993Z" fill="#0076FF"/>
</g>
<defs>
<clipPath id="clip0_39_2096">
<rect width="41" height="39" fill="white"/>
</clipPath>
</defs>
</svg>
