<svg width="50" height="50" viewBox="0 0 50 50" fill="none" xmlns="http://www.w3.org/2000/svg">
<rect width="50" height="50" rx="7" fill="#E0E4E9"/>
<g clip-path="url(#clip0_561_3)">
<path d="M32.2231 34.1706V31.9484C32.2231 30.7696 31.7548 29.6391 30.9213 28.8057C30.0878 27.9722 28.9574 27.5039 27.7786 27.5039H18.8898C17.711 27.5039 16.5806 27.9722 15.7471 28.8057C14.9136 29.6391 14.4453 30.7696 14.4453 31.9484V34.1706" fill="#0056B7"/>
<path d="M32.2231 34.1706V31.9484C32.2231 30.7696 31.7548 29.6391 30.9213 28.8057C30.0878 27.9722 28.9574 27.5039 27.7786 27.5039H18.8898C17.711 27.5039 16.5806 27.9722 15.7471 28.8057C14.9136 29.6391 14.4453 30.7696 14.4453 31.9484V34.1706" stroke="#0056B7" stroke-width="2" stroke-linecap="round" stroke-linejoin="round"/>
<path d="M23.3341 23.0569C25.7887 23.0569 27.7785 21.067 27.7785 18.6124C27.7785 16.1578 25.7887 14.168 23.3341 14.168C20.8795 14.168 18.8896 16.1578 18.8896 18.6124C18.8896 21.067 20.8795 23.0569 23.3341 23.0569Z" fill="#0056B7" stroke="#0056B7" stroke-width="2" stroke-linecap="round" stroke-linejoin="round"/>
<path d="M38.89 34.1668V31.9445C38.8892 30.9598 38.5615 30.0032 37.9582 29.2249C37.3548 28.4466 36.5101 27.8907 35.5566 27.6445" stroke="#0056B7" stroke-width="2" stroke-linecap="round" stroke-linejoin="round"/>
<path d="M31.1113 14.3125C32.0673 14.5573 32.9147 15.1133 33.5198 15.8928C34.1249 16.6724 34.4534 17.6312 34.4534 18.6181C34.4534 19.6049 34.1249 20.5637 33.5198 21.3433C32.9147 22.1228 32.0673 22.6788 31.1113 22.9236" stroke="#0056B7" stroke-width="2" stroke-linecap="round" stroke-linejoin="round"/>
<rect x="14.167" y="33.3359" width="18.3333" height="1.66667" fill="#0056B7"/>
</g>
<defs>
<clipPath id="clip0_561_3">
<rect width="26.6667" height="26.6667" fill="white" transform="translate(13.334 10.8359)"/>
</clipPath>
</defs>
</svg>
