<svg width="195" height="269" viewBox="0 0 195 269" fill="none" xmlns="http://www.w3.org/2000/svg">
<path d="M115.583 265.786L146.743 247.782C149.954 245.923 151.56 243.495 151.56 241.066C151.56 238.638 151.56 236.728 151.56 236.728L122.23 220.096C121.328 219.506 120.578 218.711 120.039 217.778C119.501 216.844 119.189 215.797 119.13 214.721V176.316L64.7275 207.762V246.167C64.7796 247.237 65.0827 248.281 65.6123 249.212C66.1419 250.144 66.8832 250.939 67.7764 251.531L92.2692 265.755C98.743 269.494 109.16 269.494 115.583 265.786Z" fill="#37474F"/>
<path d="M77.7873 252.964V257.282L67.8175 251.531C66.9158 250.941 66.1655 250.147 65.6271 249.213C65.0887 248.279 64.7772 247.232 64.7178 246.156V207.762L75.084 201.777C75.3076 204.409 75.5312 207.132 75.7548 209.783L68.4781 213.99V243.992C68.527 245.065 68.8287 246.111 69.3585 247.045C69.8883 247.979 70.6313 248.774 71.527 249.367L77.7873 252.964Z" fill="#263238"/>
<path d="M68.4785 244.004C68.5322 245.076 68.8359 246.12 69.3653 247.053C69.8947 247.986 70.6351 248.783 71.5274 249.379L92.2599 261.459C98.693 265.168 109.11 265.168 115.533 261.459L146.703 243.456C153.136 239.747 153.136 233.732 146.703 230.024L125.95 217.934C125.046 217.345 124.294 216.552 123.755 215.618C123.217 214.684 122.907 213.636 122.85 212.559V182.566L68.4785 213.991V244.004Z" fill="#455A64"/>
<path opacity="0.15" d="M132.322 221.581L126.011 217.934C125.107 217.345 124.355 216.552 123.816 215.618C123.278 214.684 122.968 213.636 122.911 212.559V182.566L68.4785 213.991V244.004C68.5322 245.076 68.8359 246.12 69.3653 247.053C69.8947 247.986 70.6351 248.783 71.5274 249.379L77.737 252.955L132.322 221.581Z" fill="#103E13"/>
<path d="M3.63831 267.687C4.81504 268.256 6.10905 268.539 7.41559 268.514C8.72214 268.489 10.0045 268.157 11.1589 267.545C37.918 252.102 163.471 179.63 190.23 164.197C191.357 163.459 192.294 162.467 192.967 161.3C193.639 160.134 194.028 158.826 194.102 157.481V7.56982C194.156 6.2421 193.846 4.92496 193.204 3.76138C192.562 2.5978 191.613 1.63221 190.461 0.969443C189.309 0.306671 187.997 -0.0279744 186.669 0.00183059C185.34 0.0316355 184.044 0.424753 182.923 1.13851L3.88222 104.487C2.7633 105.229 1.83393 106.223 1.16858 107.389C0.503224 108.556 0.120399 109.862 0.0507812 111.202V261.114C0.0941503 262.413 0.441198 263.685 1.06415 264.826C1.68711 265.968 2.56868 266.948 3.63831 267.687Z" fill="#37474F"/>
<path d="M11.1592 267.544L190.231 164.186C191.359 163.45 192.297 162.458 192.97 161.291C193.643 160.124 194.031 158.815 194.103 157.47V7.56879C194.103 5.08974 192.365 4.09405 190.231 5.33358L11.1592 108.682C10.0311 109.418 9.09253 110.41 8.41974 111.576C7.74696 112.743 7.35893 114.052 7.28715 115.397V265.309C7.27699 267.778 9.01486 268.773 11.1592 267.544Z" fill="#455A64"/>
<path d="M12.4092 247.224V117.176C12.4542 116.35 12.6929 115.546 13.106 114.83C13.5192 114.113 14.0951 113.504 14.7873 113.051L186.592 13.8887C187.903 13.1267 188.97 13.7465 188.97 15.2603V145.309C188.926 146.137 188.686 146.944 188.271 147.662C187.856 148.381 187.278 148.991 186.582 149.444L14.7873 248.606C13.4763 249.358 12.4092 248.748 12.4092 247.224Z" fill="#4CAF4F"/>
<path opacity="0.75" d="M12.4092 247.224V117.176C12.4542 116.35 12.6929 115.546 13.106 114.83C13.5192 114.113 14.0951 113.504 14.7873 113.051L186.592 13.8887C187.903 13.1267 188.97 13.7465 188.97 15.2603V145.309C188.926 146.137 188.686 146.944 188.271 147.662C187.856 148.381 187.278 148.991 186.582 149.444L14.7873 248.606C13.4763 249.358 12.4092 248.748 12.4092 247.224Z" fill="white"/>
<path d="M1.14841 107.383L8.4251 111.579C7.73118 112.741 7.33658 114.057 7.27668 115.409V265.311C7.27668 267.566 8.81129 268.826 11.1589 267.546C10.0069 268.165 8.72371 268.501 7.41584 268.526C6.10797 268.551 4.81304 268.263 3.63834 267.688C2.57416 267.053 1.68455 266.163 1.04947 265.099C0.414401 264.035 0.0537705 262.83 0 261.592L0 111.223C0.0513055 109.867 0.446463 108.545 1.14841 107.383Z" fill="#263238"/>
<path d="M92.7773 210.101L108.601 200.957C109.394 200.51 110.024 200.825 110.024 201.678C109.988 202.155 109.841 202.617 109.594 203.026C109.347 203.436 109.007 203.781 108.601 204.035L92.7773 213.179C91.9948 213.636 91.3545 213.311 91.3545 212.468C91.3885 211.989 91.5351 211.525 91.7823 211.114C92.0296 210.703 92.3705 210.355 92.7773 210.101Z" fill="#4CAF4F"/>
</svg>
