<svg width="357" height="284" viewBox="0 0 357 284" fill="none" xmlns="http://www.w3.org/2000/svg">
<path d="M184.384 265.305C278.944 265.305 355.601 260.83 355.601 255.309C355.601 249.788 278.944 245.313 184.384 245.313C89.8228 245.313 13.166 249.788 13.166 255.309C13.166 260.83 89.8228 265.305 184.384 265.305Z" fill="#F5F5F5"/>
<path d="M224.463 236.986C225.259 238.367 225.666 239.938 225.641 241.532C225.644 242.926 224.908 244.776 225.451 247.891C225.994 251.006 226.767 251.962 227.22 254.156C227.471 255.16 227.519 256.204 227.362 257.228C227.205 258.251 226.846 259.233 226.306 260.116C225.119 262.295 222.347 264.122 216.673 264.221C212.098 264.302 210.126 262.057 209.881 259.374L224.463 236.986Z" fill="#263238"/>
<path d="M222.819 230.582C222.991 231.157 223.114 231.746 223.188 232.342C223.417 233.399 223.783 234.346 224.095 235.418C224.18 235.688 224.256 235.959 224.331 236.229C224.88 238.306 224.559 240.501 224.673 242.641C224.983 245.161 225.562 247.641 226.4 250.038C227.652 254.427 227.983 257.391 224.26 260.672C222.317 262.404 220.056 262.575 217.462 262.784C215.468 262.96 213.463 262.589 211.665 261.71C209.935 260.571 209.9 259.535 209.869 259.14C209.465 254.43 210.878 248.85 210.972 244.124C211.033 242.85 210.992 241.573 210.85 240.305C210.604 238.752 209.983 237.228 209.727 235.665C209.575 235.085 209.617 234.471 209.848 233.918C210.094 233.606 210.405 233.35 210.759 233.168C211.112 232.986 211.501 232.882 211.898 232.863C213.913 232.481 216.013 232.165 218.086 231.902C218.57 231.783 219.082 231.858 219.512 232.111C219.937 232.455 219.982 233.103 220.12 233.595C220.258 234.086 220.678 234.704 221.189 234.555C221.357 234.491 221.502 234.378 221.607 234.231C221.711 234.085 221.77 233.91 221.776 233.73C221.808 233.383 221.817 230.676 221.785 230.281C221.827 230.299 222.552 230.148 222.819 230.582Z" fill="#37474F"/>
<path d="M154.927 249.901C154.637 250.752 154.687 251.683 155.065 252.498C155.441 253.251 159.436 255.44 164.777 255.033C168.728 254.695 172.518 253.314 175.759 251.029C177.772 249.65 179.895 249.374 182.541 249.182C185.187 248.99 188.241 247.861 189.081 246.626C189.359 245.445 189.293 244.209 188.891 243.065L154.927 249.901Z" fill="#263238"/>
<path d="M173.448 233.071C173.263 233.464 173.101 233.866 172.963 234.277C172.384 235.762 171.439 237.076 170.215 238.097C168.438 239.471 166.514 240.645 164.478 241.597C163.19 242.256 161.819 242.492 160.484 243.031C159.002 243.594 157.584 244.31 156.252 245.169C154.171 246.603 153.954 250.165 156.358 251.543C158.456 252.723 163.886 253.97 169.556 252.285C172.652 251.367 176.045 248.001 180.118 247.652C182.701 247.423 187.595 246.633 189.239 244.643C189.728 241.778 188.985 241.014 188.276 238.589C187.894 237.247 187.657 235.868 187.568 234.476C187.529 233.745 187.904 231.619 186.391 231.486L186.322 233.067C186.322 233.067 186.056 233.61 184.468 233.98C183.955 234.099 183.585 234.8 183.344 235.433C183.103 236.067 182.956 236.553 182.387 236.573C182.209 236.558 182.037 236.495 181.891 236.392C181.744 236.289 181.627 236.149 181.552 235.987C181.412 235.663 181.296 235.329 181.204 234.988C180.969 234.446 180.619 233.962 180.178 233.569C179.737 233.176 179.216 232.884 178.65 232.713C177.713 232.451 176.749 232.301 175.777 232.265C175.04 232.193 174.414 231.911 173.758 232.577C173.633 232.727 173.529 232.894 173.448 233.071Z" fill="#37474F"/>
<path d="M208.657 110.18C210.497 125.618 211.516 134.609 216.54 176.738C218.964 183.865 220.655 191.22 221.587 198.69C222.634 208.015 225.465 236.129 225.465 236.129C225.465 236.129 218.255 242.719 209.405 240.322C209.405 240.322 199.301 199.308 195.852 186.529C192.552 174.262 189.799 160.805 189.799 160.805L188.763 178.218C188.763 178.218 189.519 185.9 189.888 197.408C190.093 203.563 188.944 236.997 188.944 236.997C188.944 236.997 178.615 242.37 171.142 236.572C171.142 236.572 167.748 182.635 167.34 177.081C166.88 170.736 164.613 106.809 164.613 106.809L208.657 110.18Z" fill="#455A64"/>
<path d="M189.759 160.817L182.84 132.768C182.84 132.768 174.439 132.483 169.572 128.062C169.572 128.062 170.638 132.594 181.298 134.773L187.915 160.589L188.763 178.217L189.759 160.817Z" fill="#37474F"/>
<path d="M224.951 231.061C221.885 234.015 217.83 235.725 213.574 235.859C213.574 235.859 220.722 234.399 224.792 229.421L224.951 231.061Z" fill="#37474F"/>
<path d="M189.07 233.053C189.07 233.053 181.829 236.023 175.503 234.386C175.503 234.386 180.475 237.357 189.021 234.246L189.07 233.053Z" fill="#37474F"/>
<path d="M101.704 58.0677C101.639 57.8281 101.523 57.6053 101.364 57.4143C101.081 56.9601 100.923 56.4393 100.905 55.9045C100.887 55.3696 101.01 54.8395 101.263 54.3674C101.43 54.1344 101.567 53.8809 101.67 53.6131C101.843 53.0443 101.556 52.4288 101.575 51.8275C101.615 49.1495 106.508 50.0588 108.067 50.4641C108.521 50.5925 111.155 51.1236 112.189 51.4246C112.02 49.9652 112.086 48.4882 112.383 47.0494C112.926 44.2429 115.224 44.4053 115.446 46.0926C115.654 47.6198 116.02 49.1211 116.54 50.5721C116.882 51.6425 117.67 52.679 118.172 54.2599C118.879 56.2571 118.787 57.4015 120.918 59.2007C124.116 61.9097 140.309 71.6689 140.309 71.6689C144.073 68.9552 158.659 58.8784 164.149 55.5131C169.46 52.2489 172.379 54.4946 172.379 54.4946L168.545 72.3109C168.545 72.3109 150.256 83.0123 143.635 86.3361C139.014 88.6173 136.863 87.5924 131.399 83.2237C127.05 79.5282 121.288 74.1579 115.114 69.2572C112.648 67.2927 110.886 66.3183 109.217 66.3258C108.588 66.3593 107.955 66.3219 107.333 66.294C105.924 66.2063 104.261 65.9489 103.507 64.5952C103.249 64.141 103.108 63.599 102.89 63.1426C102.556 62.4075 102.054 61.7628 101.76 61.0255C101.524 60.5335 101.425 59.9871 101.472 59.4435C101.449 59.0072 101.791 58.5515 101.704 58.0677Z" fill="#E8F5E9"/>
<path d="M173.302 53.0924C168.492 53.3487 166.625 53.4482 160.7 57.2436C154.775 61.039 143.281 69.5572 143.281 69.5572C143.281 69.5572 148.778 72.2453 150.406 82.74L169.206 72.6625L173.302 53.0924Z" fill="#455A64"/>
<path d="M110.419 53.1339C112.032 53.4345 112.583 54.4124 112.814 56.6487C112.946 57.9745 113.633 60.3696 115.193 61.1717C114.491 61.1837 113.803 60.9827 113.218 60.5952C112.452 59.9747 112.256 59.9241 111.924 60.3691C111.676 60.6692 111.361 60.9057 111.004 61.0591C111.279 61.3066 111.467 61.6363 111.539 61.9991C111.612 62.3619 111.565 62.7384 111.406 63.0726C110.851 64.3028 107.748 64.7022 105.048 63.6963C105.048 63.6963 109.334 64.4854 110.103 63.0607C110.872 61.636 108.518 60.2555 106.887 60.0067C106.887 60.0067 110.983 60.4702 111.438 59.0927C111.894 57.7152 110.122 56.9244 107.704 56.6158C107.704 56.6158 111.073 56.8127 111.498 55.62C111.655 55.1455 111.632 54.6295 111.433 54.1709C111.234 53.7122 110.873 53.343 110.419 53.1339Z" fill="#C8E6C9"/>
<path d="M140.271 71.6983C142.457 72.9955 144.199 74.9247 145.267 77.2315C145.267 77.2315 145.365 72.7597 141.584 70.7635L140.271 71.6983Z" fill="#C8E6C9"/>
<path d="M162.129 71.0836C162.091 59.1102 166.645 54.0347 173.301 53.0898L188.277 51.2743C192.387 52.0015 203.05 53.4681 203.05 53.4681C207.493 54.5438 211.176 65.7836 210.497 72.3315C209.818 78.8793 207.941 83.9445 207.924 94.9033C208.648 105.243 208.91 107.284 209.126 111.342C200.096 117.776 175.054 120.351 164.862 114.922C164.862 114.922 164.156 104.928 163.614 98.5671C162.687 87.6586 162.145 75.2034 162.129 71.0836Z" fill="#4CAF4F"/>
<path d="M163.377 20.2177C162.791 20.5948 162.318 21.123 162.007 21.7467C161.697 22.3703 161.56 23.0661 161.612 23.7609C161.644 24.8038 161.996 25.8117 162.621 26.6475C163.555 27.7062 164.808 28.4323 166.191 28.716C166.787 28.8253 167.371 28.9883 167.937 29.2029C168.652 29.6573 169.327 30.1728 169.953 30.7437C170.914 31.4047 171.867 32.0865 172.847 32.7261C174.793 34.0236 176.817 35.2001 178.907 36.2491C180.916 37.2609 183.004 38.1092 185.149 38.7857C187.415 39.489 189.214 38.6708 191.6 38.7573L191.598 45.208C191.598 45.208 192.31 43.6845 193.119 41.8711C193.82 40.3076 196.685 32.3816 196.685 32.3816C197.801 29.2698 199.255 25.9975 198.881 22.609C198.572 19.8682 197.896 17.4827 195.743 16.4274C195.402 13.2711 194.599 11.7674 192.286 10.1915C190.587 9.17033 188.666 8.57459 186.687 8.45497C184.452 8.31687 182.209 8.51531 180.032 9.04366C176.772 9.74647 173.529 10.7638 170.191 10.7687C168.402 10.674 166.61 10.883 164.891 11.3869C163.804 11.8044 162.882 12.5621 162.261 13.5469C161.64 14.5317 161.355 15.6907 161.447 16.851C161.44 18.0621 162.511 19.9993 163.377 20.2177Z" fill="#37474F"/>
<path d="M184.246 19.9291C184.354 21.9582 186.375 24.7299 189.348 27.054C189.113 28.9496 189.267 30.8734 189.802 32.7072C190.007 33.275 190.304 33.8056 190.68 34.2781C190.82 34.4768 191.003 34.6416 191.216 34.7605C191.428 34.8794 191.664 34.9495 191.907 34.9656C192.567 34.9305 192.812 34.5715 192.988 34.0432C193.252 33.3717 193.557 32.7166 193.901 32.0817C194.054 31.8103 194.235 31.5552 194.44 31.3204C195.406 30.3431 198.28 29.0809 199.817 32.1328C201.353 35.1846 199.021 39.745 196.682 40.531C192.683 41.8938 191.611 39.1529 191.611 39.1529L192.404 52.6834C191.439 56.1738 185.264 59.8503 180.113 59.4431C174.962 59.0359 176.422 55.8651 178.391 53.6643L177.876 48.9809C176.065 49.2583 174.225 49.288 172.406 49.069C170.263 48.7762 168.411 46.8806 167.356 43.6912C165.621 37.5999 165.074 31.2318 165.746 24.9339C166.314 21.0781 167.17 19.3842 167.603 18.9134C167.647 19.7454 169.376 22.207 173.537 22.555C177.934 22.9515 181.169 21.3954 184.246 19.9291Z" fill="#E8F5E9"/>
<path d="M177.857 49.0028C181.614 48.4566 184.651 47.7758 186.72 46.4955C188.239 45.5904 189.452 42.9516 189.809 42.0169C189.809 42.0169 189.895 45.5327 187.898 47.5926C185.081 50.5 178.069 50.8737 178.069 50.8737L177.857 49.0028Z" fill="#C8E6C9"/>
<path d="M178.918 31.669C178.935 31.9372 179.03 32.1945 179.191 32.4093C179.353 32.624 179.574 32.7865 179.827 32.8768C180.08 32.9671 180.354 32.981 180.615 32.917C180.876 32.8529 181.112 32.7136 181.295 32.5165C181.477 32.3193 181.598 32.0729 181.642 31.8078C181.685 31.5427 181.65 31.2707 181.54 31.0254C181.431 30.7801 181.252 30.5724 181.025 30.4281C180.798 30.2838 180.534 30.2091 180.266 30.2135C180.081 30.2206 179.901 30.2639 179.733 30.3409C179.566 30.4179 179.415 30.5271 179.29 30.6623C179.165 30.7974 179.068 30.9559 179.004 31.1286C178.94 31.3014 178.911 31.485 178.918 31.669Z" fill="#263238"/>
<path d="M179.177 27.1703L182.568 28.3631C182.717 27.901 182.681 27.3994 182.468 26.9631C182.255 26.5269 181.882 26.19 181.426 26.0228C181.203 25.9453 180.967 25.9136 180.732 25.9297C180.496 25.9458 180.266 26.0094 180.056 26.1166C179.846 26.2238 179.66 26.3724 179.509 26.5535C179.358 26.7346 179.245 26.9444 179.177 27.1703Z" fill="#263238"/>
<path d="M181.107 38.96L176.141 41.2596C176.28 41.5934 176.484 41.8956 176.743 42.1481C177.002 42.4005 177.309 42.5979 177.646 42.7283C177.983 42.8587 178.343 42.9194 178.704 42.9067C179.065 42.8941 179.42 42.8083 179.747 42.6546C180.405 42.331 180.913 41.7669 181.166 41.0792C181.419 40.3915 181.398 39.6327 181.107 38.96Z" fill="#388E3B"/>
<path d="M178.344 42.6768C178.344 42.7615 178.349 42.8462 178.358 42.9305C178.838 42.9819 179.323 42.8997 179.76 42.6929C180.26 42.4469 180.675 42.0583 180.954 41.5762C181.232 41.094 181.362 40.5401 181.325 39.9845C181.143 39.9538 180.959 39.9432 180.774 39.9528C180.092 39.9946 179.453 40.3043 178.998 40.8146C178.543 41.3248 178.308 41.9942 178.344 42.6768Z" fill="#C8E6C9"/>
<path d="M166.824 29.1185L170.034 27.6756C169.947 27.4644 169.819 27.2729 169.656 27.1127C169.493 26.9524 169.3 26.8267 169.087 26.743C168.874 26.6594 168.647 26.6194 168.419 26.6257C168.19 26.632 167.966 26.6842 167.758 26.7794C167.325 26.9674 166.984 27.3187 166.809 27.7568C166.634 28.1949 166.64 28.6843 166.824 29.1185Z" fill="#263238"/>
<path d="M167.82 31.9644C167.819 32.1492 167.855 32.3324 167.926 32.5033C167.996 32.6741 168.1 32.8292 168.231 32.9596C168.362 33.0899 168.518 33.1929 168.689 33.2624C168.86 33.332 169.044 33.3667 169.228 33.3646C169.514 33.3696 169.795 33.2889 170.034 33.1331C170.274 32.9773 170.462 32.7534 170.573 32.4902C170.684 32.227 170.714 31.9366 170.659 31.6562C170.604 31.3758 170.466 31.1182 170.264 30.9167C170.061 30.7152 169.803 30.5788 169.522 30.5252C169.241 30.4716 168.951 30.5031 168.688 30.6157C168.426 30.7284 168.203 30.917 168.048 31.1573C167.893 31.3976 167.814 31.6787 167.82 31.9644Z" fill="#263238"/>
<path d="M175.481 38.5884L170.376 37.9041L174.715 29.5739L175.481 38.5884Z" fill="#C8E6C9"/>
<path d="M203.936 53.6642C210.317 54.4229 214.251 56.2482 216.141 61.1533C218.823 68.1325 226.339 87.9079 228.05 94.9897C229.096 99.3395 230.513 102.052 226.942 105.142C218.409 112.035 209.455 118.391 200.132 124.172C191.924 129.046 179.224 130.598 179.224 130.598L188.171 124.515L189.648 121.292L213.193 98.091L202.387 71.0128C202.387 71.0128 199.277 56.9648 203.936 53.6642Z" fill="#E8F5E9"/>
<path d="M213.194 98.0912C215.147 96.9499 217.346 96.2952 219.606 96.1826C219.606 96.1826 217.313 94.4124 212.573 96.5575L213.194 98.0912Z" fill="#C8E6C9"/>
<path d="M203.05 53.469C205.971 53.8526 209.184 53.9968 212.227 55.7067C215.269 57.4167 215.928 59.6505 218.562 66.4999C221.197 73.3494 224.414 83.4847 224.414 83.4847C224.414 83.4847 219.123 88.4673 209.59 89.1076C209.59 89.1076 204.196 76.3208 202.885 73.4808C201.573 70.6408 198.162 61.4418 203.05 53.469Z" fill="#455A64"/>
<path d="M196.199 116.641L196.245 117.513C196.278 117.943 196.196 118.374 196.01 118.762C195.823 119.151 195.538 119.483 195.182 119.727L172.89 134.935C172.528 135.165 172.113 135.297 171.684 135.32C171.256 135.343 170.829 135.255 170.445 135.066L125.783 113.617C125.397 113.427 125.066 113.139 124.824 112.783C124.582 112.427 124.437 112.014 124.402 111.585L124.371 110.996L171.572 133.693L196.199 116.641Z" fill="#4CAF4F"/>
<g opacity="0.5">
<path opacity="0.5" d="M196.199 116.641L196.245 117.513C196.278 117.943 196.196 118.374 196.01 118.762C195.823 119.151 195.538 119.483 195.182 119.727L172.89 134.935C172.528 135.165 172.113 135.297 171.684 135.32C171.256 135.343 170.829 135.255 170.445 135.066L125.783 113.617C125.397 113.427 125.066 113.139 124.824 112.783C124.582 112.427 124.437 112.014 124.402 111.585L124.371 110.996L171.572 133.693L196.199 116.641Z" fill="white"/>
</g>
<g opacity="0.1">
<path opacity="0.1" d="M196.199 116.641L196.245 117.513C196.278 117.943 196.196 118.374 196.01 118.762C195.823 119.151 195.538 119.483 195.182 119.727L172.89 134.935C172.528 135.165 172.113 135.297 171.684 135.32C171.256 135.343 170.829 135.255 170.445 135.066L125.783 113.617C125.397 113.427 125.066 113.139 124.824 112.783C124.582 112.427 124.437 112.014 124.402 111.585L124.371 110.996L171.572 133.693L196.199 116.641Z" fill="#103E13"/>
</g>
<path d="M124.361 110.999L148.628 94.4437C148.843 94.3046 149.092 94.2242 149.348 94.2106C149.604 94.1969 149.86 94.2504 150.089 94.3658L196.047 116.457C196.097 116.484 196.139 116.522 196.169 116.57C196.2 116.617 196.217 116.672 196.22 116.728C196.223 116.784 196.212 116.84 196.186 116.891C196.161 116.941 196.123 116.984 196.076 117.015L171.575 133.735L124.361 110.999Z" fill="#4CAF4F"/>
<g opacity="0.85">
<path opacity="0.85" d="M124.361 110.999L148.628 94.4437C148.843 94.3046 149.092 94.2242 149.348 94.2106C149.604 94.1969 149.86 94.2504 150.089 94.3658L196.047 116.457C196.097 116.484 196.139 116.522 196.169 116.57C196.2 116.617 196.217 116.672 196.22 116.728C196.223 116.784 196.212 116.84 196.186 116.891C196.161 116.941 196.123 116.984 196.076 117.015L171.575 133.735L124.361 110.999Z" fill="white"/>
</g>
<path d="M171.222 131.322L184.312 122.393L142.971 102.517L129.807 111.409L171.222 131.322Z" fill="#4CAF4F"/>
<g opacity="0.6">
<path opacity="0.6" d="M171.222 131.322L184.312 122.393L142.971 102.517L129.807 111.409L171.222 131.322Z" fill="white"/>
</g>
<path d="M176.712 109.063L176.467 109.228L170.054 113.609L157.604 107.619L157.343 107.5L164.001 102.954L176.712 109.063Z" fill="#4CAF4F"/>
<path d="M176.467 109.229L170.054 113.61L157.604 107.619L164.027 103.248L176.467 109.229Z" fill="#4CAF4F"/>
<g opacity="0.6">
<path opacity="0.6" d="M176.467 109.229L170.054 113.61L157.604 107.619L164.027 103.248L176.467 109.229Z" fill="white"/>
</g>
<path d="M171.562 133.693L171.649 135.317C171.221 135.354 170.791 135.275 170.405 135.088L125.783 113.617C125.397 113.427 125.066 113.139 124.824 112.783C124.582 112.427 124.437 112.014 124.402 111.585L124.371 110.996L171.562 133.693Z" fill="#4CAF4F"/>
<g opacity="0.03">
<path opacity="0.03" d="M171.562 133.693L171.649 135.317C171.221 135.354 170.791 135.275 170.405 135.088L125.783 113.617C125.397 113.427 125.066 113.139 124.824 112.783C124.582 112.427 124.437 112.014 124.402 111.585L124.371 110.996L171.562 133.693Z" fill="white"/>
</g>
<g opacity="0.2">
<path opacity="0.2" d="M171.562 133.693L171.649 135.317C171.221 135.354 170.791 135.275 170.405 135.088L125.783 113.617C125.397 113.427 125.066 113.139 124.824 112.783C124.582 112.427 124.437 112.014 124.402 111.585L124.371 110.996L171.562 133.693Z" fill="#103E13"/>
</g>
<path d="M170.903 134.105C170.51 134.294 170.08 134.391 169.644 134.39C169.209 134.388 168.779 134.288 168.388 134.096L123.934 112.718C123.545 112.529 123.202 112.256 122.931 111.918C122.659 111.581 122.466 111.188 122.365 110.767L115.609 83.31C115.586 83.1522 115.578 82.9926 115.584 82.8332C115.553 82.4505 115.6 82.0656 115.72 81.701C115.84 81.3364 116.032 80.9995 116.285 80.7101L162.433 102.934C162.719 103.068 162.971 103.265 163.17 103.51C163.37 103.755 163.512 104.041 163.587 104.348L170.903 134.105Z" fill="#4CAF4F"/>
<g opacity="0.4">
<path opacity="0.4" d="M170.903 134.105C170.51 134.294 170.08 134.391 169.644 134.39C169.209 134.388 168.779 134.288 168.388 134.096L123.934 112.718C123.545 112.529 123.202 112.256 122.931 111.918C122.659 111.581 122.466 111.188 122.365 110.767L115.609 83.31C115.586 83.1522 115.578 82.9926 115.584 82.8332C115.553 82.4505 115.6 82.0656 115.72 81.701C115.84 81.3364 116.032 80.9995 116.285 80.7101L162.433 102.934C162.719 103.068 162.971 103.265 163.17 103.51C163.37 103.755 163.512 104.041 163.587 104.348L170.903 134.105Z" fill="white"/>
</g>
<path d="M171.562 133.696L171.287 133.883C171.165 133.968 171.036 134.042 170.902 134.107L163.589 104.391C163.514 104.084 163.372 103.798 163.172 103.553C162.973 103.308 162.72 103.111 162.435 102.977L116.236 80.7558C116.396 80.5642 116.582 80.3967 116.789 80.2582L163.092 102.515C163.376 102.654 163.626 102.854 163.826 103.1C164.025 103.345 164.169 103.632 164.247 103.938L171.562 133.696Z" fill="#4CAF4F"/>
<g opacity="0.6">
<path opacity="0.6" d="M171.562 133.696L171.287 133.883C171.165 133.968 171.036 134.042 170.902 134.107L163.589 104.391C163.514 104.084 163.372 103.798 163.172 103.553C162.973 103.308 162.72 103.111 162.435 102.977L116.236 80.7558C116.396 80.5642 116.582 80.3967 116.789 80.2582L163.092 102.515C163.376 102.654 163.626 102.854 163.826 103.1C164.025 103.345 164.169 103.632 164.247 103.938L171.562 133.696Z" fill="white"/>
</g>
<path d="M163.124 103.5L163.772 103.058C163.998 103.31 164.161 103.611 164.247 103.938L171.562 133.695L171.287 133.883C171.165 133.967 171.036 134.042 170.902 134.107L163.589 104.391C163.507 104.061 163.348 103.756 163.124 103.5Z" fill="#4CAF4F"/>
<path opacity="0.5" d="M163.124 103.5L163.772 103.058C163.998 103.31 164.161 103.611 164.247 103.938L171.562 133.695L171.287 133.883C171.165 133.967 171.036 134.042 170.902 134.107L163.589 104.391C163.507 104.061 163.348 103.756 163.124 103.5Z" fill="white"/>
<path opacity="0.1" d="M163.124 103.5L163.772 103.058C163.998 103.31 164.161 103.611 164.247 103.938L171.562 133.695L171.287 133.883C171.165 133.967 171.036 134.042 170.902 134.107L163.589 104.391C163.507 104.061 163.348 103.756 163.124 103.5Z" fill="#103E13"/>
<path d="M144.971 110.245C144.126 107.97 142.437 106.107 140.256 105.043C138.115 104.018 136.735 104.661 137.189 106.509C137.644 108.357 139.752 110.666 141.903 111.701C144.055 112.736 145.425 112.083 144.971 110.245Z" fill="#455A64"/>
<path d="M196.91 114.142C194.585 115.965 191.255 114.769 188.068 115.325C184.882 115.881 182.184 116.819 179.602 116.885C177.021 116.952 175.79 117.536 177.706 119.499C179.623 121.463 184.725 120 186.159 120.555C186.57 120.766 186.928 121.069 187.205 121.439C187.482 121.809 187.671 122.238 187.758 122.692C187.845 123.146 187.828 123.614 187.707 124.06C187.586 124.507 187.366 124.92 187.061 125.268C185.643 127.104 195.58 123.176 196.819 121.024C198.058 118.873 198.751 114.308 196.91 114.142Z" fill="#E8F5E9"/>
</svg>
