<svg width="30" height="28" viewBox="0 0 30 28" fill="none" xmlns="http://www.w3.org/2000/svg">
<path d="M9.88958 10.0178H14.6623C14.9248 10.0178 15.1396 9.82178 15.1396 9.58222V6.96889C15.1396 6.72933 14.9248 6.53333 14.6623 6.53333H9.88958C9.62708 6.53333 9.41231 6.72933 9.41231 6.96889V9.58222C9.41231 9.82178 9.62708 10.0178 9.88958 10.0178ZM10.3669 7.40444H14.185V9.14667H10.3669V7.40444ZM5.35549 15.68V16.9867C5.35549 17.2262 5.14071 17.4222 4.87821 17.4222C4.61571 17.4222 4.40094 17.2262 4.40094 16.9867V15.68C4.40094 15.4404 4.61571 15.2444 4.87821 15.2444C5.14071 15.2444 5.35549 15.4404 5.35549 15.68ZM5.35549 12.1956V13.5022C5.35549 13.7418 5.14071 13.9378 4.87821 13.9378C4.61571 13.9378 4.40094 13.7418 4.40094 13.5022V12.1956C4.40094 11.956 4.61571 11.76 4.87821 11.76C5.14071 11.76 5.35549 11.956 5.35549 12.1956ZM22.7759 9.996V9.90889C22.7759 9.88711 22.7759 9.88711 22.7521 9.86533C22.7521 9.84356 22.7282 9.84356 22.7282 9.82178V9.8L20.8191 6.75111V6.72933C20.8191 6.70756 20.7953 6.70756 20.7953 6.68578L20.7714 6.664L20.7475 6.64222L20.7237 6.62045C20.6998 6.62045 20.6998 6.59867 20.6759 6.59867C20.6521 6.59867 20.6521 6.57689 20.6282 6.57689C20.6044 6.57689 20.6044 6.55511 20.5805 6.55511C20.5566 6.55511 20.5566 6.55511 20.5328 6.53333H17.5259V5.22667H18.7191C18.9816 5.22667 19.1964 5.03067 19.1964 4.79111C19.1964 4.55156 18.9816 4.35556 18.7191 4.35556H12.7532V3.04889H17.0487C17.3112 3.04889 17.5259 2.85289 17.5259 2.61333V0.435556C17.5259 0.196 17.3112 0 17.0487 0H12.2759C12.0134 0 11.7987 0.196 11.7987 0.435556V4.35556H5.83276C5.57026 4.35556 5.35549 4.55156 5.35549 4.79111C5.35549 5.03067 5.57026 5.22667 5.83276 5.22667H7.02594V6.53333H4.04299C4.01912 6.53333 4.01912 6.53333 3.99526 6.55511C3.9714 6.55511 3.9714 6.55511 3.94753 6.57689C3.92367 6.57689 3.92367 6.59867 3.8998 6.59867C3.87594 6.59867 3.87594 6.62045 3.85208 6.62045C3.82821 6.62045 3.82821 6.64222 3.82821 6.64222C3.80435 6.64222 3.80435 6.664 3.80435 6.664L3.78049 6.68578C3.78049 6.70756 3.75662 6.70756 3.75662 6.72933V6.75111L1.84753 9.8V9.82178C1.84753 9.84356 1.82367 9.84356 1.82367 9.86533C1.82367 9.88711 1.82367 9.88711 1.7998 9.90889V19.1644C1.7998 19.404 2.01458 19.6 2.27708 19.6H22.3225C22.585 19.6 22.7998 19.404 22.7998 19.1644V10.0178C22.7759 10.0178 22.7759 9.996 22.7759 9.996ZM16.5714 2.17778H12.7532V0.871111H16.5714V2.17778ZM20.1032 7.40444L21.4634 9.58222H17.5259V7.40444H20.1032ZM7.02594 9.58222H3.06458L4.4248 7.40444H7.02594V9.58222ZM2.73049 10.4533H7.02594V18.7289H2.73049V10.4533ZM7.98049 10.0178V5.22667H16.5714V18.7289H15.1396V13.9378C15.1396 12.5004 13.8509 11.3244 12.2759 11.3244C10.7009 11.3244 9.41231 12.5004 9.41231 13.9378V18.7289H7.98049V10.0178ZM14.1134 13.5022H10.4384C10.6532 12.7618 11.393 12.1956 12.2759 12.1956C13.1589 12.1956 13.8987 12.7618 14.1134 13.5022ZM10.3669 18.7289V14.3733H14.185V18.7289H10.3669ZM21.8214 18.7289H17.5259V10.4533H21.8214V18.7289ZM19.1964 16.9867V15.68C19.1964 15.4404 19.4112 15.2444 19.6737 15.2444C19.9362 15.2444 20.1509 15.4404 20.1509 15.68V16.9867C20.1509 17.2262 19.9362 17.4222 19.6737 17.4222C19.4112 17.4222 19.1964 17.2262 19.1964 16.9867ZM19.1964 13.5022V12.1956C19.1964 11.956 19.4112 11.76 19.6737 11.76C19.9362 11.76 20.1509 11.956 20.1509 12.1956V13.5022C20.1509 13.7418 19.9362 13.9378 19.6737 13.9378C19.4112 13.9378 19.1964 13.7418 19.1964 13.5022Z" fill="black"/>
</svg>
