<svg width="60" height="60" viewBox="0 0 60 60" fill="none" xmlns="http://www.w3.org/2000/svg">
<mask id="path-1-inside-1_269_30" fill="white">
<path d="M23.1136 30.6667H36.75C37.5 30.6667 38.1136 30.0667 38.1136 29.3333V21.3333C38.1136 20.6 37.5 20 36.75 20H23.1136C22.3636 20 21.75 20.6 21.75 21.3333V29.3333C21.75 30.0667 22.3636 30.6667 23.1136 30.6667ZM24.4773 22.6667H35.3864V28H24.4773V22.6667ZM10.1591 48V52C10.1591 52.7333 9.54545 53.3333 8.79545 53.3333C8.04545 53.3333 7.43182 52.7333 7.43182 52V48C7.43182 47.2667 8.04545 46.6667 8.79545 46.6667C9.54545 46.6667 10.1591 47.2667 10.1591 48ZM10.1591 37.3333V41.3333C10.1591 42.0667 9.54545 42.6667 8.79545 42.6667C8.04545 42.6667 7.43182 42.0667 7.43182 41.3333V37.3333C7.43182 36.6 8.04545 36 8.79545 36C9.54545 36 10.1591 36.6 10.1591 37.3333ZM59.9318 30.6V30.3333C59.9318 30.2667 59.9318 30.2667 59.8636 30.2C59.8636 30.1333 59.7955 30.1333 59.7955 30.0667V30L54.3409 20.6667V20.6C54.3409 20.5333 54.2727 20.5333 54.2727 20.4667L54.2045 20.4L54.1364 20.3333L54.0682 20.2667C54 20.2667 54 20.2 53.9318 20.2C53.8636 20.2 53.8636 20.1333 53.7955 20.1333C53.7273 20.1333 53.7273 20.0667 53.6591 20.0667C53.5909 20.0667 53.5909 20.0667 53.5227 20H44.9318V16H48.3409C49.0909 16 49.7045 15.4 49.7045 14.6667C49.7045 13.9333 49.0909 13.3333 48.3409 13.3333H31.2955V9.33333H43.5682C44.3182 9.33333 44.9318 8.73333 44.9318 8V1.33333C44.9318 0.6 44.3182 0 43.5682 0H29.9318C29.1818 0 28.5682 0.6 28.5682 1.33333V13.3333H11.5227C10.7727 13.3333 10.1591 13.9333 10.1591 14.6667C10.1591 15.4 10.7727 16 11.5227 16H14.9318V20H6.40909C6.34091 20 6.34091 20 6.27273 20.0667C6.20455 20.0667 6.20455 20.0667 6.13636 20.1333C6.06818 20.1333 6.06818 20.2 6 20.2C5.93182 20.2 5.93182 20.2667 5.86364 20.2667C5.79545 20.2667 5.79545 20.3333 5.79545 20.3333C5.72727 20.3333 5.72727 20.4 5.72727 20.4L5.65909 20.4667C5.65909 20.5333 5.59091 20.5333 5.59091 20.6V20.6667L0.136364 30V30.0667C0.136364 30.1333 0.0681818 30.1333 0.0681818 30.2C0.0681818 30.2667 0.0681818 30.2667 0 30.3333V58.6667C0 59.4 0.613637 60 1.36364 60H58.6364C59.3864 60 60 59.4 60 58.6667V30.6667C59.9318 30.6667 59.9318 30.6 59.9318 30.6ZM42.2045 6.66667H31.2955V2.66667H42.2045V6.66667ZM52.2955 22.6667L56.1818 29.3333H44.9318V22.6667H52.2955ZM14.9318 29.3333H3.61364L7.5 22.6667H14.9318V29.3333ZM2.65909 32H14.9318V57.3333H2.65909V32ZM17.6591 30.6667V16H42.2045V57.3333H38.1136V42.6667C38.1136 38.2667 34.4318 34.6667 29.9318 34.6667C25.4318 34.6667 21.75 38.2667 21.75 42.6667V57.3333H17.6591V30.6667ZM35.1818 41.3333H24.6818C25.2955 39.0667 27.4091 37.3333 29.9318 37.3333C32.4545 37.3333 34.5682 39.0667 35.1818 41.3333ZM24.4773 57.3333V44H35.3864V57.3333H24.4773ZM57.2045 57.3333H44.9318V32H57.2045V57.3333ZM49.7045 52V48C49.7045 47.2667 50.3182 46.6667 51.0682 46.6667C51.8182 46.6667 52.4318 47.2667 52.4318 48V52C52.4318 52.7333 51.8182 53.3333 51.0682 53.3333C50.3182 53.3333 49.7045 52.7333 49.7045 52ZM49.7045 41.3333V37.3333C49.7045 36.6 50.3182 36 51.0682 36C51.8182 36 52.4318 36.6 52.4318 37.3333V41.3333C52.4318 42.0667 51.8182 42.6667 51.0682 42.6667C50.3182 42.6667 49.7045 42.0667 49.7045 41.3333Z"/>
</mask>
<path d="M23.1136 30.6667H36.75C37.5 30.6667 38.1136 30.0667 38.1136 29.3333V21.3333C38.1136 20.6 37.5 20 36.75 20H23.1136C22.3636 20 21.75 20.6 21.75 21.3333V29.3333C21.75 30.0667 22.3636 30.6667 23.1136 30.6667ZM24.4773 22.6667H35.3864V28H24.4773V22.6667ZM10.1591 48V52C10.1591 52.7333 9.54545 53.3333 8.79545 53.3333C8.04545 53.3333 7.43182 52.7333 7.43182 52V48C7.43182 47.2667 8.04545 46.6667 8.79545 46.6667C9.54545 46.6667 10.1591 47.2667 10.1591 48ZM10.1591 37.3333V41.3333C10.1591 42.0667 9.54545 42.6667 8.79545 42.6667C8.04545 42.6667 7.43182 42.0667 7.43182 41.3333V37.3333C7.43182 36.6 8.04545 36 8.79545 36C9.54545 36 10.1591 36.6 10.1591 37.3333ZM59.9318 30.6V30.3333C59.9318 30.2667 59.9318 30.2667 59.8636 30.2C59.8636 30.1333 59.7955 30.1333 59.7955 30.0667V30L54.3409 20.6667V20.6C54.3409 20.5333 54.2727 20.5333 54.2727 20.4667L54.2045 20.4L54.1364 20.3333L54.0682 20.2667C54 20.2667 54 20.2 53.9318 20.2C53.8636 20.2 53.8636 20.1333 53.7955 20.1333C53.7273 20.1333 53.7273 20.0667 53.6591 20.0667C53.5909 20.0667 53.5909 20.0667 53.5227 20H44.9318V16H48.3409C49.0909 16 49.7045 15.4 49.7045 14.6667C49.7045 13.9333 49.0909 13.3333 48.3409 13.3333H31.2955V9.33333H43.5682C44.3182 9.33333 44.9318 8.73333 44.9318 8V1.33333C44.9318 0.6 44.3182 0 43.5682 0H29.9318C29.1818 0 28.5682 0.6 28.5682 1.33333V13.3333H11.5227C10.7727 13.3333 10.1591 13.9333 10.1591 14.6667C10.1591 15.4 10.7727 16 11.5227 16H14.9318V20H6.40909C6.34091 20 6.34091 20 6.27273 20.0667C6.20455 20.0667 6.20455 20.0667 6.13636 20.1333C6.06818 20.1333 6.06818 20.2 6 20.2C5.93182 20.2 5.93182 20.2667 5.86364 20.2667C5.79545 20.2667 5.79545 20.3333 5.79545 20.3333C5.72727 20.3333 5.72727 20.4 5.72727 20.4L5.65909 20.4667C5.65909 20.5333 5.59091 20.5333 5.59091 20.6V20.6667L0.136364 30V30.0667C0.136364 30.1333 0.0681818 30.1333 0.0681818 30.2C0.0681818 30.2667 0.0681818 30.2667 0 30.3333V58.6667C0 59.4 0.613637 60 1.36364 60H58.6364C59.3864 60 60 59.4 60 58.6667V30.6667C59.9318 30.6667 59.9318 30.6 59.9318 30.6ZM42.2045 6.66667H31.2955V2.66667H42.2045V6.66667ZM52.2955 22.6667L56.1818 29.3333H44.9318V22.6667H52.2955ZM14.9318 29.3333H3.61364L7.5 22.6667H14.9318V29.3333ZM2.65909 32H14.9318V57.3333H2.65909V32ZM17.6591 30.6667V16H42.2045V57.3333H38.1136V42.6667C38.1136 38.2667 34.4318 34.6667 29.9318 34.6667C25.4318 34.6667 21.75 38.2667 21.75 42.6667V57.3333H17.6591V30.6667ZM35.1818 41.3333H24.6818C25.2955 39.0667 27.4091 37.3333 29.9318 37.3333C32.4545 37.3333 34.5682 39.0667 35.1818 41.3333ZM24.4773 57.3333V44H35.3864V57.3333H24.4773ZM57.2045 57.3333H44.9318V32H57.2045V57.3333ZM49.7045 52V48C49.7045 47.2667 50.3182 46.6667 51.0682 46.6667C51.8182 46.6667 52.4318 47.2667 52.4318 48V52C52.4318 52.7333 51.8182 53.3333 51.0682 53.3333C50.3182 53.3333 49.7045 52.7333 49.7045 52ZM49.7045 41.3333V37.3333C49.7045 36.6 50.3182 36 51.0682 36C51.8182 36 52.4318 36.6 52.4318 37.3333V41.3333C52.4318 42.0667 51.8182 42.6667 51.0682 42.6667C50.3182 42.6667 49.7045 42.0667 49.7045 41.3333Z" fill="#A5CDFF" stroke="#A5CDFF" stroke-width="4" mask="url(#path-1-inside-1_269_30)"/>
</svg>
