<svg width="70" height="70" viewBox="0 0 70 70" fill="none" xmlns="http://www.w3.org/2000/svg">
<path d="M52.5 23.332C57.3325 23.332 61.25 19.4145 61.25 14.582C61.25 9.74954 57.3325 5.83203 52.5 5.83203C47.6675 5.83203 43.75 9.74954 43.75 14.582C43.75 19.4145 47.6675 23.332 52.5 23.332Z" stroke="black" stroke-width="3" stroke-linecap="round" stroke-linejoin="round"/>
<path d="M17.5 43.75C22.3325 43.75 26.25 39.8325 26.25 35C26.25 30.1675 22.3325 26.25 17.5 26.25C12.6675 26.25 8.75 30.1675 8.75 35C8.75 39.8325 12.6675 43.75 17.5 43.75Z" stroke="black" stroke-width="3" stroke-linecap="round" stroke-linejoin="round"/>
<path d="M52.5 64.168C57.3325 64.168 61.25 60.2505 61.25 55.418C61.25 50.5855 57.3325 46.668 52.5 46.668C47.6675 46.668 43.75 50.5855 43.75 55.418C43.75 60.2505 47.6675 64.168 52.5 64.168Z" stroke="black" stroke-width="3" stroke-linecap="round" stroke-linejoin="round"/>
<path d="M25.0547 39.4023L44.9755 51.0107" stroke="black" stroke-width="3" stroke-linecap="round" stroke-linejoin="round"/>
<path d="M44.9464 18.9883L25.0547 30.5966" stroke="black" stroke-width="3" stroke-linecap="round" stroke-linejoin="round"/>
</svg>
