<svg width="593" height="581" viewBox="0 0 593 581" fill="none" xmlns="http://www.w3.org/2000/svg">
<rect width="593" height="581" rx="8" fill="#00664F"/>
<path opacity="0.05" d="M138.175 375.404C118.675 375.604 89.5749 364.804 94.4749 340.604C97.7749 324.204 83.9749 308.804 81.4749 292.304C78.5749 273.304 89.1749 253.104 107.275 243.204C113.675 239.704 121.275 237.204 125.675 231.604C139.375 214.604 116.375 193.404 125.175 170.604C130.275 157.504 145.175 150.304 165.075 151.504C185.475 152.804 205.075 149.004 207.575 130.504C209.675 115.604 209.475 105.104 225.275 92.3038C251.475 71.0038 316.975 68.2038 330.275 108.204C334.175 119.804 345.175 145.204 383.475 123.704C413.275 106.904 483.875 126.304 461.275 174.704C452.375 193.804 469.875 199.904 496.975 209.804C517.275 217.204 534.275 254.104 492.675 285.804C486.675 290.304 500.675 303.204 506.475 307.904C539.875 334.904 508.475 374.704 477.075 375.404C477.075 375.404 157.675 375.204 138.175 375.404ZM184.375 116.504C173.275 114.004 169.775 125.504 170.175 133.804C170.275 135.404 170.375 137.104 171.075 138.504C172.175 140.504 174.375 141.804 176.575 142.404C180.175 143.404 184.175 143.204 187.875 142.404C190.275 141.904 192.675 141.104 194.375 139.404C201.175 132.604 192.675 118.304 184.375 116.504ZM373.875 111.604C373.675 114.504 371.375 117.004 368.675 118.204C365.975 119.504 362.875 119.804 359.875 120.004C355.575 120.304 350.575 120.304 347.675 117.204C345.675 115.104 345.175 111.904 345.575 109.104C346.775 101.904 351.375 94.8038 359.775 95.7038C366.175 96.5038 374.175 105.504 373.875 111.604ZM384.375 94.3038C383.375 95.0038 381.975 95.2038 380.775 94.9038C380.175 94.8038 379.475 94.5038 378.975 94.1038C375.375 91.5038 376.775 86.6038 381.375 87.1038C384.975 87.5038 388.475 91.6038 384.375 94.3038ZM493.175 184.304C494.375 186.004 495.275 188.104 494.575 190.004C494.075 191.404 492.775 192.404 491.475 193.004C488.675 194.304 485.275 194.004 482.375 192.804C479.475 191.704 476.975 189.804 474.575 187.804C473.475 186.904 472.475 186.004 471.875 184.804C471.475 183.904 471.375 182.904 471.375 182.004C471.275 180.304 471.475 178.604 471.975 177.004C472.675 174.904 473.975 173.004 475.275 171.304C477.275 168.704 480.175 165.604 483.975 166.204C486.275 166.604 486.775 167.904 486.875 170.004C486.875 172.304 486.375 174.504 487.275 176.804C488.275 179.804 491.375 181.804 493.175 184.304ZM99.7749 233.504C96.0749 236.604 89.7749 236.104 86.5749 232.404C75.3749 219.404 85.2749 187.404 106.175 192.004C113.975 193.704 119.875 202.404 116.375 210.004C114.375 214.304 109.075 216.504 106.575 220.504C103.975 224.704 103.775 230.204 99.7749 233.504Z" fill="white"/>
<path d="M241.63 270.06C241.63 265.36 238.53 261.36 237.13 256.86C225.63 217.76 208.03 243.56 210.33 220.96C212.23 202.56 185.83 193.66 183.63 201.66C181.93 208.06 173.53 211.56 169.53 206.16C164.43 199.36 166.43 189.66 161.93 182.56C159.33 178.46 154.43 175.56 149.33 175.16C144.73 174.76 139.93 176.16 135.43 174.96C127.43 172.76 123.33 163.16 115.13 162.06C114.43 161.96 113.73 161.96 113.03 162.26C111.73 162.76 111.23 164.26 110.93 165.56C110.03 169.06 109.23 172.96 111.33 175.96C113.23 178.66 117.03 179.76 118.83 182.46C120.63 185.16 120.03 188.76 118.93 191.76C117.83 194.76 116.23 197.86 116.43 201.06C116.63 205.66 120.43 209.66 124.83 211.56C129.33 213.56 134.33 213.86 139.33 213.86C140.63 213.86 141.93 213.86 143.13 214.26C147.03 215.56 147.93 220.86 145.43 223.96C144.43 225.16 143.13 226.16 142.43 227.46C140.53 230.96 143.93 235.26 147.93 236.46C151.93 237.56 156.23 236.66 160.43 236.16C164.63 235.66 169.33 235.76 172.43 238.36C176.33 241.76 175.93 247.56 178.23 252.16C180.63 257.06 186.13 260.06 191.73 261.36C197.33 262.66 203.13 262.46 208.93 262.76C221.03 263.36 233.13 265.96 243.53 271.76" fill="#4DC591"/>
<path opacity="0.2" d="M139.875 230.946C143.075 241.846 152.975 251.046 161.875 258.246C171.275 265.846 181.775 272.146 192.375 278.146C214.575 290.746 237.775 302.446 254.975 321.046C255.475 321.546 256.275 320.846 255.775 320.346C240.675 302.646 219.175 291.346 198.575 280.046C188.175 274.246 177.675 268.446 168.075 261.446C157.275 253.646 144.275 243.446 140.275 230.846C140.175 230.646 139.775 230.746 139.875 230.946Z" fill="#444472"/>
<path d="M393.875 310.746C398.675 313.146 404.075 313.446 409.475 313.646C420.975 314.046 432.675 313.646 443.675 310.446C446.475 309.646 449.375 308.546 451.675 306.846C454.075 305.046 455.875 302.446 456.075 299.446C456.375 295.346 453.775 291.746 452.075 288.046C451.575 286.946 451.075 285.646 451.375 284.446C452.075 281.646 455.975 281.246 458.875 281.646C461.275 281.946 463.675 282.146 466.075 282.446C469.075 282.746 472.675 282.846 474.375 280.346C475.875 278.246 475.075 275.146 473.175 273.446C471.275 271.746 468.675 271.146 466.075 271.046C463.475 270.946 460.975 271.346 458.375 271.146C457.775 271.146 457.175 271.046 456.675 270.646C455.475 269.746 456.075 267.846 456.875 266.646C458.775 264.046 461.775 262.146 464.975 261.746C468.175 261.346 471.275 262.146 474.475 262.446C477.675 262.746 481.175 262.446 483.475 260.146C485.675 257.946 486.275 254.646 486.175 251.546C485.975 247.146 479.875 241.546 474.075 245.146C470.875 247.146 467.775 249.146 464.675 251.146C462.675 252.446 459.675 253.646 458.075 251.746C456.875 250.246 457.675 247.946 458.875 246.346C463.275 240.046 470.575 236.646 476.475 231.646C485.475 223.946 471.575 210.546 460.075 218.146C457.075 220.146 454.575 222.946 452.775 226.046C450.675 229.746 449.575 233.946 446.775 237.046C445.775 238.146 444.475 239.146 442.975 239.446C441.475 239.646 439.775 238.946 439.275 237.446C438.775 235.946 439.675 234.446 440.275 232.946C441.875 228.646 440.375 223.746 437.675 220.146C436.075 218.046 433.675 216.146 431.075 216.346C427.875 216.646 425.675 219.846 425.175 222.946C424.675 226.046 425.375 229.246 425.375 232.446C425.475 235.646 424.675 239.146 422.075 240.946C421.675 241.246 421.175 241.446 420.675 241.446C420.275 241.446 419.875 241.246 419.475 240.946C416.975 239.146 416.175 235.946 414.775 233.246C413.375 230.546 410.575 227.846 407.675 228.746C405.275 229.546 404.275 232.346 404.375 234.846C404.575 237.346 405.575 239.646 406.075 242.146C407.475 249.646 402.275 257.746 394.975 259.546C392.875 260.046 390.675 260.146 388.775 260.946C385.475 262.246 383.075 265.446 381.975 268.846C380.875 272.246 380.775 275.846 380.775 279.446C380.875 288.646 382.375 299.046 389.775 304.546" fill="url(#paint0_linear_341_2)"/>
<g opacity="0.41">
<path opacity="0.41" d="M471.475 230.446C471.075 230.546 470.775 230.746 470.375 230.846C470.775 230.646 471.075 230.546 471.475 230.346C471.475 230.246 471.575 230.446 471.475 230.446Z" fill="#444472"/>
<path opacity="0.41" d="M466.875 231.946C468.075 231.646 469.175 231.246 470.375 230.846C469.275 231.346 468.075 231.646 466.875 231.946Z" fill="#444472"/>
<path opacity="0.47" d="M411.375 243.146C407.575 257.346 403.975 271.946 407.675 286.446C412.775 279.446 418.175 272.646 423.875 266.046C424.675 253.546 428.575 241.646 432.375 229.746C432.375 229.646 432.575 229.646 432.575 229.846C429.375 241.346 426.375 252.746 425.175 264.646C433.875 254.646 443.275 245.346 453.375 236.946C453.275 236.846 453.275 236.746 453.275 236.646C455.875 230.746 459.475 225.446 463.975 220.846C463.975 220.846 464.075 220.846 464.075 220.946C459.775 225.446 456.475 230.546 454.075 236.346C455.775 234.946 457.475 233.546 459.275 232.246C459.275 232.046 459.275 231.946 459.475 231.946H459.575C462.475 229.646 465.475 227.446 468.575 225.346C468.575 225.346 468.675 225.346 468.675 225.446C465.675 227.546 462.775 229.746 459.975 231.946C462.175 232.246 464.575 232.246 466.875 231.846C464.475 232.446 462.175 232.646 459.475 232.346C450.275 239.646 441.775 247.746 433.875 256.346C446.175 261.046 458.675 256.046 471.075 254.546C471.175 254.546 471.175 254.646 471.075 254.646C458.675 256.446 445.875 261.946 433.475 257.246C433.375 257.246 433.275 257.146 433.275 257.046C430.375 260.146 427.575 263.446 424.875 266.646C424.875 266.946 424.675 267.046 424.475 267.146C422.175 269.946 419.875 272.746 417.575 275.646C430.475 279.546 443.575 280.946 456.875 278.746C456.975 278.746 456.975 278.846 456.875 278.846C443.575 281.546 429.875 280.946 417.075 276.246C412.475 282.146 408.075 288.246 403.775 294.346C416.375 299.546 429.975 303.446 443.175 297.946C443.275 297.946 443.275 298.046 443.175 298.046C429.875 303.846 416.075 300.146 403.175 295.046C401.875 296.946 400.475 298.846 399.175 300.846C398.675 301.646 397.375 300.846 397.875 300.046C400.775 295.746 403.775 291.546 406.775 287.346C402.475 272.346 406.575 257.646 410.875 243.146C411.175 242.946 411.375 243.046 411.375 243.146Z" fill="#444472"/>
</g>
<path d="M190.847 298.902C188.747 302.502 185.247 305.002 181.847 307.402C174.447 312.502 166.647 317.202 158.047 319.702C155.847 320.402 153.547 320.902 151.247 320.702C148.947 320.502 146.647 319.602 145.247 317.702C143.347 315.202 143.547 311.702 143.147 308.502C143.047 307.502 142.747 306.502 142.047 305.802C140.347 304.202 137.747 305.702 135.947 307.102C134.447 308.302 132.947 309.502 131.547 310.702C129.747 312.202 127.347 313.702 125.147 312.802C123.347 312.002 122.547 309.702 123.047 307.802C123.547 305.902 125.047 304.402 126.647 303.202C128.247 302.102 130.147 301.202 131.747 300.002C132.147 299.702 132.547 299.402 132.647 299.002C133.047 297.902 131.847 296.902 130.847 296.502C128.447 295.602 125.747 295.602 123.447 296.702C121.147 297.702 119.447 299.602 117.447 301.102C115.447 302.602 113.047 303.902 110.647 303.402C108.347 302.902 106.447 301.002 105.247 298.902C103.447 295.902 105.247 289.702 110.447 289.602C113.347 289.502 116.247 289.602 119.147 289.602C121.047 289.602 123.447 289.102 123.747 287.202C123.947 285.702 122.347 284.602 120.947 284.002C115.447 281.702 109.147 282.602 103.247 281.802C94.1469 280.602 97.5469 265.902 108.347 266.102C111.147 266.102 113.947 266.902 116.447 268.202C119.347 269.702 121.847 272.102 125.047 272.902C126.147 273.202 127.447 273.302 128.547 272.902C129.647 272.402 130.447 271.202 130.147 270.002C129.847 268.802 128.647 268.202 127.647 267.502C124.847 265.402 123.647 261.502 123.947 258.002C124.147 255.902 124.847 253.702 126.647 252.802C128.847 251.602 131.647 252.802 133.247 254.702C134.947 256.502 135.747 258.902 137.047 261.002C138.347 263.102 140.347 265.102 142.847 265.202C143.247 265.202 143.647 265.202 144.047 264.902C144.347 264.702 144.447 264.402 144.647 264.102C145.547 261.902 144.747 259.402 144.447 257.002C144.147 254.602 144.947 251.702 147.247 251.102C149.147 250.602 151.047 252.002 151.947 253.802C152.847 255.502 153.147 257.502 153.947 259.302C156.147 264.802 162.947 267.902 168.547 266.102C170.147 265.602 171.647 264.702 173.247 264.402C175.947 263.902 178.847 265.002 181.047 266.702C183.247 268.502 184.847 270.802 186.347 273.202C190.147 279.302 193.547 286.702 191.047 293.502" fill="#4DC591"/>
<g opacity="0.41">
<path opacity="0.41" d="M119.947 284.745C120.247 284.645 120.547 284.645 120.847 284.545C120.547 284.645 120.247 284.645 119.947 284.745C119.947 284.745 119.947 284.645 119.947 284.745Z" fill="#444472"/>
<path opacity="0.41" d="M123.647 283.745C122.747 284.045 121.847 284.345 120.847 284.545C121.847 284.445 122.747 284.145 123.647 283.745Z" fill="#444472"/>
</g>
<path d="M224.047 310.913C224.928 305.25 229.101 300.898 231.392 295.705C251.459 250.321 265.611 284.789 267.441 257.001C268.963 234.308 299.358 228.272 300.224 238.353C300.835 246.327 309.295 252.068 314.719 246.282C321.596 238.966 321.272 226.896 327.58 219.009C331.237 214.505 337.114 211.869 342.708 212.188C347.803 212.496 352.749 215.102 357.865 214.41C366.973 213.163 373.267 202.214 382.405 202.388C383.186 202.364 383.984 202.481 384.613 202.975C385.934 203.883 386.234 205.77 386.298 207.472C386.607 211.779 386.782 216.744 383.832 220.022C381.268 222.968 376.933 223.637 374.449 226.645C371.886 229.591 371.931 234.073 372.469 237.925C373.086 241.839 374.203 245.764 373.461 249.629C372.345 255.106 367.514 259.325 362.22 260.893C357.004 262.523 351.375 261.923 346.072 261.07C344.696 260.881 343.241 260.63 341.775 260.879C337.255 261.783 335.241 268.082 337.313 272.247C338.079 273.864 339.389 275.272 339.892 277.063C341.234 281.672 336.735 286.278 332.181 286.901C327.565 287.604 323.126 285.649 318.693 284.335C314.259 283.02 309.175 282.212 305.298 284.891C300.365 288.267 299.672 295.474 296.364 300.505C292.827 305.991 286.248 308.712 279.896 309.197C273.623 309.744 267.286 308.59 261.001 307.856C247.963 306.659 236.459 305.775 224.047 310.913Z" fill="#4DC591"/>
<path d="M210.005 307.853C219.489 297.732 229.073 287.611 236.471 275.872C248.327 257.069 254.014 234.515 252.698 212.304C252.518 209.902 251.644 206.795 249.244 206.775C248.144 206.766 247.239 207.358 246.433 208.052C244.319 209.734 242.403 211.618 240.786 213.705C239.674 215.196 238.26 216.884 236.461 216.669C235.162 216.559 234.271 215.451 233.68 214.346C230.724 209.022 232.481 202.236 235.723 197.163C238.965 192.089 243.6 187.928 246.843 182.754C250.086 177.581 251.742 170.794 248.685 165.569C247.896 164.262 246.706 163.052 245.206 163.04C244.506 163.034 243.903 163.329 243.301 163.624C236.674 166.869 234.207 174.949 231.051 181.623C230.746 182.321 230.239 183.117 229.537 183.411C228.433 183.802 227.341 182.893 226.648 181.987C223.091 176.757 226.248 169.883 228.896 164.105C232.461 156.334 235.135 147.456 232.703 139.236C232.118 137.431 231.232 135.623 229.641 134.61C225.859 132.379 221.026 136.339 220.191 140.632C219.355 144.925 220.718 149.337 220.782 153.737C220.773 154.837 220.664 155.936 219.857 156.73C218.547 157.919 216.254 157.1 215.366 155.593C214.479 154.085 214.595 152.186 214.81 150.388C216.026 136.397 216.753 121.003 208.044 109.93C207.154 108.823 206.163 107.715 204.766 107.303C202.072 106.581 199.455 108.659 198.135 111.048C194.583 117.319 196.217 125.233 199.063 131.857C201.908 138.48 205.956 144.714 207.298 151.726C207.778 154.23 207.855 156.93 206.836 159.222C205.817 161.514 203.401 163.394 200.903 163.173C197.606 162.846 195.533 159.528 194.158 156.517C192.978 154.107 191.798 151.697 190.617 149.387C189.929 147.982 188.942 146.373 187.342 146.36C185.343 146.244 184.321 148.835 184.304 150.935C184.255 156.835 187.509 162.362 191.675 166.597C195.74 170.83 200.712 174.172 205.28 178.01C206.472 179.02 207.663 180.13 208.351 181.535C209.236 183.343 209.118 185.542 208.702 187.538C207.669 191.43 205.141 194.809 201.625 196.78C199.012 198.259 196.007 198.934 193.691 200.815C189.766 203.882 188.715 209.974 191.48 214.197C193.849 217.916 198.336 219.554 202.63 220.289C206.924 221.025 211.425 220.962 215.614 222.297C217.509 222.913 219.402 223.728 220.489 225.337C222.07 227.651 221.644 230.747 220.523 233.238C218.792 237.024 215.666 240.198 211.853 241.766C208.34 243.237 204.438 243.505 200.828 244.675C197.219 245.745 193.499 248.115 192.569 251.807C191.224 257.196 196.385 261.939 201.364 264.48C206.344 266.922 212.227 268.97 214.586 273.99C216.257 277.404 215.724 281.5 214.993 285.194C213.426 293.281 210.861 301.06 207.399 308.532" fill="#4DC591"/>
<path d="M482.675 325.346C486.875 321.246 490.175 316.146 492.175 310.646C494.075 305.046 494.275 298.946 494.275 293.046C494.175 286.446 493.775 279.846 493.075 273.346C482.875 276.546 472.775 280.346 463.575 285.746C454.375 291.146 445.775 298.146 440.375 307.446C431.175 323.346 434.275 341.646 434.275 341.646C434.275 341.646 459.975 347.546 482.675 325.346Z" fill="url(#paint1_linear_341_2)"/>
<path opacity="0.3" d="M452.775 326.646C457.975 322.146 463.075 317.346 467.775 312.346C476.775 302.746 484.375 291.946 489.475 279.546C489.575 279.246 489.175 279.046 488.975 279.346C483.375 292.046 474.975 303.146 465.475 312.846C460.975 317.446 456.275 321.746 451.375 325.946C446.275 330.346 440.675 334.146 435.675 338.746C435.075 339.246 435.875 340.046 436.475 339.646C442.275 335.846 447.575 331.146 452.775 326.646Z" fill="url(#paint2_linear_341_2)"/>
<path d="M453.575 355.746C457.775 356.946 462.475 357.246 466.875 356.446C471.375 355.546 475.675 353.446 479.875 351.146C484.475 348.546 488.875 345.746 493.175 342.846C487.575 337.246 481.675 331.946 474.875 327.946C468.075 323.846 460.375 320.846 452.175 320.746C438.075 320.646 426.375 329.746 426.375 329.746C426.375 329.746 430.675 349.146 453.575 355.746Z" fill="url(#paint3_linear_341_2)"/>
<path opacity="0.3" d="M442.875 336.446C447.775 338.246 452.675 339.746 457.775 341.046C467.375 343.346 477.475 344.346 487.775 343.046C487.975 343.046 487.975 342.646 487.775 342.646C477.075 343.746 466.675 342.446 456.775 339.846C452.075 338.646 447.575 337.146 443.075 335.446C438.375 333.646 433.875 331.446 429.075 329.846C428.575 329.646 428.175 330.446 428.675 330.746C433.075 332.946 438.075 334.646 442.875 336.446Z" fill="url(#paint4_linear_341_2)"/>
<path d="M298.602 215.6C302.902 212.3 306.602 208 309.102 203C311.602 197.9 312.602 192.1 313.402 186.3C314.202 179.9 314.802 173.5 315.002 167C305.402 168.4 295.902 170.3 286.902 174C277.902 177.7 269.202 183 263.102 191C252.602 204.8 253.002 223 253.002 223C253.002 223 275.302 233.2 298.602 215.6Z" fill="#4DC591"/>
<g opacity="0.41">
<path opacity="0.41" d="M276.775 238.446C276.675 238.846 276.575 239.146 276.475 239.546C276.575 239.146 276.675 238.846 276.675 238.446C276.675 238.346 276.775 238.446 276.775 238.446Z" fill="#444472"/>
<path opacity="0.41" d="M275.275 242.946C275.675 241.846 276.075 240.746 276.475 239.546C276.175 240.746 275.775 241.846 275.275 242.946Z" fill="#444472"/>
<path opacity="0.47" d="M252.775 292.546C261.175 303.846 269.975 315.346 282.775 321.146C280.475 313.046 278.375 304.846 276.675 296.546C267.875 288.446 261.175 278.446 254.575 268.446C254.475 268.346 254.675 268.246 254.675 268.346C261.375 277.646 268.175 286.746 276.275 294.746C273.775 282.146 272.075 269.346 271.475 256.446C271.375 256.446 271.275 256.446 271.275 256.346C268.375 250.846 266.375 244.946 265.575 238.746C265.575 238.646 265.675 238.646 265.675 238.746C266.675 244.746 268.575 250.346 271.475 255.646C271.375 253.546 271.375 251.346 271.275 249.246C271.175 249.146 271.075 249.046 271.175 248.846L271.275 248.746C271.275 245.146 271.275 241.546 271.475 237.846C271.475 237.746 271.575 237.846 271.575 237.846C271.475 241.346 271.475 244.946 271.575 248.446C272.975 246.946 274.375 245.046 275.275 243.046C274.375 245.246 273.275 247.246 271.575 249.046C271.875 260.446 273.175 271.846 275.075 283.046C285.375 276.246 288.675 263.646 294.375 253.146C294.375 253.046 294.475 253.146 294.475 253.146C288.875 263.846 285.875 276.946 275.475 283.746C275.375 283.846 275.275 283.846 275.175 283.846C275.875 287.946 276.675 291.946 277.575 296.046C277.775 296.246 277.775 296.446 277.675 296.646C278.475 300.146 279.275 303.546 280.175 306.946C290.175 299.346 298.475 289.946 304.275 278.346C304.275 278.246 304.375 278.346 304.375 278.346C298.975 290.246 290.975 300.446 280.375 307.546C282.175 314.646 284.175 321.646 286.375 328.646C297.275 321.946 307.675 313.746 310.975 300.246C310.975 300.146 311.075 300.246 311.075 300.246C307.975 313.946 297.575 322.446 286.675 329.446C287.375 331.646 288.075 333.746 288.775 335.946C289.075 336.846 287.775 337.346 287.475 336.446C285.875 331.646 284.475 326.846 283.075 322.046C269.575 316.446 260.975 304.646 252.675 292.646C252.575 292.546 252.675 292.446 252.775 292.546Z" fill="#444472"/>
</g>
<path d="M258.272 178.623L190.304 327.541L193.124 328.828L261.093 179.91L258.272 178.623Z" fill="#00664F"/>
<path d="M189.775 332.346C187.475 331.346 186.475 328.546 187.475 326.246C188.475 323.946 191.275 322.946 193.575 323.946C232.375 341.646 278.275 324.546 295.975 285.746C313.675 246.946 296.575 201.046 257.775 183.346C255.475 182.346 254.475 179.546 255.475 177.246C256.475 174.946 259.275 173.946 261.575 174.946C304.875 194.746 324.075 246.046 304.275 289.446C284.475 333.046 233.175 352.146 189.775 332.346Z" fill="#00664F"/>
<path d="M225.675 326.146C265.66 326.146 298.075 293.732 298.075 253.746C298.075 213.761 265.66 181.346 225.675 181.346C185.689 181.346 153.275 213.761 153.275 253.746C153.275 293.732 185.689 326.146 225.675 326.146Z" fill="#B0DDC9"/>
<path d="M291.575 283.846C289.075 289.346 285.975 294.346 282.375 298.946C273.775 302.546 264.175 303.746 254.975 302.146C253.775 301.946 252.575 301.646 251.675 300.846C248.975 298.446 251.275 294.146 251.275 290.546C251.275 287.546 249.475 284.846 247.775 282.346C243.975 276.746 240.175 269.846 242.475 263.346C244.775 256.846 252.475 253.346 254.475 246.746C256.275 240.446 252.175 233.946 252.075 227.346C251.975 222.246 254.475 217.346 257.975 213.746C261.575 210.146 266.175 207.746 270.975 206.046C273.475 205.146 276.275 204.546 278.975 204.546C298.075 225.446 304.075 256.546 291.575 283.846ZM203.675 321.346C207.375 319.546 210.475 316.146 211.175 312.146C211.875 307.746 209.675 303.446 206.975 299.946C204.175 296.446 200.875 293.446 198.575 289.646C197.575 288.046 196.875 286.246 196.875 284.346C196.975 279.146 202.575 275.546 203.175 270.446C203.775 265.946 200.175 261.846 196.175 259.846C192.075 257.846 187.475 257.346 183.075 256.146C178.675 254.946 174.275 252.546 172.475 248.346C170.275 243.046 173.075 236.746 170.075 231.746C168.175 228.546 163.175 226.446 158.875 225.746C143.775 261.646 159.875 303.346 195.575 319.646C197.675 320.546 199.675 321.446 201.775 322.146C202.475 321.946 203.075 321.646 203.675 321.346ZM183.575 194.846C183.775 195.646 184.075 196.446 184.475 197.146C187.975 204.546 195.475 210.146 196.575 218.246C196.875 220.446 196.775 222.946 198.175 224.646C198.875 225.546 199.975 226.046 201.075 226.546C210.175 230.346 221.575 227.646 227.875 220.046C233.975 212.646 235.075 202.346 239.875 194.046C241.275 191.646 242.975 189.346 242.975 186.546C242.975 185.346 242.575 184.246 241.975 183.246C221.375 178.446 200.175 182.946 183.575 194.846Z" fill="#2EA889"/>
<path d="M232.775 338.446H218.575V372.246H232.775V338.446Z" fill="#00664F"/>
<path d="M281.775 384.346H169.575C165.875 384.346 162.975 381.346 162.975 377.746C162.975 374.046 165.975 371.146 169.575 371.146H281.675C285.375 371.146 288.275 374.146 288.275 377.746C288.375 381.346 285.375 384.346 281.775 384.346Z" fill="#00664F"/>
<path d="M435.575 312.946C442.675 312.946 448.475 307.146 448.475 300.046C448.475 292.946 442.675 287.146 435.575 287.146H284.575C289.575 295.746 289.575 304.346 284.575 312.946H435.575Z" fill="#EDEDED"/>
<path d="M435.575 312.946C442.875 312.946 448.775 306.846 448.475 299.446C448.175 292.546 442.175 287.246 435.275 287.246H282.575C281.475 287.246 280.575 286.346 280.575 285.246C280.575 284.146 281.475 283.246 282.575 283.246H435.575C444.875 283.246 452.375 290.746 452.375 300.046C452.375 309.346 444.875 316.846 435.575 316.846H282.575C281.475 316.846 280.575 315.946 280.575 314.846C280.575 313.746 281.475 312.846 282.575 312.846H435.575V312.946Z" fill="#FFC278"/>
<path d="M443.075 289.646L430.875 289.746L407.975 289.946L362.075 290.046L316.175 289.946L293.275 289.846L285.875 289.746C285.775 289.646 285.775 289.546 285.675 289.446L293.175 289.346L316.075 289.246L361.975 289.146L407.875 289.246L430.775 289.346L442.575 289.446C442.875 289.446 442.975 289.546 443.075 289.646ZM446.075 292.646C446.075 292.546 445.975 292.546 445.975 292.446L430.975 292.246L408.075 292.146L362.175 292.046L316.275 292.146L293.375 292.246L287.075 292.346C287.075 292.446 287.175 292.546 287.175 292.746L293.375 292.846L316.275 292.946L362.175 293.046L407.975 292.946L430.875 292.846L446.075 292.646ZM447.675 295.646C447.675 295.646 447.675 295.546 447.575 295.546L430.875 295.346L407.975 295.246L362.075 295.146L316.175 295.246L293.275 295.346L287.875 295.446C287.875 295.546 287.875 295.746 287.975 295.846L293.375 295.946L316.275 296.046L362.175 296.146L407.975 295.946L430.875 295.846L447.675 295.646ZM285.675 310.846L293.175 310.946L316.075 311.046L361.975 311.146L407.875 311.046L430.775 310.946L442.575 310.846C442.675 310.746 442.775 310.646 442.875 310.646L430.675 310.546L407.775 310.446L361.875 310.346L315.975 310.446L293.075 310.546L285.675 310.646C285.775 310.546 285.775 310.746 285.675 310.846ZM445.975 307.746C445.975 307.646 446.075 307.646 446.075 307.546L430.975 307.346L408.075 307.246L362.175 307.146L316.275 307.246L293.375 307.346L287.175 307.446C287.175 307.546 287.075 307.646 287.075 307.846L293.375 307.946L316.275 308.046L362.175 308.146L408.075 308.046L430.975 307.946L445.975 307.746ZM447.575 304.646C447.575 304.646 447.575 304.546 447.675 304.546L430.975 304.346L408.075 304.246L362.175 304.146L316.275 304.246L293.375 304.346L287.975 304.446C287.975 304.546 287.975 304.746 287.875 304.846L293.275 304.946L316.175 305.046L362.075 305.146L407.975 305.046L430.875 304.946L447.575 304.646ZM448.375 301.646V301.546L430.875 301.346L407.975 301.246L362.075 301.146L316.175 301.246L293.275 301.346L288.275 301.446C288.275 301.546 288.275 301.746 288.275 301.846L293.275 301.946L316.175 302.046L362.075 302.146L407.975 301.946L430.875 301.846L448.375 301.646ZM448.375 298.646V298.546L430.975 298.346L408.075 298.246L362.175 298.146L316.275 298.246L293.375 298.346L288.375 298.446C288.375 298.546 288.375 298.746 288.375 298.846L293.375 298.946L316.275 299.046L362.175 299.146L407.975 298.946L430.875 298.846L448.375 298.646Z" fill="#E1E3EF"/>
<path d="M300.875 311.846L307.475 308.046L314.075 311.846V295.246H300.875V311.846Z" fill="#FFC278"/>
<path d="M297.475 346.646C290.375 346.646 284.575 340.846 284.575 333.746C284.575 326.646 290.375 320.846 297.475 320.846H448.475C443.475 329.446 443.475 338.046 448.475 346.646H297.475Z" fill="#EDEDED"/>
<path d="M297.475 346.646C290.175 346.646 284.275 340.546 284.575 333.146C284.875 326.246 290.875 320.946 297.775 320.946H450.375C451.475 320.946 452.375 320.046 452.375 318.946C452.375 317.846 451.475 316.946 450.375 316.946H297.375C288.075 316.946 280.575 324.446 280.575 333.746C280.575 343.046 288.075 350.546 297.375 350.546H450.375C451.475 350.546 452.375 349.646 452.375 348.546C452.375 347.446 451.475 346.546 450.375 346.546H297.475V346.646Z" fill="#FF7648"/>
<path d="M290.275 323.046L302.075 322.946L324.975 322.846L370.875 322.746L416.775 322.846L439.675 322.946L447.175 323.046C447.075 323.146 447.075 323.246 446.975 323.346L439.575 323.446L416.675 323.546L370.775 323.646L324.875 323.546L301.975 323.446L289.775 323.346C290.075 323.246 290.175 323.146 290.275 323.046ZM302.075 326.446L324.975 326.546L370.875 326.646L416.775 326.546L439.675 326.446L445.875 326.346C445.875 326.246 445.975 326.146 445.975 325.946L439.675 325.846L416.775 325.746L370.875 325.646L324.975 325.746L302.075 325.846L287.075 326.046C287.075 326.146 286.975 326.146 286.975 326.246L302.075 326.446ZM302.075 329.446L324.975 329.546L370.875 329.646L416.775 329.546L439.675 329.446L445.075 329.346C445.075 329.246 445.075 329.046 445.175 328.946L439.775 328.846L416.875 328.746L370.975 328.646L325.075 328.746L302.175 328.846L285.475 329.046C285.475 329.046 285.475 329.146 285.375 329.146L302.075 329.446ZM447.175 344.146L439.775 344.046L416.875 343.946L370.975 343.846L325.075 343.946L302.175 344.046L289.975 344.146C290.075 344.246 290.175 344.346 290.275 344.346L302.075 344.446L324.975 344.546L370.875 344.646L416.775 344.546L439.675 344.446L447.175 344.346C447.275 344.446 447.275 344.246 447.175 344.146ZM302.075 341.546L324.975 341.646L370.875 341.746L416.775 341.646L439.675 341.546L445.975 341.446C445.975 341.346 445.875 341.246 445.875 341.046L439.675 340.946L416.775 340.846L370.875 340.746L324.975 340.846L302.075 340.946L286.975 341.146C286.975 341.246 287.075 341.246 287.075 341.346L302.075 341.546ZM302.075 338.546L324.975 338.646L370.875 338.746L416.775 338.646L439.675 338.546L445.075 338.446C445.075 338.346 445.075 338.146 444.975 338.046L439.575 337.946L416.675 337.846L370.775 337.746L324.875 337.846L301.975 337.946L285.275 338.146C285.275 338.146 285.275 338.246 285.375 338.246L302.075 338.546ZM302.075 335.546L324.975 335.646L370.875 335.746L416.775 335.646L439.675 335.546L444.675 335.446C444.675 335.346 444.675 335.146 444.675 335.046L439.675 334.946L416.775 334.846L370.875 334.746L324.975 334.846L302.075 334.946L284.575 335.146V335.246L302.075 335.546ZM302.075 332.546L324.975 332.646L370.875 332.746L416.775 332.646L439.675 332.546L444.675 332.446C444.675 332.346 444.675 332.146 444.675 332.046L439.675 331.946L416.775 331.846L370.875 331.746L324.975 331.846L302.075 331.946L284.675 332.146V332.246L302.075 332.546Z" fill="#E1E3EF"/>
<path d="M436.275 339.646L429.675 335.846L423.175 339.646V322.946H436.275V339.646Z" fill="#FE9946"/>
<path d="M435.575 380.346C442.675 380.346 448.475 374.546 448.475 367.446C448.475 360.346 442.675 354.546 435.575 354.546H284.575C289.575 363.146 289.575 371.746 284.575 380.346H435.575Z" fill="#EDEDED"/>
<path d="M435.575 380.346C442.875 380.346 448.775 374.246 448.475 366.846C448.175 359.946 442.175 354.646 435.275 354.646H282.675C281.575 354.646 280.675 353.746 280.675 352.646C280.675 351.546 281.575 350.646 282.675 350.646H435.675C444.975 350.646 452.475 358.146 452.475 367.446C452.475 376.746 444.975 384.246 435.675 384.246H282.675C281.575 384.246 280.675 383.346 280.675 382.246C280.675 381.146 281.575 380.246 282.675 380.246H435.575V380.346Z" fill="#8F98FF"/>
<path d="M443.075 357.046L430.875 357.146L407.975 357.246L362.075 357.346L316.175 357.246L293.275 357.146L285.875 357.046C285.775 356.946 285.775 356.846 285.675 356.746L293.175 356.646L316.075 356.546L361.975 356.446L407.875 356.546L430.775 356.646L442.575 356.746C442.875 356.846 442.975 356.946 443.075 357.046ZM446.075 360.046C446.075 359.946 445.975 359.946 445.975 359.846L430.975 359.646L408.075 359.546L362.175 359.446L316.275 359.546L293.375 359.646L287.075 359.746C287.075 359.846 287.175 359.946 287.175 360.146L293.375 360.246L316.275 360.346L362.175 360.446L408.075 360.346L430.975 360.246L446.075 360.046ZM447.675 363.046C447.675 363.046 447.675 362.946 447.575 362.946L430.875 362.746L407.975 362.646L362.075 362.546L316.175 362.646L293.275 362.746L287.875 362.846C287.875 362.946 287.875 363.146 287.975 363.246L293.375 363.346L316.275 363.446L362.175 363.546L408.075 363.446L430.975 363.346L447.675 363.046ZM445.975 375.146C445.975 375.046 446.075 375.046 446.075 374.946L430.975 374.746L408.075 374.646L362.175 374.546L316.275 374.646L293.375 374.746L287.175 374.846C287.175 374.946 287.075 375.046 287.075 375.246L293.375 375.346L316.275 375.446L362.175 375.546L408.075 375.446L430.975 375.346L445.975 375.146ZM447.575 372.046C447.575 372.046 447.575 371.946 447.675 371.946L430.975 371.746L408.075 371.646L362.175 371.546L316.275 371.646L293.375 371.746L287.975 371.846C287.975 371.946 287.975 372.146 287.875 372.246L293.275 372.346L316.175 372.446L362.075 372.546L407.975 372.446L430.875 372.346L447.575 372.046ZM448.375 369.046V368.946L430.875 368.746L407.975 368.646L362.075 368.546L316.175 368.646L293.275 368.746L288.275 368.846C288.275 368.946 288.275 369.146 288.275 369.246L293.275 369.346L316.175 369.446L362.075 369.546L407.975 369.446L430.875 369.346L448.375 369.046ZM448.375 366.046V365.946L430.975 365.746L408.075 365.646L362.175 365.546L316.275 365.646L293.375 365.746L288.375 365.846C288.375 365.946 288.375 366.146 288.375 366.246L293.375 366.346L316.275 366.446L362.175 366.546L408.075 366.446L430.975 366.346L448.375 366.046Z" fill="#E1E3EF"/>
<path d="M337.175 379.246L343.775 375.446L350.275 379.246V362.546H337.175V379.246Z" fill="#8F98FF"/>
<defs>
<linearGradient id="paint0_linear_341_2" x1="481.148" y1="222.556" x2="303.474" y2="378.678" gradientUnits="userSpaceOnUse">
<stop stop-color="#6CD3FF"/>
<stop offset="1" stop-color="#8582C9"/>
</linearGradient>
<linearGradient id="paint1_linear_341_2" x1="492.38" y1="287.395" x2="425.136" y2="346.803" gradientUnits="userSpaceOnUse">
<stop offset="0.00060096" stop-color="#B2DB90"/>
<stop offset="1" stop-color="#2BBA90"/>
</linearGradient>
<linearGradient id="paint2_linear_341_2" x1="455.867" y1="292.988" x2="469.522" y2="326.004" gradientUnits="userSpaceOnUse">
<stop stop-color="#2B6565"/>
<stop offset="1" stop-color="#2BBA90"/>
</linearGradient>
<linearGradient id="paint3_linear_341_2" x1="491.176" y1="353.736" x2="415.439" y2="320.145" gradientUnits="userSpaceOnUse">
<stop offset="0.00252404" stop-color="#56D6D5"/>
<stop offset="1" stop-color="#00674B"/>
</linearGradient>
<linearGradient id="paint4_linear_341_2" x1="446.793" y1="318.353" x2="469.38" y2="354.458" gradientUnits="userSpaceOnUse">
<stop stop-color="#2B6565"/>
<stop offset="1" stop-color="#2BBA90"/>
</linearGradient>
</defs>
</svg>
